G04 #@! TF.GenerationSoftware,KiCad,Pcbnew,5.1.9*
G04 #@! TF.CreationDate,2021-04-12T13:30:16-03:00*
G04 #@! TF.ProjectId,Piprogrammer,50697072-6f67-4726-916d-6d65722e6b69,rev?*
G04 #@! TF.SameCoordinates,Original*
G04 #@! TF.FileFunction,Soldermask,Bot*
G04 #@! TF.FilePolarity,Negative*
%FSLAX46Y46*%
G04 Gerber Fmt 4.6, Leading zero omitted, Abs format (unit mm)*
G04 Created by KiCad (PCBNEW 5.1.9) date 2021-04-12 13:30:16*
%MOMM*%
%LPD*%
G01*
G04 APERTURE LIST*
%ADD10O,1.700000X1.700000*%
%ADD11R,1.700000X1.700000*%
%ADD12O,1.800000X1.800000*%
%ADD13O,1.500000X1.500000*%
%ADD14O,1.000000X1.000000*%
%ADD15R,1.000000X1.000000*%
%ADD16C,2.700000*%
G04 APERTURE END LIST*
D10*
X244958000Y-141618000D03*
X244958000Y-139078000D03*
D11*
X244958000Y-136538000D03*
D10*
X244958000Y-133998000D03*
X244958000Y-131458000D03*
X244958000Y-128918000D03*
X244958000Y-126378000D03*
D11*
X244958000Y-123838000D03*
D10*
X244958000Y-121298000D03*
X244958000Y-118758000D03*
X244958000Y-116218000D03*
X244958000Y-113678000D03*
D11*
X244958000Y-111138000D03*
D10*
X244958000Y-108598000D03*
X244958000Y-106058000D03*
X244958000Y-103518000D03*
X244958000Y-100978000D03*
D11*
X244958000Y-98438000D03*
D10*
X244958000Y-95898000D03*
X244958000Y-93358000D03*
X227178000Y-93358000D03*
X227178000Y-95898000D03*
D11*
X227178000Y-98438000D03*
D10*
X227178000Y-100978000D03*
X227178000Y-103518000D03*
X227178000Y-106058000D03*
X227178000Y-108598000D03*
D11*
X227178000Y-111138000D03*
D10*
X227178000Y-113678000D03*
X227178000Y-116218000D03*
X227178000Y-118758000D03*
X227178000Y-121298000D03*
D11*
X227178000Y-123838000D03*
D10*
X227178000Y-126378000D03*
X227178000Y-128918000D03*
X227178000Y-131458000D03*
X227178000Y-133998000D03*
D11*
X227178000Y-136538000D03*
D10*
X227178000Y-139078000D03*
X227178000Y-141618000D03*
D12*
X238793000Y-141488000D03*
X233343000Y-141488000D03*
D13*
X238493000Y-138458000D03*
X233643000Y-138458000D03*
D10*
X238608000Y-93588000D03*
D11*
X236068000Y-93588000D03*
D10*
X233528000Y-93588000D03*
D11*
X234036000Y-105677000D03*
D10*
X216002000Y-146698000D03*
D11*
X213462000Y-146698000D03*
D14*
X233528000Y-111900000D03*
X233528000Y-110630000D03*
X234798000Y-111900000D03*
X234798000Y-110630000D03*
X236068000Y-111900000D03*
X236068000Y-110630000D03*
X237338000Y-111900000D03*
X237338000Y-110630000D03*
X238608000Y-111900000D03*
D15*
X238608000Y-110630000D03*
D11*
X238227000Y-105677000D03*
D10*
X218288000Y-141618000D03*
X218288000Y-139078000D03*
X218288000Y-136538000D03*
X218288000Y-133998000D03*
X218288000Y-131458000D03*
X218288000Y-128918000D03*
X218288000Y-126378000D03*
X218288000Y-123838000D03*
X218288000Y-121298000D03*
X218288000Y-118758000D03*
X218288000Y-116218000D03*
X218288000Y-113678000D03*
X218288000Y-111138000D03*
X218288000Y-108598000D03*
X218288000Y-106058000D03*
X218288000Y-103518000D03*
X218288000Y-100978000D03*
X218288000Y-98438000D03*
X218288000Y-95898000D03*
D11*
X218288000Y-93358000D03*
D10*
X253086000Y-93320000D03*
X253086000Y-95860000D03*
X253086000Y-98400000D03*
X253086000Y-100940000D03*
X253086000Y-103480000D03*
X253086000Y-106020000D03*
X253086000Y-108560000D03*
X253086000Y-111100000D03*
X253086000Y-113640000D03*
X253086000Y-116180000D03*
X253086000Y-118720000D03*
X253086000Y-121260000D03*
X253086000Y-123800000D03*
X253086000Y-126340000D03*
X253086000Y-128880000D03*
X253086000Y-131420000D03*
X253086000Y-133960000D03*
X253086000Y-136500000D03*
X253086000Y-139040000D03*
D11*
X253086000Y-141580000D03*
D10*
X213248000Y-131204000D03*
D11*
X210708000Y-131204000D03*
D10*
X213208000Y-136284000D03*
D11*
X210668000Y-136284000D03*
X205220000Y-141580000D03*
D10*
X202680000Y-141580000D03*
X205220000Y-139040000D03*
X202680000Y-139040000D03*
X205220000Y-136500000D03*
X202680000Y-136500000D03*
X205220000Y-133960000D03*
X202680000Y-133960000D03*
X205220000Y-131420000D03*
X202680000Y-131420000D03*
X205220000Y-128880000D03*
X202680000Y-128880000D03*
X205220000Y-126340000D03*
X202680000Y-126340000D03*
X205220000Y-123800000D03*
X202680000Y-123800000D03*
X205220000Y-121260000D03*
X202680000Y-121260000D03*
X205220000Y-118720000D03*
X202680000Y-118720000D03*
X205220000Y-116180000D03*
X202680000Y-116180000D03*
X205220000Y-113640000D03*
X202680000Y-113640000D03*
X205220000Y-111100000D03*
X202680000Y-111100000D03*
X205220000Y-108560000D03*
X202680000Y-108560000D03*
X205220000Y-106020000D03*
X202680000Y-106020000D03*
X205220000Y-103480000D03*
X202680000Y-103480000D03*
X205220000Y-100940000D03*
X202680000Y-100940000D03*
X205220000Y-98400000D03*
X202680000Y-98400000D03*
X205220000Y-95860000D03*
X202680000Y-95860000D03*
X205220000Y-93320000D03*
X202680000Y-93320000D03*
D16*
X252950000Y-88450000D03*
X252950000Y-146450000D03*
X203950000Y-88450000D03*
X203950000Y-146450000D03*
M02*
