G04 #@! TF.GenerationSoftware,KiCad,Pcbnew,5.1.9*
G04 #@! TF.CreationDate,2021-04-12T13:30:16-03:00*
G04 #@! TF.ProjectId,Piprogrammer,50697072-6f67-4726-916d-6d65722e6b69,rev?*
G04 #@! TF.SameCoordinates,Original*
G04 #@! TF.FileFunction,Copper,L2,Bot*
G04 #@! TF.FilePolarity,Positive*
%FSLAX46Y46*%
G04 Gerber Fmt 4.6, Leading zero omitted, Abs format (unit mm)*
G04 Created by KiCad (PCBNEW 5.1.9) date 2021-04-12 13:30:16*
%MOMM*%
%LPD*%
G01*
G04 APERTURE LIST*
G04 #@! TA.AperFunction,ComponentPad*
%ADD10O,1.700000X1.700000*%
G04 #@! TD*
G04 #@! TA.AperFunction,ComponentPad*
%ADD11R,1.700000X1.700000*%
G04 #@! TD*
G04 #@! TA.AperFunction,ComponentPad*
%ADD12O,1.000000X1.000000*%
G04 #@! TD*
G04 #@! TA.AperFunction,ComponentPad*
%ADD13R,1.000000X1.000000*%
G04 #@! TD*
G04 #@! TA.AperFunction,ViaPad*
%ADD14C,0.900000*%
G04 #@! TD*
G04 #@! TA.AperFunction,Conductor*
%ADD15C,0.200000*%
G04 #@! TD*
G04 #@! TA.AperFunction,Conductor*
%ADD16C,0.254000*%
G04 #@! TD*
G04 #@! TA.AperFunction,Conductor*
%ADD17C,0.508000*%
G04 #@! TD*
G04 #@! TA.AperFunction,Conductor*
%ADD18C,0.100000*%
G04 #@! TD*
G04 APERTURE END LIST*
D10*
X244958000Y-141618000D03*
X244958000Y-139078000D03*
D11*
X244958000Y-136538000D03*
D10*
X244958000Y-133998000D03*
X244958000Y-131458000D03*
X244958000Y-128918000D03*
X244958000Y-126378000D03*
D11*
X244958000Y-123838000D03*
D10*
X244958000Y-121298000D03*
X244958000Y-118758000D03*
X244958000Y-116218000D03*
X244958000Y-113678000D03*
D11*
X244958000Y-111138000D03*
D10*
X244958000Y-108598000D03*
X244958000Y-106058000D03*
X244958000Y-103518000D03*
X244958000Y-100978000D03*
D11*
X244958000Y-98438000D03*
D10*
X244958000Y-95898000D03*
X244958000Y-93358000D03*
X227178000Y-93358000D03*
X227178000Y-95898000D03*
D11*
X227178000Y-98438000D03*
D10*
X227178000Y-100978000D03*
X227178000Y-103518000D03*
X227178000Y-106058000D03*
X227178000Y-108598000D03*
D11*
X227178000Y-111138000D03*
D10*
X227178000Y-113678000D03*
X227178000Y-116218000D03*
X227178000Y-118758000D03*
X227178000Y-121298000D03*
D11*
X227178000Y-123838000D03*
D10*
X227178000Y-126378000D03*
X227178000Y-128918000D03*
X227178000Y-131458000D03*
X227178000Y-133998000D03*
D11*
X227178000Y-136538000D03*
D10*
X227178000Y-139078000D03*
X227178000Y-141618000D03*
X238608000Y-93588000D03*
D11*
X236068000Y-93588000D03*
D10*
X233528000Y-93588000D03*
D11*
X234036000Y-105677000D03*
D10*
X216002000Y-146698000D03*
D11*
X213462000Y-146698000D03*
D12*
X233528000Y-111900000D03*
X233528000Y-110630000D03*
X234798000Y-111900000D03*
X234798000Y-110630000D03*
X236068000Y-111900000D03*
X236068000Y-110630000D03*
X237338000Y-111900000D03*
X237338000Y-110630000D03*
X238608000Y-111900000D03*
D13*
X238608000Y-110630000D03*
D11*
X238227000Y-105677000D03*
D10*
X218288000Y-141618000D03*
X218288000Y-139078000D03*
X218288000Y-136538000D03*
X218288000Y-133998000D03*
X218288000Y-131458000D03*
X218288000Y-128918000D03*
X218288000Y-126378000D03*
X218288000Y-123838000D03*
X218288000Y-121298000D03*
X218288000Y-118758000D03*
X218288000Y-116218000D03*
X218288000Y-113678000D03*
X218288000Y-111138000D03*
X218288000Y-108598000D03*
X218288000Y-106058000D03*
X218288000Y-103518000D03*
X218288000Y-100978000D03*
X218288000Y-98438000D03*
X218288000Y-95898000D03*
D11*
X218288000Y-93358000D03*
D10*
X253086000Y-93320000D03*
X253086000Y-95860000D03*
X253086000Y-98400000D03*
X253086000Y-100940000D03*
X253086000Y-103480000D03*
X253086000Y-106020000D03*
X253086000Y-108560000D03*
X253086000Y-111100000D03*
X253086000Y-113640000D03*
X253086000Y-116180000D03*
X253086000Y-118720000D03*
X253086000Y-121260000D03*
X253086000Y-123800000D03*
X253086000Y-126340000D03*
X253086000Y-128880000D03*
X253086000Y-131420000D03*
X253086000Y-133960000D03*
X253086000Y-136500000D03*
X253086000Y-139040000D03*
D11*
X253086000Y-141580000D03*
D10*
X213248000Y-131204000D03*
D11*
X210708000Y-131204000D03*
D10*
X213208000Y-136284000D03*
D11*
X210668000Y-136284000D03*
X205220000Y-141580000D03*
D10*
X202680000Y-141580000D03*
X205220000Y-139040000D03*
X202680000Y-139040000D03*
X205220000Y-136500000D03*
X202680000Y-136500000D03*
X205220000Y-133960000D03*
X202680000Y-133960000D03*
X205220000Y-131420000D03*
X202680000Y-131420000D03*
X205220000Y-128880000D03*
X202680000Y-128880000D03*
X205220000Y-126340000D03*
X202680000Y-126340000D03*
X205220000Y-123800000D03*
X202680000Y-123800000D03*
X205220000Y-121260000D03*
X202680000Y-121260000D03*
X205220000Y-118720000D03*
X202680000Y-118720000D03*
X205220000Y-116180000D03*
X202680000Y-116180000D03*
X205220000Y-113640000D03*
X202680000Y-113640000D03*
X205220000Y-111100000D03*
X202680000Y-111100000D03*
X205220000Y-108560000D03*
X202680000Y-108560000D03*
X205220000Y-106020000D03*
X202680000Y-106020000D03*
X205220000Y-103480000D03*
X202680000Y-103480000D03*
X205220000Y-100940000D03*
X202680000Y-100940000D03*
X205220000Y-98400000D03*
X202680000Y-98400000D03*
X205220000Y-95860000D03*
X202680000Y-95860000D03*
X205220000Y-93320000D03*
X202680000Y-93320000D03*
D14*
X213811000Y-106725000D03*
X209652000Y-104534000D03*
X236068000Y-109360000D03*
X237338000Y-109360000D03*
X240132000Y-144666000D03*
X213811000Y-117139000D03*
X226519500Y-89698500D03*
X230226000Y-121044000D03*
X235560000Y-130950000D03*
X241910000Y-130950000D03*
X241910000Y-143396000D03*
D15*
X218288000Y-139078000D02*
X227178000Y-139078000D01*
X218288000Y-98438000D02*
X227178000Y-98438000D01*
X218288000Y-136538000D02*
X227178000Y-136538000D01*
X253048000Y-136538000D02*
X253086000Y-136500000D01*
X244958000Y-136538000D02*
X253048000Y-136538000D01*
X253048000Y-139078000D02*
X253086000Y-139040000D01*
X244958000Y-139078000D02*
X253048000Y-139078000D01*
D16*
X213208000Y-136284000D02*
X214478000Y-136284000D01*
X215401001Y-135360999D02*
X229302999Y-135360999D01*
X214478000Y-136284000D02*
X215401001Y-135360999D01*
X229302999Y-135360999D02*
X230734000Y-136792000D01*
X230734000Y-136792000D02*
X240132000Y-136792000D01*
X242418000Y-139078000D02*
X244958000Y-139078000D01*
X240132000Y-136792000D02*
X242418000Y-139078000D01*
D15*
X253048000Y-141618000D02*
X253086000Y-141580000D01*
X244958000Y-141618000D02*
X253048000Y-141618000D01*
D16*
X253086000Y-141580000D02*
X254140000Y-141580000D01*
X254140000Y-141580000D02*
X254864000Y-140856000D01*
X254864000Y-140856000D02*
X254864000Y-138890040D01*
X254864000Y-138890040D02*
X253781960Y-137808000D01*
X253781960Y-137808000D02*
X242926000Y-137808000D01*
X242926000Y-137808000D02*
X240894000Y-135776000D01*
X240894000Y-135776000D02*
X231750000Y-135776000D01*
X214679001Y-132635001D02*
X213248000Y-131204000D01*
X228609001Y-132635001D02*
X214679001Y-132635001D01*
X231750000Y-135776000D02*
X228609001Y-132635001D01*
D15*
X253048000Y-93358000D02*
X253086000Y-93320000D01*
X244958000Y-93358000D02*
X253048000Y-93358000D01*
X244996000Y-95860000D02*
X244958000Y-95898000D01*
X253086000Y-95860000D02*
X244996000Y-95860000D01*
X253048000Y-100978000D02*
X253086000Y-100940000D01*
X244958000Y-100978000D02*
X253048000Y-100978000D01*
X244996000Y-103480000D02*
X244958000Y-103518000D01*
X253086000Y-103480000D02*
X244996000Y-103480000D01*
X253048000Y-106058000D02*
X253086000Y-106020000D01*
X244958000Y-106058000D02*
X253048000Y-106058000D01*
X244996000Y-108560000D02*
X244958000Y-108598000D01*
X253086000Y-108560000D02*
X244996000Y-108560000D01*
X253048000Y-113678000D02*
X253086000Y-113640000D01*
X244958000Y-113678000D02*
X253048000Y-113678000D01*
X244996000Y-116180000D02*
X244958000Y-116218000D01*
X253086000Y-116180000D02*
X244996000Y-116180000D01*
X253048000Y-118758000D02*
X253086000Y-118720000D01*
X244958000Y-118758000D02*
X253048000Y-118758000D01*
X244996000Y-121260000D02*
X244958000Y-121298000D01*
X253086000Y-121260000D02*
X244996000Y-121260000D01*
X253048000Y-126378000D02*
X253086000Y-126340000D01*
X244958000Y-126378000D02*
X253048000Y-126378000D01*
X244996000Y-128880000D02*
X244958000Y-128918000D01*
X253086000Y-128880000D02*
X244996000Y-128880000D01*
X253048000Y-131458000D02*
X253086000Y-131420000D01*
X244958000Y-131458000D02*
X253048000Y-131458000D01*
X244996000Y-133960000D02*
X244958000Y-133998000D01*
X253086000Y-133960000D02*
X244996000Y-133960000D01*
X218288000Y-141618000D02*
X227178000Y-141618000D01*
X218288000Y-133998000D02*
X227178000Y-133998000D01*
X218288000Y-128918000D02*
X227178000Y-128918000D01*
X218288000Y-126378000D02*
X227178000Y-126378000D01*
X218288000Y-121298000D02*
X227178000Y-121298000D01*
X218288000Y-118758000D02*
X227178000Y-118758000D01*
X218288000Y-116218000D02*
X227178000Y-116218000D01*
X218288000Y-113678000D02*
X227178000Y-113678000D01*
X218288000Y-108598000D02*
X227178000Y-108598000D01*
X218288000Y-106058000D02*
X227178000Y-106058000D01*
X218288000Y-103518000D02*
X227178000Y-103518000D01*
X218288000Y-100978000D02*
X227178000Y-100978000D01*
X218288000Y-95898000D02*
X227178000Y-95898000D01*
X218288000Y-93358000D02*
X227178000Y-93358000D01*
D16*
X204042999Y-127517001D02*
X207242999Y-127517001D01*
X202680000Y-128880000D02*
X204042999Y-127517001D01*
X207242999Y-127517001D02*
X209559001Y-125200999D01*
X228609001Y-122660999D02*
X216163001Y-122660999D01*
X230226000Y-121044000D02*
X228609001Y-122660999D01*
X216163001Y-122660999D02*
X213623001Y-125200999D01*
X209559001Y-125200999D02*
X213623001Y-125200999D01*
X202680000Y-123800000D02*
X203912000Y-122568000D01*
X203912000Y-122568000D02*
X212192000Y-122568000D01*
X230826999Y-117395001D02*
X234798000Y-113424000D01*
X212192000Y-122568000D02*
X217364999Y-117395001D01*
X234798000Y-113424000D02*
X234798000Y-111900000D01*
X217364999Y-117395001D02*
X230826999Y-117395001D01*
X205220000Y-123800000D02*
X212738000Y-123800000D01*
X231334999Y-119935001D02*
X236068000Y-115202000D01*
X216602999Y-119935001D02*
X231334999Y-119935001D01*
X236068000Y-115202000D02*
X236068000Y-111900000D01*
X212738000Y-123800000D02*
X216602999Y-119935001D01*
D15*
X218288000Y-131458000D02*
X227178000Y-131458000D01*
D17*
X227686000Y-130950000D02*
X227178000Y-131458000D01*
D16*
X253899016Y-85682312D02*
X254330930Y-85812714D01*
X254729285Y-86024524D01*
X255078914Y-86309675D01*
X255366497Y-86657303D01*
X255581086Y-87054177D01*
X255714498Y-87485161D01*
X255765001Y-87965663D01*
X255765000Y-146916495D01*
X255717688Y-147399016D01*
X255587287Y-147830927D01*
X255375480Y-148229280D01*
X255090325Y-148578914D01*
X254742697Y-148866497D01*
X254345825Y-149081085D01*
X253914834Y-149214500D01*
X253434346Y-149265000D01*
X237635000Y-149265000D01*
X237635000Y-146254495D01*
X250965000Y-146254495D01*
X250965000Y-146645505D01*
X251041282Y-147029003D01*
X251190915Y-147390250D01*
X251408149Y-147715364D01*
X251684636Y-147991851D01*
X252009750Y-148209085D01*
X252370997Y-148358718D01*
X252754495Y-148435000D01*
X253145505Y-148435000D01*
X253529003Y-148358718D01*
X253890250Y-148209085D01*
X254215364Y-147991851D01*
X254491851Y-147715364D01*
X254709085Y-147390250D01*
X254858718Y-147029003D01*
X254935000Y-146645505D01*
X254935000Y-146254495D01*
X254858718Y-145870997D01*
X254709085Y-145509750D01*
X254491851Y-145184636D01*
X254215364Y-144908149D01*
X253890250Y-144690915D01*
X253529003Y-144541282D01*
X253145505Y-144465000D01*
X252754495Y-144465000D01*
X252370997Y-144541282D01*
X252009750Y-144690915D01*
X251684636Y-144908149D01*
X251408149Y-145184636D01*
X251190915Y-145509750D01*
X251041282Y-145870997D01*
X250965000Y-146254495D01*
X237635000Y-146254495D01*
X237635000Y-145416353D01*
X237632148Y-145387399D01*
X237632169Y-145384427D01*
X237631236Y-145374909D01*
X237626179Y-145326790D01*
X237625088Y-145315717D01*
X237624976Y-145315348D01*
X237621036Y-145277860D01*
X237608547Y-145217017D01*
X237596918Y-145156058D01*
X237594154Y-145146902D01*
X237565298Y-145053683D01*
X237541232Y-144996434D01*
X237517979Y-144938881D01*
X237513489Y-144930436D01*
X237467077Y-144844598D01*
X237432350Y-144793115D01*
X237398364Y-144741179D01*
X237392320Y-144733767D01*
X237330118Y-144658579D01*
X237286051Y-144614818D01*
X237242630Y-144570478D01*
X237235261Y-144564381D01*
X237159640Y-144502706D01*
X237107959Y-144468368D01*
X237056694Y-144433267D01*
X237048281Y-144428718D01*
X236962120Y-144382906D01*
X236904704Y-144359242D01*
X236847661Y-144334792D01*
X236838525Y-144331964D01*
X236745107Y-144303759D01*
X236684195Y-144291698D01*
X236623471Y-144278791D01*
X236613959Y-144277791D01*
X236516841Y-144268269D01*
X236516837Y-144268269D01*
X236483647Y-144265000D01*
X220416353Y-144265000D01*
X220387399Y-144267852D01*
X220384427Y-144267831D01*
X220374909Y-144268764D01*
X220326790Y-144273821D01*
X220315717Y-144274912D01*
X220315348Y-144275024D01*
X220277860Y-144278964D01*
X220217017Y-144291453D01*
X220156058Y-144303082D01*
X220146902Y-144305846D01*
X220053683Y-144334702D01*
X219996434Y-144358768D01*
X219938881Y-144382021D01*
X219930436Y-144386511D01*
X219844598Y-144432923D01*
X219793115Y-144467650D01*
X219741179Y-144501636D01*
X219733767Y-144507680D01*
X219658579Y-144569882D01*
X219614818Y-144613949D01*
X219570478Y-144657370D01*
X219564381Y-144664739D01*
X219502706Y-144740360D01*
X219468368Y-144792041D01*
X219433267Y-144843306D01*
X219428718Y-144851719D01*
X219382906Y-144937880D01*
X219359242Y-144995296D01*
X219334792Y-145052339D01*
X219331964Y-145061475D01*
X219303759Y-145154893D01*
X219291698Y-145215805D01*
X219278791Y-145276529D01*
X219277791Y-145286041D01*
X219268269Y-145383159D01*
X219268269Y-145383173D01*
X219265001Y-145416353D01*
X219265000Y-149265000D01*
X203483504Y-149265000D01*
X203000984Y-149217688D01*
X202569073Y-149087287D01*
X202170720Y-148875480D01*
X201821086Y-148590325D01*
X201533503Y-148242697D01*
X201318915Y-147845825D01*
X201185500Y-147414834D01*
X201135000Y-146934346D01*
X201135000Y-146254495D01*
X201965000Y-146254495D01*
X201965000Y-146645505D01*
X202041282Y-147029003D01*
X202190915Y-147390250D01*
X202408149Y-147715364D01*
X202684636Y-147991851D01*
X203009750Y-148209085D01*
X203370997Y-148358718D01*
X203754495Y-148435000D01*
X204145505Y-148435000D01*
X204529003Y-148358718D01*
X204890250Y-148209085D01*
X205215364Y-147991851D01*
X205491851Y-147715364D01*
X205709085Y-147390250D01*
X205858718Y-147029003D01*
X205935000Y-146645505D01*
X205935000Y-146254495D01*
X205858718Y-145870997D01*
X205849193Y-145848000D01*
X211973928Y-145848000D01*
X211973928Y-147548000D01*
X211986188Y-147672482D01*
X212022498Y-147792180D01*
X212081463Y-147902494D01*
X212160815Y-147999185D01*
X212257506Y-148078537D01*
X212367820Y-148137502D01*
X212487518Y-148173812D01*
X212612000Y-148186072D01*
X214312000Y-148186072D01*
X214436482Y-148173812D01*
X214556180Y-148137502D01*
X214666494Y-148078537D01*
X214763185Y-147999185D01*
X214842537Y-147902494D01*
X214901502Y-147792180D01*
X214923513Y-147719620D01*
X215055368Y-147851475D01*
X215298589Y-148013990D01*
X215568842Y-148125932D01*
X215855740Y-148183000D01*
X216148260Y-148183000D01*
X216435158Y-148125932D01*
X216705411Y-148013990D01*
X216948632Y-147851475D01*
X217155475Y-147644632D01*
X217317990Y-147401411D01*
X217429932Y-147131158D01*
X217487000Y-146844260D01*
X217487000Y-146551740D01*
X217429932Y-146264842D01*
X217317990Y-145994589D01*
X217155475Y-145751368D01*
X216948632Y-145544525D01*
X216705411Y-145382010D01*
X216435158Y-145270068D01*
X216148260Y-145213000D01*
X215855740Y-145213000D01*
X215568842Y-145270068D01*
X215298589Y-145382010D01*
X215055368Y-145544525D01*
X214923513Y-145676380D01*
X214901502Y-145603820D01*
X214842537Y-145493506D01*
X214763185Y-145396815D01*
X214666494Y-145317463D01*
X214556180Y-145258498D01*
X214436482Y-145222188D01*
X214312000Y-145209928D01*
X212612000Y-145209928D01*
X212487518Y-145222188D01*
X212367820Y-145258498D01*
X212257506Y-145317463D01*
X212160815Y-145396815D01*
X212081463Y-145493506D01*
X212022498Y-145603820D01*
X211986188Y-145723518D01*
X211973928Y-145848000D01*
X205849193Y-145848000D01*
X205709085Y-145509750D01*
X205491851Y-145184636D01*
X205215364Y-144908149D01*
X204890250Y-144690915D01*
X204529003Y-144541282D01*
X204145505Y-144465000D01*
X203754495Y-144465000D01*
X203370997Y-144541282D01*
X203009750Y-144690915D01*
X202684636Y-144908149D01*
X202408149Y-145184636D01*
X202190915Y-145509750D01*
X202041282Y-145870997D01*
X201965000Y-146254495D01*
X201135000Y-146254495D01*
X201135000Y-143289137D01*
X240825000Y-143289137D01*
X240825000Y-143502863D01*
X240866696Y-143712483D01*
X240948485Y-143909940D01*
X241067225Y-144087647D01*
X241218353Y-144238775D01*
X241396060Y-144357515D01*
X241593517Y-144439304D01*
X241803137Y-144481000D01*
X242016863Y-144481000D01*
X242226483Y-144439304D01*
X242423940Y-144357515D01*
X242601647Y-144238775D01*
X242752775Y-144087647D01*
X242871515Y-143909940D01*
X242953304Y-143712483D01*
X242995000Y-143502863D01*
X242995000Y-143289137D01*
X242953304Y-143079517D01*
X242871515Y-142882060D01*
X242752775Y-142704353D01*
X242601647Y-142553225D01*
X242423940Y-142434485D01*
X242226483Y-142352696D01*
X242016863Y-142311000D01*
X241803137Y-142311000D01*
X241593517Y-142352696D01*
X241396060Y-142434485D01*
X241218353Y-142553225D01*
X241067225Y-142704353D01*
X240948485Y-142882060D01*
X240866696Y-143079517D01*
X240825000Y-143289137D01*
X201135000Y-143289137D01*
X201135000Y-93173740D01*
X201195000Y-93173740D01*
X201195000Y-93466260D01*
X201252068Y-93753158D01*
X201364010Y-94023411D01*
X201526525Y-94266632D01*
X201733368Y-94473475D01*
X201907760Y-94590000D01*
X201733368Y-94706525D01*
X201526525Y-94913368D01*
X201364010Y-95156589D01*
X201252068Y-95426842D01*
X201195000Y-95713740D01*
X201195000Y-96006260D01*
X201252068Y-96293158D01*
X201364010Y-96563411D01*
X201526525Y-96806632D01*
X201733368Y-97013475D01*
X201907760Y-97130000D01*
X201733368Y-97246525D01*
X201526525Y-97453368D01*
X201364010Y-97696589D01*
X201252068Y-97966842D01*
X201195000Y-98253740D01*
X201195000Y-98546260D01*
X201252068Y-98833158D01*
X201364010Y-99103411D01*
X201526525Y-99346632D01*
X201733368Y-99553475D01*
X201915534Y-99675195D01*
X201798645Y-99744822D01*
X201582412Y-99939731D01*
X201408359Y-100173080D01*
X201283175Y-100435901D01*
X201238524Y-100583110D01*
X201359845Y-100813000D01*
X202553000Y-100813000D01*
X202553000Y-100793000D01*
X202807000Y-100793000D01*
X202807000Y-100813000D01*
X202827000Y-100813000D01*
X202827000Y-101067000D01*
X202807000Y-101067000D01*
X202807000Y-101087000D01*
X202553000Y-101087000D01*
X202553000Y-101067000D01*
X201359845Y-101067000D01*
X201238524Y-101296890D01*
X201283175Y-101444099D01*
X201408359Y-101706920D01*
X201582412Y-101940269D01*
X201798645Y-102135178D01*
X201915534Y-102204805D01*
X201733368Y-102326525D01*
X201526525Y-102533368D01*
X201364010Y-102776589D01*
X201252068Y-103046842D01*
X201195000Y-103333740D01*
X201195000Y-103626260D01*
X201252068Y-103913158D01*
X201364010Y-104183411D01*
X201526525Y-104426632D01*
X201733368Y-104633475D01*
X201915534Y-104755195D01*
X201798645Y-104824822D01*
X201582412Y-105019731D01*
X201408359Y-105253080D01*
X201283175Y-105515901D01*
X201238524Y-105663110D01*
X201359845Y-105893000D01*
X202553000Y-105893000D01*
X202553000Y-105873000D01*
X202807000Y-105873000D01*
X202807000Y-105893000D01*
X202827000Y-105893000D01*
X202827000Y-106147000D01*
X202807000Y-106147000D01*
X202807000Y-106167000D01*
X202553000Y-106167000D01*
X202553000Y-106147000D01*
X201359845Y-106147000D01*
X201238524Y-106376890D01*
X201283175Y-106524099D01*
X201408359Y-106786920D01*
X201582412Y-107020269D01*
X201798645Y-107215178D01*
X201915534Y-107284805D01*
X201733368Y-107406525D01*
X201526525Y-107613368D01*
X201364010Y-107856589D01*
X201252068Y-108126842D01*
X201195000Y-108413740D01*
X201195000Y-108706260D01*
X201252068Y-108993158D01*
X201364010Y-109263411D01*
X201526525Y-109506632D01*
X201733368Y-109713475D01*
X201907760Y-109830000D01*
X201733368Y-109946525D01*
X201526525Y-110153368D01*
X201364010Y-110396589D01*
X201252068Y-110666842D01*
X201195000Y-110953740D01*
X201195000Y-111246260D01*
X201252068Y-111533158D01*
X201364010Y-111803411D01*
X201526525Y-112046632D01*
X201733368Y-112253475D01*
X201907760Y-112370000D01*
X201733368Y-112486525D01*
X201526525Y-112693368D01*
X201364010Y-112936589D01*
X201252068Y-113206842D01*
X201195000Y-113493740D01*
X201195000Y-113786260D01*
X201252068Y-114073158D01*
X201364010Y-114343411D01*
X201526525Y-114586632D01*
X201733368Y-114793475D01*
X201907760Y-114910000D01*
X201733368Y-115026525D01*
X201526525Y-115233368D01*
X201364010Y-115476589D01*
X201252068Y-115746842D01*
X201195000Y-116033740D01*
X201195000Y-116326260D01*
X201252068Y-116613158D01*
X201364010Y-116883411D01*
X201526525Y-117126632D01*
X201733368Y-117333475D01*
X201915534Y-117455195D01*
X201798645Y-117524822D01*
X201582412Y-117719731D01*
X201408359Y-117953080D01*
X201283175Y-118215901D01*
X201238524Y-118363110D01*
X201359845Y-118593000D01*
X202553000Y-118593000D01*
X202553000Y-118573000D01*
X202807000Y-118573000D01*
X202807000Y-118593000D01*
X202827000Y-118593000D01*
X202827000Y-118847000D01*
X202807000Y-118847000D01*
X202807000Y-118867000D01*
X202553000Y-118867000D01*
X202553000Y-118847000D01*
X201359845Y-118847000D01*
X201238524Y-119076890D01*
X201283175Y-119224099D01*
X201408359Y-119486920D01*
X201582412Y-119720269D01*
X201798645Y-119915178D01*
X201915534Y-119984805D01*
X201733368Y-120106525D01*
X201526525Y-120313368D01*
X201364010Y-120556589D01*
X201252068Y-120826842D01*
X201195000Y-121113740D01*
X201195000Y-121406260D01*
X201252068Y-121693158D01*
X201364010Y-121963411D01*
X201526525Y-122206632D01*
X201733368Y-122413475D01*
X201907760Y-122530000D01*
X201733368Y-122646525D01*
X201526525Y-122853368D01*
X201364010Y-123096589D01*
X201252068Y-123366842D01*
X201195000Y-123653740D01*
X201195000Y-123946260D01*
X201252068Y-124233158D01*
X201364010Y-124503411D01*
X201526525Y-124746632D01*
X201733368Y-124953475D01*
X201915534Y-125075195D01*
X201798645Y-125144822D01*
X201582412Y-125339731D01*
X201408359Y-125573080D01*
X201283175Y-125835901D01*
X201238524Y-125983110D01*
X201359845Y-126213000D01*
X202553000Y-126213000D01*
X202553000Y-126193000D01*
X202807000Y-126193000D01*
X202807000Y-126213000D01*
X202827000Y-126213000D01*
X202827000Y-126467000D01*
X202807000Y-126467000D01*
X202807000Y-126487000D01*
X202553000Y-126487000D01*
X202553000Y-126467000D01*
X201359845Y-126467000D01*
X201238524Y-126696890D01*
X201283175Y-126844099D01*
X201408359Y-127106920D01*
X201582412Y-127340269D01*
X201798645Y-127535178D01*
X201915534Y-127604805D01*
X201733368Y-127726525D01*
X201526525Y-127933368D01*
X201364010Y-128176589D01*
X201252068Y-128446842D01*
X201195000Y-128733740D01*
X201195000Y-129026260D01*
X201252068Y-129313158D01*
X201364010Y-129583411D01*
X201526525Y-129826632D01*
X201733368Y-130033475D01*
X201907760Y-130150000D01*
X201733368Y-130266525D01*
X201526525Y-130473368D01*
X201364010Y-130716589D01*
X201252068Y-130986842D01*
X201195000Y-131273740D01*
X201195000Y-131566260D01*
X201252068Y-131853158D01*
X201364010Y-132123411D01*
X201526525Y-132366632D01*
X201733368Y-132573475D01*
X201907760Y-132690000D01*
X201733368Y-132806525D01*
X201526525Y-133013368D01*
X201364010Y-133256589D01*
X201252068Y-133526842D01*
X201195000Y-133813740D01*
X201195000Y-134106260D01*
X201252068Y-134393158D01*
X201364010Y-134663411D01*
X201526525Y-134906632D01*
X201733368Y-135113475D01*
X201915534Y-135235195D01*
X201798645Y-135304822D01*
X201582412Y-135499731D01*
X201408359Y-135733080D01*
X201283175Y-135995901D01*
X201238524Y-136143110D01*
X201359845Y-136373000D01*
X202553000Y-136373000D01*
X202553000Y-136353000D01*
X202807000Y-136353000D01*
X202807000Y-136373000D01*
X202827000Y-136373000D01*
X202827000Y-136627000D01*
X202807000Y-136627000D01*
X202807000Y-136647000D01*
X202553000Y-136647000D01*
X202553000Y-136627000D01*
X201359845Y-136627000D01*
X201238524Y-136856890D01*
X201283175Y-137004099D01*
X201408359Y-137266920D01*
X201582412Y-137500269D01*
X201798645Y-137695178D01*
X201915534Y-137764805D01*
X201733368Y-137886525D01*
X201526525Y-138093368D01*
X201364010Y-138336589D01*
X201252068Y-138606842D01*
X201195000Y-138893740D01*
X201195000Y-139186260D01*
X201252068Y-139473158D01*
X201364010Y-139743411D01*
X201526525Y-139986632D01*
X201733368Y-140193475D01*
X201907760Y-140310000D01*
X201733368Y-140426525D01*
X201526525Y-140633368D01*
X201364010Y-140876589D01*
X201252068Y-141146842D01*
X201195000Y-141433740D01*
X201195000Y-141726260D01*
X201252068Y-142013158D01*
X201364010Y-142283411D01*
X201526525Y-142526632D01*
X201733368Y-142733475D01*
X201976589Y-142895990D01*
X202246842Y-143007932D01*
X202533740Y-143065000D01*
X202826260Y-143065000D01*
X203113158Y-143007932D01*
X203383411Y-142895990D01*
X203626632Y-142733475D01*
X203758487Y-142601620D01*
X203780498Y-142674180D01*
X203839463Y-142784494D01*
X203918815Y-142881185D01*
X204015506Y-142960537D01*
X204125820Y-143019502D01*
X204245518Y-143055812D01*
X204370000Y-143068072D01*
X206070000Y-143068072D01*
X206194482Y-143055812D01*
X206314180Y-143019502D01*
X206424494Y-142960537D01*
X206521185Y-142881185D01*
X206600537Y-142784494D01*
X206659502Y-142674180D01*
X206695812Y-142554482D01*
X206708072Y-142430000D01*
X206708072Y-140730000D01*
X206695812Y-140605518D01*
X206659502Y-140485820D01*
X206600537Y-140375506D01*
X206521185Y-140278815D01*
X206424494Y-140199463D01*
X206314180Y-140140498D01*
X206241620Y-140118487D01*
X206373475Y-139986632D01*
X206535990Y-139743411D01*
X206647932Y-139473158D01*
X206705000Y-139186260D01*
X206705000Y-138931740D01*
X216803000Y-138931740D01*
X216803000Y-139224260D01*
X216860068Y-139511158D01*
X216972010Y-139781411D01*
X217134525Y-140024632D01*
X217341368Y-140231475D01*
X217515760Y-140348000D01*
X217341368Y-140464525D01*
X217134525Y-140671368D01*
X216972010Y-140914589D01*
X216860068Y-141184842D01*
X216803000Y-141471740D01*
X216803000Y-141764260D01*
X216860068Y-142051158D01*
X216972010Y-142321411D01*
X217134525Y-142564632D01*
X217341368Y-142771475D01*
X217584589Y-142933990D01*
X217854842Y-143045932D01*
X218141740Y-143103000D01*
X218434260Y-143103000D01*
X218721158Y-143045932D01*
X218991411Y-142933990D01*
X219234632Y-142771475D01*
X219441475Y-142564632D01*
X219582883Y-142353000D01*
X225883117Y-142353000D01*
X226024525Y-142564632D01*
X226231368Y-142771475D01*
X226474589Y-142933990D01*
X226744842Y-143045932D01*
X227031740Y-143103000D01*
X227324260Y-143103000D01*
X227611158Y-143045932D01*
X227881411Y-142933990D01*
X228124632Y-142771475D01*
X228331475Y-142564632D01*
X228493990Y-142321411D01*
X228605932Y-142051158D01*
X228663000Y-141764260D01*
X228663000Y-141471740D01*
X228636162Y-141336816D01*
X231808000Y-141336816D01*
X231808000Y-141639184D01*
X231866989Y-141935743D01*
X231982701Y-142215095D01*
X232150688Y-142466505D01*
X232364495Y-142680312D01*
X232615905Y-142848299D01*
X232895257Y-142964011D01*
X233191816Y-143023000D01*
X233494184Y-143023000D01*
X233790743Y-142964011D01*
X234070095Y-142848299D01*
X234321505Y-142680312D01*
X234535312Y-142466505D01*
X234703299Y-142215095D01*
X234819011Y-141935743D01*
X234878000Y-141639184D01*
X234878000Y-141336816D01*
X237258000Y-141336816D01*
X237258000Y-141639184D01*
X237316989Y-141935743D01*
X237432701Y-142215095D01*
X237600688Y-142466505D01*
X237814495Y-142680312D01*
X238065905Y-142848299D01*
X238345257Y-142964011D01*
X238641816Y-143023000D01*
X238944184Y-143023000D01*
X239240743Y-142964011D01*
X239520095Y-142848299D01*
X239771505Y-142680312D01*
X239985312Y-142466505D01*
X240153299Y-142215095D01*
X240269011Y-141935743D01*
X240328000Y-141639184D01*
X240328000Y-141336816D01*
X240269011Y-141040257D01*
X240153299Y-140760905D01*
X239985312Y-140509495D01*
X239771505Y-140295688D01*
X239520095Y-140127701D01*
X239240743Y-140011989D01*
X238944184Y-139953000D01*
X238641816Y-139953000D01*
X238345257Y-140011989D01*
X238065905Y-140127701D01*
X237814495Y-140295688D01*
X237600688Y-140509495D01*
X237432701Y-140760905D01*
X237316989Y-141040257D01*
X237258000Y-141336816D01*
X234878000Y-141336816D01*
X234819011Y-141040257D01*
X234703299Y-140760905D01*
X234535312Y-140509495D01*
X234321505Y-140295688D01*
X234070095Y-140127701D01*
X233790743Y-140011989D01*
X233494184Y-139953000D01*
X233191816Y-139953000D01*
X232895257Y-140011989D01*
X232615905Y-140127701D01*
X232364495Y-140295688D01*
X232150688Y-140509495D01*
X231982701Y-140760905D01*
X231866989Y-141040257D01*
X231808000Y-141336816D01*
X228636162Y-141336816D01*
X228605932Y-141184842D01*
X228493990Y-140914589D01*
X228331475Y-140671368D01*
X228124632Y-140464525D01*
X227950240Y-140348000D01*
X228124632Y-140231475D01*
X228331475Y-140024632D01*
X228493990Y-139781411D01*
X228605932Y-139511158D01*
X228663000Y-139224260D01*
X228663000Y-138931740D01*
X228605932Y-138644842D01*
X228493990Y-138374589D01*
X228331475Y-138131368D01*
X228199620Y-137999513D01*
X228272180Y-137977502D01*
X228382494Y-137918537D01*
X228479185Y-137839185D01*
X228558537Y-137742494D01*
X228617502Y-137632180D01*
X228653812Y-137512482D01*
X228666072Y-137388000D01*
X228663000Y-136823750D01*
X228504250Y-136665000D01*
X227305000Y-136665000D01*
X227305000Y-136685000D01*
X227051000Y-136685000D01*
X227051000Y-136665000D01*
X225851750Y-136665000D01*
X225693000Y-136823750D01*
X225689928Y-137388000D01*
X225702188Y-137512482D01*
X225738498Y-137632180D01*
X225797463Y-137742494D01*
X225876815Y-137839185D01*
X225973506Y-137918537D01*
X226083820Y-137977502D01*
X226156380Y-137999513D01*
X226024525Y-138131368D01*
X225883117Y-138343000D01*
X219582883Y-138343000D01*
X219441475Y-138131368D01*
X219234632Y-137924525D01*
X219052466Y-137802805D01*
X219169355Y-137733178D01*
X219385588Y-137538269D01*
X219559641Y-137304920D01*
X219684825Y-137042099D01*
X219729476Y-136894890D01*
X219608155Y-136665000D01*
X218415000Y-136665000D01*
X218415000Y-136685000D01*
X218161000Y-136685000D01*
X218161000Y-136665000D01*
X216967845Y-136665000D01*
X216846524Y-136894890D01*
X216891175Y-137042099D01*
X217016359Y-137304920D01*
X217190412Y-137538269D01*
X217406645Y-137733178D01*
X217523534Y-137802805D01*
X217341368Y-137924525D01*
X217134525Y-138131368D01*
X216972010Y-138374589D01*
X216860068Y-138644842D01*
X216803000Y-138931740D01*
X206705000Y-138931740D01*
X206705000Y-138893740D01*
X206647932Y-138606842D01*
X206535990Y-138336589D01*
X206373475Y-138093368D01*
X206166632Y-137886525D01*
X205992240Y-137770000D01*
X206166632Y-137653475D01*
X206373475Y-137446632D01*
X206535990Y-137203411D01*
X206647932Y-136933158D01*
X206705000Y-136646260D01*
X206705000Y-136353740D01*
X206647932Y-136066842D01*
X206535990Y-135796589D01*
X206373475Y-135553368D01*
X206254107Y-135434000D01*
X209179928Y-135434000D01*
X209179928Y-137134000D01*
X209192188Y-137258482D01*
X209228498Y-137378180D01*
X209287463Y-137488494D01*
X209366815Y-137585185D01*
X209463506Y-137664537D01*
X209573820Y-137723502D01*
X209693518Y-137759812D01*
X209818000Y-137772072D01*
X211518000Y-137772072D01*
X211642482Y-137759812D01*
X211762180Y-137723502D01*
X211872494Y-137664537D01*
X211969185Y-137585185D01*
X212048537Y-137488494D01*
X212107502Y-137378180D01*
X212129513Y-137305620D01*
X212261368Y-137437475D01*
X212504589Y-137599990D01*
X212774842Y-137711932D01*
X213061740Y-137769000D01*
X213354260Y-137769000D01*
X213641158Y-137711932D01*
X213911411Y-137599990D01*
X214154632Y-137437475D01*
X214361475Y-137230632D01*
X214482688Y-137049224D01*
X214515423Y-137046000D01*
X214515426Y-137046000D01*
X214627378Y-137034974D01*
X214771015Y-136991402D01*
X214903392Y-136920645D01*
X215019422Y-136825422D01*
X215043284Y-136796346D01*
X215716631Y-136122999D01*
X216864150Y-136122999D01*
X216846524Y-136181110D01*
X216967845Y-136411000D01*
X218161000Y-136411000D01*
X218161000Y-136391000D01*
X218415000Y-136391000D01*
X218415000Y-136411000D01*
X219608155Y-136411000D01*
X219729476Y-136181110D01*
X219711850Y-136122999D01*
X225692296Y-136122999D01*
X225693000Y-136252250D01*
X225851750Y-136411000D01*
X227051000Y-136411000D01*
X227051000Y-136391000D01*
X227305000Y-136391000D01*
X227305000Y-136411000D01*
X228504250Y-136411000D01*
X228663000Y-136252250D01*
X228663704Y-136122999D01*
X228987369Y-136122999D01*
X230168720Y-137304351D01*
X230192578Y-137333422D01*
X230308608Y-137428645D01*
X230440985Y-137499402D01*
X230584622Y-137542974D01*
X230696574Y-137554000D01*
X230696576Y-137554000D01*
X230733999Y-137557686D01*
X230771422Y-137554000D01*
X232588315Y-137554000D01*
X232567201Y-137575114D01*
X232415629Y-137801957D01*
X232311225Y-138054011D01*
X232258000Y-138321589D01*
X232258000Y-138594411D01*
X232311225Y-138861989D01*
X232415629Y-139114043D01*
X232567201Y-139340886D01*
X232760114Y-139533799D01*
X232986957Y-139685371D01*
X233239011Y-139789775D01*
X233506589Y-139843000D01*
X233779411Y-139843000D01*
X234046989Y-139789775D01*
X234299043Y-139685371D01*
X234525886Y-139533799D01*
X234718799Y-139340886D01*
X234870371Y-139114043D01*
X234974775Y-138861989D01*
X235028000Y-138594411D01*
X235028000Y-138321589D01*
X234974775Y-138054011D01*
X234870371Y-137801957D01*
X234718799Y-137575114D01*
X234697685Y-137554000D01*
X237438315Y-137554000D01*
X237417201Y-137575114D01*
X237265629Y-137801957D01*
X237161225Y-138054011D01*
X237108000Y-138321589D01*
X237108000Y-138594411D01*
X237161225Y-138861989D01*
X237265629Y-139114043D01*
X237417201Y-139340886D01*
X237610114Y-139533799D01*
X237836957Y-139685371D01*
X238089011Y-139789775D01*
X238356589Y-139843000D01*
X238629411Y-139843000D01*
X238896989Y-139789775D01*
X239149043Y-139685371D01*
X239375886Y-139533799D01*
X239568799Y-139340886D01*
X239720371Y-139114043D01*
X239824775Y-138861989D01*
X239878000Y-138594411D01*
X239878000Y-138321589D01*
X239824775Y-138054011D01*
X239720371Y-137801957D01*
X239568799Y-137575114D01*
X239547685Y-137554000D01*
X239816370Y-137554000D01*
X241852721Y-139590352D01*
X241876578Y-139619422D01*
X241992608Y-139714645D01*
X242124985Y-139785402D01*
X242268622Y-139828974D01*
X242380574Y-139840000D01*
X242380576Y-139840000D01*
X242417999Y-139843686D01*
X242455422Y-139840000D01*
X243681158Y-139840000D01*
X243804525Y-140024632D01*
X244011368Y-140231475D01*
X244185760Y-140348000D01*
X244011368Y-140464525D01*
X243804525Y-140671368D01*
X243642010Y-140914589D01*
X243530068Y-141184842D01*
X243473000Y-141471740D01*
X243473000Y-141764260D01*
X243530068Y-142051158D01*
X243642010Y-142321411D01*
X243804525Y-142564632D01*
X244011368Y-142771475D01*
X244254589Y-142933990D01*
X244524842Y-143045932D01*
X244811740Y-143103000D01*
X245104260Y-143103000D01*
X245391158Y-143045932D01*
X245661411Y-142933990D01*
X245904632Y-142771475D01*
X246111475Y-142564632D01*
X246252883Y-142353000D01*
X251597928Y-142353000D01*
X251597928Y-142430000D01*
X251610188Y-142554482D01*
X251646498Y-142674180D01*
X251705463Y-142784494D01*
X251784815Y-142881185D01*
X251881506Y-142960537D01*
X251991820Y-143019502D01*
X252111518Y-143055812D01*
X252236000Y-143068072D01*
X253936000Y-143068072D01*
X254060482Y-143055812D01*
X254180180Y-143019502D01*
X254290494Y-142960537D01*
X254387185Y-142881185D01*
X254466537Y-142784494D01*
X254525502Y-142674180D01*
X254561812Y-142554482D01*
X254574072Y-142430000D01*
X254574072Y-142209522D01*
X254681422Y-142121422D01*
X254705284Y-142092346D01*
X255376347Y-141421283D01*
X255405422Y-141397422D01*
X255487535Y-141297367D01*
X255500645Y-141281393D01*
X255552252Y-141184842D01*
X255571402Y-141149015D01*
X255614974Y-141005378D01*
X255626000Y-140893426D01*
X255626000Y-140893423D01*
X255629686Y-140856000D01*
X255626000Y-140818577D01*
X255626000Y-138927463D01*
X255629686Y-138890040D01*
X255626000Y-138852614D01*
X255614974Y-138740662D01*
X255571402Y-138597025D01*
X255527773Y-138515401D01*
X255500645Y-138464647D01*
X255465857Y-138422259D01*
X255405422Y-138348618D01*
X255376346Y-138324756D01*
X254347244Y-137295654D01*
X254341463Y-137288610D01*
X254357641Y-137266920D01*
X254482825Y-137004099D01*
X254527476Y-136856890D01*
X254406155Y-136627000D01*
X253213000Y-136627000D01*
X253213000Y-136647000D01*
X252959000Y-136647000D01*
X252959000Y-136627000D01*
X251765845Y-136627000D01*
X251644524Y-136856890D01*
X251689175Y-137004099D01*
X251709133Y-137046000D01*
X246444210Y-137046000D01*
X246443000Y-136823750D01*
X246284250Y-136665000D01*
X245085000Y-136665000D01*
X245085000Y-136685000D01*
X244831000Y-136685000D01*
X244831000Y-136665000D01*
X243631750Y-136665000D01*
X243473000Y-136823750D01*
X243471790Y-137046000D01*
X243241631Y-137046000D01*
X241459284Y-135263654D01*
X241435422Y-135234578D01*
X241319392Y-135139355D01*
X241187015Y-135068598D01*
X241043378Y-135025026D01*
X240931426Y-135014000D01*
X240931423Y-135014000D01*
X240894000Y-135010314D01*
X240856577Y-135014000D01*
X232065631Y-135014000D01*
X229174285Y-132122655D01*
X229150423Y-132093579D01*
X229034393Y-131998356D01*
X228902016Y-131927599D01*
X228758379Y-131884027D01*
X228646427Y-131873001D01*
X228646424Y-131873001D01*
X228610252Y-131869438D01*
X228663000Y-131604260D01*
X228663000Y-131311740D01*
X228605932Y-131024842D01*
X228578461Y-130958521D01*
X228579300Y-130950001D01*
X228568776Y-130843137D01*
X234475000Y-130843137D01*
X234475000Y-131056863D01*
X234516696Y-131266483D01*
X234598485Y-131463940D01*
X234717225Y-131641647D01*
X234868353Y-131792775D01*
X235046060Y-131911515D01*
X235243517Y-131993304D01*
X235453137Y-132035000D01*
X235666863Y-132035000D01*
X235876483Y-131993304D01*
X236073940Y-131911515D01*
X236251647Y-131792775D01*
X236402775Y-131641647D01*
X236521515Y-131463940D01*
X236603304Y-131266483D01*
X236645000Y-131056863D01*
X236645000Y-130843137D01*
X240825000Y-130843137D01*
X240825000Y-131056863D01*
X240866696Y-131266483D01*
X240948485Y-131463940D01*
X241067225Y-131641647D01*
X241218353Y-131792775D01*
X241396060Y-131911515D01*
X241593517Y-131993304D01*
X241803137Y-132035000D01*
X242016863Y-132035000D01*
X242226483Y-131993304D01*
X242423940Y-131911515D01*
X242601647Y-131792775D01*
X242752775Y-131641647D01*
X242871515Y-131463940D01*
X242953304Y-131266483D01*
X242995000Y-131056863D01*
X242995000Y-130843137D01*
X242953304Y-130633517D01*
X242871515Y-130436060D01*
X242752775Y-130258353D01*
X242601647Y-130107225D01*
X242423940Y-129988485D01*
X242226483Y-129906696D01*
X242016863Y-129865000D01*
X241803137Y-129865000D01*
X241593517Y-129906696D01*
X241396060Y-129988485D01*
X241218353Y-130107225D01*
X241067225Y-130258353D01*
X240948485Y-130436060D01*
X240866696Y-130633517D01*
X240825000Y-130843137D01*
X236645000Y-130843137D01*
X236603304Y-130633517D01*
X236521515Y-130436060D01*
X236402775Y-130258353D01*
X236251647Y-130107225D01*
X236073940Y-129988485D01*
X235876483Y-129906696D01*
X235666863Y-129865000D01*
X235453137Y-129865000D01*
X235243517Y-129906696D01*
X235046060Y-129988485D01*
X234868353Y-130107225D01*
X234717225Y-130258353D01*
X234598485Y-130436060D01*
X234516696Y-130633517D01*
X234475000Y-130843137D01*
X228568776Y-130843137D01*
X228562136Y-130775726D01*
X228511302Y-130608149D01*
X228428751Y-130453709D01*
X228317658Y-130318342D01*
X228182291Y-130207249D01*
X228037366Y-130129784D01*
X228124632Y-130071475D01*
X228331475Y-129864632D01*
X228493990Y-129621411D01*
X228605932Y-129351158D01*
X228663000Y-129064260D01*
X228663000Y-128771740D01*
X228605932Y-128484842D01*
X228493990Y-128214589D01*
X228331475Y-127971368D01*
X228124632Y-127764525D01*
X227950240Y-127648000D01*
X228124632Y-127531475D01*
X228331475Y-127324632D01*
X228493990Y-127081411D01*
X228605932Y-126811158D01*
X228663000Y-126524260D01*
X228663000Y-126231740D01*
X228605932Y-125944842D01*
X228493990Y-125674589D01*
X228331475Y-125431368D01*
X228199620Y-125299513D01*
X228272180Y-125277502D01*
X228382494Y-125218537D01*
X228479185Y-125139185D01*
X228558537Y-125042494D01*
X228617502Y-124932180D01*
X228653812Y-124812482D01*
X228666072Y-124688000D01*
X243469928Y-124688000D01*
X243482188Y-124812482D01*
X243518498Y-124932180D01*
X243577463Y-125042494D01*
X243656815Y-125139185D01*
X243753506Y-125218537D01*
X243863820Y-125277502D01*
X243936380Y-125299513D01*
X243804525Y-125431368D01*
X243642010Y-125674589D01*
X243530068Y-125944842D01*
X243473000Y-126231740D01*
X243473000Y-126524260D01*
X243530068Y-126811158D01*
X243642010Y-127081411D01*
X243804525Y-127324632D01*
X244011368Y-127531475D01*
X244185760Y-127648000D01*
X244011368Y-127764525D01*
X243804525Y-127971368D01*
X243642010Y-128214589D01*
X243530068Y-128484842D01*
X243473000Y-128771740D01*
X243473000Y-129064260D01*
X243530068Y-129351158D01*
X243642010Y-129621411D01*
X243804525Y-129864632D01*
X244011368Y-130071475D01*
X244185760Y-130188000D01*
X244011368Y-130304525D01*
X243804525Y-130511368D01*
X243642010Y-130754589D01*
X243530068Y-131024842D01*
X243473000Y-131311740D01*
X243473000Y-131604260D01*
X243530068Y-131891158D01*
X243642010Y-132161411D01*
X243804525Y-132404632D01*
X244011368Y-132611475D01*
X244185760Y-132728000D01*
X244011368Y-132844525D01*
X243804525Y-133051368D01*
X243642010Y-133294589D01*
X243530068Y-133564842D01*
X243473000Y-133851740D01*
X243473000Y-134144260D01*
X243530068Y-134431158D01*
X243642010Y-134701411D01*
X243804525Y-134944632D01*
X243936380Y-135076487D01*
X243863820Y-135098498D01*
X243753506Y-135157463D01*
X243656815Y-135236815D01*
X243577463Y-135333506D01*
X243518498Y-135443820D01*
X243482188Y-135563518D01*
X243469928Y-135688000D01*
X243473000Y-136252250D01*
X243631750Y-136411000D01*
X244831000Y-136411000D01*
X244831000Y-136391000D01*
X245085000Y-136391000D01*
X245085000Y-136411000D01*
X246284250Y-136411000D01*
X246443000Y-136252250D01*
X246446072Y-135688000D01*
X246433812Y-135563518D01*
X246397502Y-135443820D01*
X246338537Y-135333506D01*
X246259185Y-135236815D01*
X246162494Y-135157463D01*
X246052180Y-135098498D01*
X245979620Y-135076487D01*
X246111475Y-134944632D01*
X246273990Y-134701411D01*
X246276646Y-134695000D01*
X251791117Y-134695000D01*
X251932525Y-134906632D01*
X252139368Y-135113475D01*
X252321534Y-135235195D01*
X252204645Y-135304822D01*
X251988412Y-135499731D01*
X251814359Y-135733080D01*
X251689175Y-135995901D01*
X251644524Y-136143110D01*
X251765845Y-136373000D01*
X252959000Y-136373000D01*
X252959000Y-136353000D01*
X253213000Y-136353000D01*
X253213000Y-136373000D01*
X254406155Y-136373000D01*
X254527476Y-136143110D01*
X254482825Y-135995901D01*
X254357641Y-135733080D01*
X254183588Y-135499731D01*
X253967355Y-135304822D01*
X253850466Y-135235195D01*
X254032632Y-135113475D01*
X254239475Y-134906632D01*
X254401990Y-134663411D01*
X254513932Y-134393158D01*
X254571000Y-134106260D01*
X254571000Y-133813740D01*
X254513932Y-133526842D01*
X254401990Y-133256589D01*
X254239475Y-133013368D01*
X254032632Y-132806525D01*
X253858240Y-132690000D01*
X254032632Y-132573475D01*
X254239475Y-132366632D01*
X254401990Y-132123411D01*
X254513932Y-131853158D01*
X254571000Y-131566260D01*
X254571000Y-131273740D01*
X254513932Y-130986842D01*
X254401990Y-130716589D01*
X254239475Y-130473368D01*
X254032632Y-130266525D01*
X253858240Y-130150000D01*
X254032632Y-130033475D01*
X254239475Y-129826632D01*
X254401990Y-129583411D01*
X254513932Y-129313158D01*
X254571000Y-129026260D01*
X254571000Y-128733740D01*
X254513932Y-128446842D01*
X254401990Y-128176589D01*
X254239475Y-127933368D01*
X254032632Y-127726525D01*
X253858240Y-127610000D01*
X254032632Y-127493475D01*
X254239475Y-127286632D01*
X254401990Y-127043411D01*
X254513932Y-126773158D01*
X254571000Y-126486260D01*
X254571000Y-126193740D01*
X254513932Y-125906842D01*
X254401990Y-125636589D01*
X254239475Y-125393368D01*
X254032632Y-125186525D01*
X253850466Y-125064805D01*
X253967355Y-124995178D01*
X254183588Y-124800269D01*
X254357641Y-124566920D01*
X254482825Y-124304099D01*
X254527476Y-124156890D01*
X254406155Y-123927000D01*
X253213000Y-123927000D01*
X253213000Y-123947000D01*
X252959000Y-123947000D01*
X252959000Y-123927000D01*
X251765845Y-123927000D01*
X251644524Y-124156890D01*
X251689175Y-124304099D01*
X251814359Y-124566920D01*
X251988412Y-124800269D01*
X252204645Y-124995178D01*
X252321534Y-125064805D01*
X252139368Y-125186525D01*
X251932525Y-125393368D01*
X251770010Y-125636589D01*
X251767354Y-125643000D01*
X246252883Y-125643000D01*
X246111475Y-125431368D01*
X245979620Y-125299513D01*
X246052180Y-125277502D01*
X246162494Y-125218537D01*
X246259185Y-125139185D01*
X246338537Y-125042494D01*
X246397502Y-124932180D01*
X246433812Y-124812482D01*
X246446072Y-124688000D01*
X246443000Y-124123750D01*
X246284250Y-123965000D01*
X245085000Y-123965000D01*
X245085000Y-123985000D01*
X244831000Y-123985000D01*
X244831000Y-123965000D01*
X243631750Y-123965000D01*
X243473000Y-124123750D01*
X243469928Y-124688000D01*
X228666072Y-124688000D01*
X228663000Y-124123750D01*
X228504250Y-123965000D01*
X227305000Y-123965000D01*
X227305000Y-123985000D01*
X227051000Y-123985000D01*
X227051000Y-123965000D01*
X225851750Y-123965000D01*
X225693000Y-124123750D01*
X225689928Y-124688000D01*
X225702188Y-124812482D01*
X225738498Y-124932180D01*
X225797463Y-125042494D01*
X225876815Y-125139185D01*
X225973506Y-125218537D01*
X226083820Y-125277502D01*
X226156380Y-125299513D01*
X226024525Y-125431368D01*
X225883117Y-125643000D01*
X219582883Y-125643000D01*
X219441475Y-125431368D01*
X219234632Y-125224525D01*
X219052466Y-125102805D01*
X219169355Y-125033178D01*
X219385588Y-124838269D01*
X219559641Y-124604920D01*
X219684825Y-124342099D01*
X219729476Y-124194890D01*
X219608155Y-123965000D01*
X218415000Y-123965000D01*
X218415000Y-123985000D01*
X218161000Y-123985000D01*
X218161000Y-123965000D01*
X216967845Y-123965000D01*
X216846524Y-124194890D01*
X216891175Y-124342099D01*
X217016359Y-124604920D01*
X217190412Y-124838269D01*
X217406645Y-125033178D01*
X217523534Y-125102805D01*
X217341368Y-125224525D01*
X217134525Y-125431368D01*
X216972010Y-125674589D01*
X216860068Y-125944842D01*
X216803000Y-126231740D01*
X216803000Y-126524260D01*
X216860068Y-126811158D01*
X216972010Y-127081411D01*
X217134525Y-127324632D01*
X217341368Y-127531475D01*
X217515760Y-127648000D01*
X217341368Y-127764525D01*
X217134525Y-127971368D01*
X216972010Y-128214589D01*
X216860068Y-128484842D01*
X216803000Y-128771740D01*
X216803000Y-129064260D01*
X216860068Y-129351158D01*
X216972010Y-129621411D01*
X217134525Y-129864632D01*
X217341368Y-130071475D01*
X217515760Y-130188000D01*
X217341368Y-130304525D01*
X217134525Y-130511368D01*
X216972010Y-130754589D01*
X216860068Y-131024842D01*
X216803000Y-131311740D01*
X216803000Y-131604260D01*
X216856456Y-131873001D01*
X214994632Y-131873001D01*
X214689679Y-131568048D01*
X214733000Y-131350260D01*
X214733000Y-131057740D01*
X214675932Y-130770842D01*
X214563990Y-130500589D01*
X214401475Y-130257368D01*
X214194632Y-130050525D01*
X213951411Y-129888010D01*
X213681158Y-129776068D01*
X213394260Y-129719000D01*
X213101740Y-129719000D01*
X212814842Y-129776068D01*
X212544589Y-129888010D01*
X212301368Y-130050525D01*
X212169513Y-130182380D01*
X212147502Y-130109820D01*
X212088537Y-129999506D01*
X212009185Y-129902815D01*
X211912494Y-129823463D01*
X211802180Y-129764498D01*
X211682482Y-129728188D01*
X211558000Y-129715928D01*
X209858000Y-129715928D01*
X209733518Y-129728188D01*
X209613820Y-129764498D01*
X209503506Y-129823463D01*
X209406815Y-129902815D01*
X209327463Y-129999506D01*
X209268498Y-130109820D01*
X209232188Y-130229518D01*
X209219928Y-130354000D01*
X209219928Y-132054000D01*
X209232188Y-132178482D01*
X209268498Y-132298180D01*
X209327463Y-132408494D01*
X209406815Y-132505185D01*
X209503506Y-132584537D01*
X209613820Y-132643502D01*
X209733518Y-132679812D01*
X209858000Y-132692072D01*
X211558000Y-132692072D01*
X211682482Y-132679812D01*
X211802180Y-132643502D01*
X211912494Y-132584537D01*
X212009185Y-132505185D01*
X212088537Y-132408494D01*
X212147502Y-132298180D01*
X212169513Y-132225620D01*
X212301368Y-132357475D01*
X212544589Y-132519990D01*
X212814842Y-132631932D01*
X213101740Y-132689000D01*
X213394260Y-132689000D01*
X213612048Y-132645679D01*
X214113721Y-133147352D01*
X214137579Y-133176423D01*
X214253609Y-133271646D01*
X214385986Y-133342403D01*
X214529623Y-133385975D01*
X214641575Y-133397001D01*
X214641577Y-133397001D01*
X214679000Y-133400687D01*
X214716423Y-133397001D01*
X216929590Y-133397001D01*
X216860068Y-133564842D01*
X216803000Y-133851740D01*
X216803000Y-134144260D01*
X216860068Y-134431158D01*
X216929590Y-134598999D01*
X215438424Y-134598999D01*
X215401001Y-134595313D01*
X215363578Y-134598999D01*
X215363575Y-134598999D01*
X215251623Y-134610025D01*
X215107986Y-134653597D01*
X215057961Y-134680336D01*
X214975608Y-134724354D01*
X214933220Y-134759142D01*
X214859579Y-134819577D01*
X214835717Y-134848653D01*
X214354239Y-135330132D01*
X214154632Y-135130525D01*
X213911411Y-134968010D01*
X213641158Y-134856068D01*
X213354260Y-134799000D01*
X213061740Y-134799000D01*
X212774842Y-134856068D01*
X212504589Y-134968010D01*
X212261368Y-135130525D01*
X212129513Y-135262380D01*
X212107502Y-135189820D01*
X212048537Y-135079506D01*
X211969185Y-134982815D01*
X211872494Y-134903463D01*
X211762180Y-134844498D01*
X211642482Y-134808188D01*
X211518000Y-134795928D01*
X209818000Y-134795928D01*
X209693518Y-134808188D01*
X209573820Y-134844498D01*
X209463506Y-134903463D01*
X209366815Y-134982815D01*
X209287463Y-135079506D01*
X209228498Y-135189820D01*
X209192188Y-135309518D01*
X209179928Y-135434000D01*
X206254107Y-135434000D01*
X206166632Y-135346525D01*
X205992240Y-135230000D01*
X206166632Y-135113475D01*
X206373475Y-134906632D01*
X206535990Y-134663411D01*
X206647932Y-134393158D01*
X206705000Y-134106260D01*
X206705000Y-133813740D01*
X206647932Y-133526842D01*
X206535990Y-133256589D01*
X206373475Y-133013368D01*
X206166632Y-132806525D01*
X205984466Y-132684805D01*
X206101355Y-132615178D01*
X206317588Y-132420269D01*
X206491641Y-132186920D01*
X206616825Y-131924099D01*
X206661476Y-131776890D01*
X206540155Y-131547000D01*
X205347000Y-131547000D01*
X205347000Y-131567000D01*
X205093000Y-131567000D01*
X205093000Y-131547000D01*
X205073000Y-131547000D01*
X205073000Y-131293000D01*
X205093000Y-131293000D01*
X205093000Y-131273000D01*
X205347000Y-131273000D01*
X205347000Y-131293000D01*
X206540155Y-131293000D01*
X206661476Y-131063110D01*
X206616825Y-130915901D01*
X206491641Y-130653080D01*
X206317588Y-130419731D01*
X206101355Y-130224822D01*
X205984466Y-130155195D01*
X206166632Y-130033475D01*
X206373475Y-129826632D01*
X206535990Y-129583411D01*
X206647932Y-129313158D01*
X206705000Y-129026260D01*
X206705000Y-128733740D01*
X206647932Y-128446842D01*
X206578410Y-128279001D01*
X207205576Y-128279001D01*
X207242999Y-128282687D01*
X207280422Y-128279001D01*
X207280425Y-128279001D01*
X207392377Y-128267975D01*
X207536014Y-128224403D01*
X207668391Y-128153646D01*
X207784421Y-128058423D01*
X207808283Y-128029347D01*
X209874632Y-125962999D01*
X213585578Y-125962999D01*
X213623001Y-125966685D01*
X213660424Y-125962999D01*
X213660427Y-125962999D01*
X213772379Y-125951973D01*
X213916016Y-125908401D01*
X214048393Y-125837644D01*
X214164423Y-125742421D01*
X214188285Y-125713345D01*
X216478632Y-123422999D01*
X216864150Y-123422999D01*
X216846524Y-123481110D01*
X216967845Y-123711000D01*
X218161000Y-123711000D01*
X218161000Y-123691000D01*
X218415000Y-123691000D01*
X218415000Y-123711000D01*
X219608155Y-123711000D01*
X219729476Y-123481110D01*
X219711850Y-123422999D01*
X225692296Y-123422999D01*
X225693000Y-123552250D01*
X225851750Y-123711000D01*
X227051000Y-123711000D01*
X227051000Y-123691000D01*
X227305000Y-123691000D01*
X227305000Y-123711000D01*
X228504250Y-123711000D01*
X228663000Y-123552250D01*
X228663713Y-123421297D01*
X228758379Y-123411973D01*
X228902016Y-123368401D01*
X229034393Y-123297644D01*
X229150423Y-123202421D01*
X229174285Y-123173345D01*
X230218631Y-122129000D01*
X230332863Y-122129000D01*
X230542483Y-122087304D01*
X230739940Y-122005515D01*
X230917647Y-121886775D01*
X231068775Y-121735647D01*
X231187515Y-121557940D01*
X231269304Y-121360483D01*
X231311000Y-121150863D01*
X231311000Y-120937137D01*
X231269304Y-120727517D01*
X231256664Y-120697001D01*
X231297576Y-120697001D01*
X231334999Y-120700687D01*
X231372422Y-120697001D01*
X231372425Y-120697001D01*
X231484377Y-120685975D01*
X231628014Y-120642403D01*
X231760391Y-120571646D01*
X231876421Y-120476423D01*
X231900283Y-120447347D01*
X236580353Y-115767278D01*
X236609422Y-115743422D01*
X236704645Y-115627392D01*
X236775402Y-115495015D01*
X236818974Y-115351378D01*
X236830000Y-115239426D01*
X236830000Y-115239424D01*
X236833686Y-115202001D01*
X236830000Y-115164578D01*
X236830000Y-112918095D01*
X237006933Y-112991383D01*
X237226212Y-113035000D01*
X237449788Y-113035000D01*
X237669067Y-112991383D01*
X237875624Y-112905824D01*
X237973000Y-112840759D01*
X238070376Y-112905824D01*
X238276933Y-112991383D01*
X238496212Y-113035000D01*
X238719788Y-113035000D01*
X238939067Y-112991383D01*
X239145624Y-112905824D01*
X239331520Y-112781612D01*
X239489612Y-112623520D01*
X239613824Y-112437624D01*
X239699383Y-112231067D01*
X239743000Y-112011788D01*
X239743000Y-111988000D01*
X243469928Y-111988000D01*
X243482188Y-112112482D01*
X243518498Y-112232180D01*
X243577463Y-112342494D01*
X243656815Y-112439185D01*
X243753506Y-112518537D01*
X243863820Y-112577502D01*
X243936380Y-112599513D01*
X243804525Y-112731368D01*
X243642010Y-112974589D01*
X243530068Y-113244842D01*
X243473000Y-113531740D01*
X243473000Y-113824260D01*
X243530068Y-114111158D01*
X243642010Y-114381411D01*
X243804525Y-114624632D01*
X244011368Y-114831475D01*
X244185760Y-114948000D01*
X244011368Y-115064525D01*
X243804525Y-115271368D01*
X243642010Y-115514589D01*
X243530068Y-115784842D01*
X243473000Y-116071740D01*
X243473000Y-116364260D01*
X243530068Y-116651158D01*
X243642010Y-116921411D01*
X243804525Y-117164632D01*
X244011368Y-117371475D01*
X244185760Y-117488000D01*
X244011368Y-117604525D01*
X243804525Y-117811368D01*
X243642010Y-118054589D01*
X243530068Y-118324842D01*
X243473000Y-118611740D01*
X243473000Y-118904260D01*
X243530068Y-119191158D01*
X243642010Y-119461411D01*
X243804525Y-119704632D01*
X244011368Y-119911475D01*
X244185760Y-120028000D01*
X244011368Y-120144525D01*
X243804525Y-120351368D01*
X243642010Y-120594589D01*
X243530068Y-120864842D01*
X243473000Y-121151740D01*
X243473000Y-121444260D01*
X243530068Y-121731158D01*
X243642010Y-122001411D01*
X243804525Y-122244632D01*
X243936380Y-122376487D01*
X243863820Y-122398498D01*
X243753506Y-122457463D01*
X243656815Y-122536815D01*
X243577463Y-122633506D01*
X243518498Y-122743820D01*
X243482188Y-122863518D01*
X243469928Y-122988000D01*
X243473000Y-123552250D01*
X243631750Y-123711000D01*
X244831000Y-123711000D01*
X244831000Y-123691000D01*
X245085000Y-123691000D01*
X245085000Y-123711000D01*
X246284250Y-123711000D01*
X246443000Y-123552250D01*
X246446072Y-122988000D01*
X246433812Y-122863518D01*
X246397502Y-122743820D01*
X246338537Y-122633506D01*
X246259185Y-122536815D01*
X246162494Y-122457463D01*
X246052180Y-122398498D01*
X245979620Y-122376487D01*
X246111475Y-122244632D01*
X246273990Y-122001411D01*
X246276646Y-121995000D01*
X251791117Y-121995000D01*
X251932525Y-122206632D01*
X252139368Y-122413475D01*
X252321534Y-122535195D01*
X252204645Y-122604822D01*
X251988412Y-122799731D01*
X251814359Y-123033080D01*
X251689175Y-123295901D01*
X251644524Y-123443110D01*
X251765845Y-123673000D01*
X252959000Y-123673000D01*
X252959000Y-123653000D01*
X253213000Y-123653000D01*
X253213000Y-123673000D01*
X254406155Y-123673000D01*
X254527476Y-123443110D01*
X254482825Y-123295901D01*
X254357641Y-123033080D01*
X254183588Y-122799731D01*
X253967355Y-122604822D01*
X253850466Y-122535195D01*
X254032632Y-122413475D01*
X254239475Y-122206632D01*
X254401990Y-121963411D01*
X254513932Y-121693158D01*
X254571000Y-121406260D01*
X254571000Y-121113740D01*
X254513932Y-120826842D01*
X254401990Y-120556589D01*
X254239475Y-120313368D01*
X254032632Y-120106525D01*
X253858240Y-119990000D01*
X254032632Y-119873475D01*
X254239475Y-119666632D01*
X254401990Y-119423411D01*
X254513932Y-119153158D01*
X254571000Y-118866260D01*
X254571000Y-118573740D01*
X254513932Y-118286842D01*
X254401990Y-118016589D01*
X254239475Y-117773368D01*
X254032632Y-117566525D01*
X253858240Y-117450000D01*
X254032632Y-117333475D01*
X254239475Y-117126632D01*
X254401990Y-116883411D01*
X254513932Y-116613158D01*
X254571000Y-116326260D01*
X254571000Y-116033740D01*
X254513932Y-115746842D01*
X254401990Y-115476589D01*
X254239475Y-115233368D01*
X254032632Y-115026525D01*
X253858240Y-114910000D01*
X254032632Y-114793475D01*
X254239475Y-114586632D01*
X254401990Y-114343411D01*
X254513932Y-114073158D01*
X254571000Y-113786260D01*
X254571000Y-113493740D01*
X254513932Y-113206842D01*
X254401990Y-112936589D01*
X254239475Y-112693368D01*
X254032632Y-112486525D01*
X253850466Y-112364805D01*
X253967355Y-112295178D01*
X254183588Y-112100269D01*
X254357641Y-111866920D01*
X254482825Y-111604099D01*
X254527476Y-111456890D01*
X254406155Y-111227000D01*
X253213000Y-111227000D01*
X253213000Y-111247000D01*
X252959000Y-111247000D01*
X252959000Y-111227000D01*
X251765845Y-111227000D01*
X251644524Y-111456890D01*
X251689175Y-111604099D01*
X251814359Y-111866920D01*
X251988412Y-112100269D01*
X252204645Y-112295178D01*
X252321534Y-112364805D01*
X252139368Y-112486525D01*
X251932525Y-112693368D01*
X251770010Y-112936589D01*
X251767354Y-112943000D01*
X246252883Y-112943000D01*
X246111475Y-112731368D01*
X245979620Y-112599513D01*
X246052180Y-112577502D01*
X246162494Y-112518537D01*
X246259185Y-112439185D01*
X246338537Y-112342494D01*
X246397502Y-112232180D01*
X246433812Y-112112482D01*
X246446072Y-111988000D01*
X246443000Y-111423750D01*
X246284250Y-111265000D01*
X245085000Y-111265000D01*
X245085000Y-111285000D01*
X244831000Y-111285000D01*
X244831000Y-111265000D01*
X243631750Y-111265000D01*
X243473000Y-111423750D01*
X243469928Y-111988000D01*
X239743000Y-111988000D01*
X239743000Y-111788212D01*
X239699383Y-111568933D01*
X239653112Y-111457226D01*
X239697502Y-111374180D01*
X239733812Y-111254482D01*
X239746072Y-111130000D01*
X239746072Y-110130000D01*
X239733812Y-110005518D01*
X239697502Y-109885820D01*
X239638537Y-109775506D01*
X239559185Y-109678815D01*
X239462494Y-109599463D01*
X239352180Y-109540498D01*
X239232482Y-109504188D01*
X239108000Y-109491928D01*
X238108000Y-109491928D01*
X237983518Y-109504188D01*
X237863820Y-109540498D01*
X237774820Y-109588070D01*
X237694864Y-109552554D01*
X237639874Y-109535881D01*
X237465000Y-109662046D01*
X237465000Y-110503000D01*
X237469928Y-110503000D01*
X237469928Y-110757000D01*
X237465000Y-110757000D01*
X237465000Y-110768026D01*
X237449788Y-110765000D01*
X237226212Y-110765000D01*
X237211000Y-110768026D01*
X237211000Y-110757000D01*
X236195000Y-110757000D01*
X236195000Y-110768026D01*
X236179788Y-110765000D01*
X235956212Y-110765000D01*
X235941000Y-110768026D01*
X235941000Y-110757000D01*
X235929974Y-110757000D01*
X235933000Y-110741788D01*
X235933000Y-110518212D01*
X235929974Y-110503000D01*
X235941000Y-110503000D01*
X235941000Y-109662046D01*
X236195000Y-109662046D01*
X236195000Y-110503000D01*
X237211000Y-110503000D01*
X237211000Y-109662046D01*
X237036126Y-109535881D01*
X236981136Y-109552554D01*
X236777794Y-109642877D01*
X236703000Y-109695639D01*
X236628206Y-109642877D01*
X236424864Y-109552554D01*
X236369874Y-109535881D01*
X236195000Y-109662046D01*
X235941000Y-109662046D01*
X235766126Y-109535881D01*
X235711136Y-109552554D01*
X235507794Y-109642877D01*
X235437658Y-109692353D01*
X235335624Y-109624176D01*
X235129067Y-109538617D01*
X234909788Y-109495000D01*
X234686212Y-109495000D01*
X234466933Y-109538617D01*
X234260376Y-109624176D01*
X234163000Y-109689241D01*
X234065624Y-109624176D01*
X233859067Y-109538617D01*
X233639788Y-109495000D01*
X233416212Y-109495000D01*
X233196933Y-109538617D01*
X232990376Y-109624176D01*
X232804480Y-109748388D01*
X232646388Y-109906480D01*
X232522176Y-110092376D01*
X232436617Y-110298933D01*
X232393000Y-110518212D01*
X232393000Y-110741788D01*
X232436617Y-110961067D01*
X232522176Y-111167624D01*
X232587241Y-111265000D01*
X232522176Y-111362376D01*
X232436617Y-111568933D01*
X232393000Y-111788212D01*
X232393000Y-112011788D01*
X232436617Y-112231067D01*
X232522176Y-112437624D01*
X232646388Y-112623520D01*
X232804480Y-112781612D01*
X232990376Y-112905824D01*
X233196933Y-112991383D01*
X233416212Y-113035000D01*
X233639788Y-113035000D01*
X233859067Y-112991383D01*
X234036000Y-112918095D01*
X234036000Y-113108369D01*
X230511369Y-116633001D01*
X228609544Y-116633001D01*
X228663000Y-116364260D01*
X228663000Y-116071740D01*
X228605932Y-115784842D01*
X228493990Y-115514589D01*
X228331475Y-115271368D01*
X228124632Y-115064525D01*
X227950240Y-114948000D01*
X228124632Y-114831475D01*
X228331475Y-114624632D01*
X228493990Y-114381411D01*
X228605932Y-114111158D01*
X228663000Y-113824260D01*
X228663000Y-113531740D01*
X228605932Y-113244842D01*
X228493990Y-112974589D01*
X228331475Y-112731368D01*
X228199620Y-112599513D01*
X228272180Y-112577502D01*
X228382494Y-112518537D01*
X228479185Y-112439185D01*
X228558537Y-112342494D01*
X228617502Y-112232180D01*
X228653812Y-112112482D01*
X228666072Y-111988000D01*
X228663000Y-111423750D01*
X228504250Y-111265000D01*
X227305000Y-111265000D01*
X227305000Y-111285000D01*
X227051000Y-111285000D01*
X227051000Y-111265000D01*
X225851750Y-111265000D01*
X225693000Y-111423750D01*
X225689928Y-111988000D01*
X225702188Y-112112482D01*
X225738498Y-112232180D01*
X225797463Y-112342494D01*
X225876815Y-112439185D01*
X225973506Y-112518537D01*
X226083820Y-112577502D01*
X226156380Y-112599513D01*
X226024525Y-112731368D01*
X225883117Y-112943000D01*
X219582883Y-112943000D01*
X219441475Y-112731368D01*
X219234632Y-112524525D01*
X219052466Y-112402805D01*
X219169355Y-112333178D01*
X219385588Y-112138269D01*
X219559641Y-111904920D01*
X219684825Y-111642099D01*
X219729476Y-111494890D01*
X219608155Y-111265000D01*
X218415000Y-111265000D01*
X218415000Y-111285000D01*
X218161000Y-111285000D01*
X218161000Y-111265000D01*
X216967845Y-111265000D01*
X216846524Y-111494890D01*
X216891175Y-111642099D01*
X217016359Y-111904920D01*
X217190412Y-112138269D01*
X217406645Y-112333178D01*
X217523534Y-112402805D01*
X217341368Y-112524525D01*
X217134525Y-112731368D01*
X216972010Y-112974589D01*
X216860068Y-113244842D01*
X216803000Y-113531740D01*
X216803000Y-113824260D01*
X216860068Y-114111158D01*
X216972010Y-114381411D01*
X217134525Y-114624632D01*
X217341368Y-114831475D01*
X217515760Y-114948000D01*
X217341368Y-115064525D01*
X217134525Y-115271368D01*
X216972010Y-115514589D01*
X216860068Y-115784842D01*
X216803000Y-116071740D01*
X216803000Y-116364260D01*
X216860068Y-116651158D01*
X216913385Y-116779876D01*
X216823577Y-116853579D01*
X216799720Y-116882649D01*
X211876370Y-121806000D01*
X206601192Y-121806000D01*
X206647932Y-121693158D01*
X206705000Y-121406260D01*
X206705000Y-121113740D01*
X206647932Y-120826842D01*
X206535990Y-120556589D01*
X206373475Y-120313368D01*
X206166632Y-120106525D01*
X205992240Y-119990000D01*
X206166632Y-119873475D01*
X206373475Y-119666632D01*
X206535990Y-119423411D01*
X206647932Y-119153158D01*
X206705000Y-118866260D01*
X206705000Y-118573740D01*
X206647932Y-118286842D01*
X206535990Y-118016589D01*
X206373475Y-117773368D01*
X206166632Y-117566525D01*
X205992240Y-117450000D01*
X206166632Y-117333475D01*
X206373475Y-117126632D01*
X206535990Y-116883411D01*
X206647932Y-116613158D01*
X206705000Y-116326260D01*
X206705000Y-116033740D01*
X206647932Y-115746842D01*
X206535990Y-115476589D01*
X206373475Y-115233368D01*
X206166632Y-115026525D01*
X205992240Y-114910000D01*
X206166632Y-114793475D01*
X206373475Y-114586632D01*
X206535990Y-114343411D01*
X206647932Y-114073158D01*
X206705000Y-113786260D01*
X206705000Y-113493740D01*
X206647932Y-113206842D01*
X206535990Y-112936589D01*
X206373475Y-112693368D01*
X206166632Y-112486525D01*
X205984466Y-112364805D01*
X206101355Y-112295178D01*
X206317588Y-112100269D01*
X206491641Y-111866920D01*
X206616825Y-111604099D01*
X206661476Y-111456890D01*
X206540155Y-111227000D01*
X205347000Y-111227000D01*
X205347000Y-111247000D01*
X205093000Y-111247000D01*
X205093000Y-111227000D01*
X205073000Y-111227000D01*
X205073000Y-110973000D01*
X205093000Y-110973000D01*
X205093000Y-110953000D01*
X205347000Y-110953000D01*
X205347000Y-110973000D01*
X206540155Y-110973000D01*
X206661476Y-110743110D01*
X206616825Y-110595901D01*
X206491641Y-110333080D01*
X206317588Y-110099731D01*
X206101355Y-109904822D01*
X205984466Y-109835195D01*
X206166632Y-109713475D01*
X206373475Y-109506632D01*
X206535990Y-109263411D01*
X206647932Y-108993158D01*
X206705000Y-108706260D01*
X206705000Y-108413740D01*
X206647932Y-108126842D01*
X206535990Y-107856589D01*
X206373475Y-107613368D01*
X206166632Y-107406525D01*
X205992240Y-107290000D01*
X206166632Y-107173475D01*
X206373475Y-106966632D01*
X206535990Y-106723411D01*
X206647932Y-106453158D01*
X206705000Y-106166260D01*
X206705000Y-105873740D01*
X206647932Y-105586842D01*
X206535990Y-105316589D01*
X206373475Y-105073368D01*
X206166632Y-104866525D01*
X205992240Y-104750000D01*
X206166632Y-104633475D01*
X206373475Y-104426632D01*
X206535990Y-104183411D01*
X206647932Y-103913158D01*
X206705000Y-103626260D01*
X206705000Y-103333740D01*
X206647932Y-103046842D01*
X206535990Y-102776589D01*
X206373475Y-102533368D01*
X206166632Y-102326525D01*
X205992240Y-102210000D01*
X206166632Y-102093475D01*
X206373475Y-101886632D01*
X206535990Y-101643411D01*
X206647932Y-101373158D01*
X206705000Y-101086260D01*
X206705000Y-100831740D01*
X216803000Y-100831740D01*
X216803000Y-101124260D01*
X216860068Y-101411158D01*
X216972010Y-101681411D01*
X217134525Y-101924632D01*
X217341368Y-102131475D01*
X217515760Y-102248000D01*
X217341368Y-102364525D01*
X217134525Y-102571368D01*
X216972010Y-102814589D01*
X216860068Y-103084842D01*
X216803000Y-103371740D01*
X216803000Y-103664260D01*
X216860068Y-103951158D01*
X216972010Y-104221411D01*
X217134525Y-104464632D01*
X217341368Y-104671475D01*
X217515760Y-104788000D01*
X217341368Y-104904525D01*
X217134525Y-105111368D01*
X216972010Y-105354589D01*
X216860068Y-105624842D01*
X216803000Y-105911740D01*
X216803000Y-106204260D01*
X216860068Y-106491158D01*
X216972010Y-106761411D01*
X217134525Y-107004632D01*
X217341368Y-107211475D01*
X217515760Y-107328000D01*
X217341368Y-107444525D01*
X217134525Y-107651368D01*
X216972010Y-107894589D01*
X216860068Y-108164842D01*
X216803000Y-108451740D01*
X216803000Y-108744260D01*
X216860068Y-109031158D01*
X216972010Y-109301411D01*
X217134525Y-109544632D01*
X217341368Y-109751475D01*
X217523534Y-109873195D01*
X217406645Y-109942822D01*
X217190412Y-110137731D01*
X217016359Y-110371080D01*
X216891175Y-110633901D01*
X216846524Y-110781110D01*
X216967845Y-111011000D01*
X218161000Y-111011000D01*
X218161000Y-110991000D01*
X218415000Y-110991000D01*
X218415000Y-111011000D01*
X219608155Y-111011000D01*
X219729476Y-110781110D01*
X219684825Y-110633901D01*
X219559641Y-110371080D01*
X219385588Y-110137731D01*
X219169355Y-109942822D01*
X219052466Y-109873195D01*
X219234632Y-109751475D01*
X219441475Y-109544632D01*
X219582883Y-109333000D01*
X225883117Y-109333000D01*
X226024525Y-109544632D01*
X226156380Y-109676487D01*
X226083820Y-109698498D01*
X225973506Y-109757463D01*
X225876815Y-109836815D01*
X225797463Y-109933506D01*
X225738498Y-110043820D01*
X225702188Y-110163518D01*
X225689928Y-110288000D01*
X225693000Y-110852250D01*
X225851750Y-111011000D01*
X227051000Y-111011000D01*
X227051000Y-110991000D01*
X227305000Y-110991000D01*
X227305000Y-111011000D01*
X228504250Y-111011000D01*
X228663000Y-110852250D01*
X228666072Y-110288000D01*
X228653812Y-110163518D01*
X228617502Y-110043820D01*
X228558537Y-109933506D01*
X228479185Y-109836815D01*
X228382494Y-109757463D01*
X228272180Y-109698498D01*
X228199620Y-109676487D01*
X228331475Y-109544632D01*
X228493990Y-109301411D01*
X228605932Y-109031158D01*
X228663000Y-108744260D01*
X228663000Y-108451740D01*
X228605932Y-108164842D01*
X228493990Y-107894589D01*
X228331475Y-107651368D01*
X228124632Y-107444525D01*
X227950240Y-107328000D01*
X228124632Y-107211475D01*
X228331475Y-107004632D01*
X228493990Y-106761411D01*
X228605932Y-106491158D01*
X228663000Y-106204260D01*
X228663000Y-105911740D01*
X228605932Y-105624842D01*
X228493990Y-105354589D01*
X228331475Y-105111368D01*
X228124632Y-104904525D01*
X228008608Y-104827000D01*
X232547928Y-104827000D01*
X232547928Y-106527000D01*
X232560188Y-106651482D01*
X232596498Y-106771180D01*
X232655463Y-106881494D01*
X232734815Y-106978185D01*
X232831506Y-107057537D01*
X232941820Y-107116502D01*
X233061518Y-107152812D01*
X233186000Y-107165072D01*
X234886000Y-107165072D01*
X235010482Y-107152812D01*
X235130180Y-107116502D01*
X235240494Y-107057537D01*
X235337185Y-106978185D01*
X235416537Y-106881494D01*
X235475502Y-106771180D01*
X235511812Y-106651482D01*
X235524072Y-106527000D01*
X235524072Y-104827000D01*
X236738928Y-104827000D01*
X236738928Y-106527000D01*
X236751188Y-106651482D01*
X236787498Y-106771180D01*
X236846463Y-106881494D01*
X236925815Y-106978185D01*
X237022506Y-107057537D01*
X237132820Y-107116502D01*
X237252518Y-107152812D01*
X237377000Y-107165072D01*
X239077000Y-107165072D01*
X239201482Y-107152812D01*
X239321180Y-107116502D01*
X239431494Y-107057537D01*
X239528185Y-106978185D01*
X239607537Y-106881494D01*
X239666502Y-106771180D01*
X239702812Y-106651482D01*
X239715072Y-106527000D01*
X239715072Y-104827000D01*
X239702812Y-104702518D01*
X239666502Y-104582820D01*
X239607537Y-104472506D01*
X239528185Y-104375815D01*
X239431494Y-104296463D01*
X239321180Y-104237498D01*
X239201482Y-104201188D01*
X239077000Y-104188928D01*
X237377000Y-104188928D01*
X237252518Y-104201188D01*
X237132820Y-104237498D01*
X237022506Y-104296463D01*
X236925815Y-104375815D01*
X236846463Y-104472506D01*
X236787498Y-104582820D01*
X236751188Y-104702518D01*
X236738928Y-104827000D01*
X235524072Y-104827000D01*
X235511812Y-104702518D01*
X235475502Y-104582820D01*
X235416537Y-104472506D01*
X235337185Y-104375815D01*
X235240494Y-104296463D01*
X235130180Y-104237498D01*
X235010482Y-104201188D01*
X234886000Y-104188928D01*
X233186000Y-104188928D01*
X233061518Y-104201188D01*
X232941820Y-104237498D01*
X232831506Y-104296463D01*
X232734815Y-104375815D01*
X232655463Y-104472506D01*
X232596498Y-104582820D01*
X232560188Y-104702518D01*
X232547928Y-104827000D01*
X228008608Y-104827000D01*
X227950240Y-104788000D01*
X228124632Y-104671475D01*
X228331475Y-104464632D01*
X228493990Y-104221411D01*
X228605932Y-103951158D01*
X228663000Y-103664260D01*
X228663000Y-103371740D01*
X228605932Y-103084842D01*
X228493990Y-102814589D01*
X228331475Y-102571368D01*
X228124632Y-102364525D01*
X227950240Y-102248000D01*
X228124632Y-102131475D01*
X228331475Y-101924632D01*
X228493990Y-101681411D01*
X228605932Y-101411158D01*
X228663000Y-101124260D01*
X228663000Y-100831740D01*
X228605932Y-100544842D01*
X228493990Y-100274589D01*
X228331475Y-100031368D01*
X228199620Y-99899513D01*
X228272180Y-99877502D01*
X228382494Y-99818537D01*
X228479185Y-99739185D01*
X228558537Y-99642494D01*
X228617502Y-99532180D01*
X228653812Y-99412482D01*
X228666072Y-99288000D01*
X243469928Y-99288000D01*
X243482188Y-99412482D01*
X243518498Y-99532180D01*
X243577463Y-99642494D01*
X243656815Y-99739185D01*
X243753506Y-99818537D01*
X243863820Y-99877502D01*
X243936380Y-99899513D01*
X243804525Y-100031368D01*
X243642010Y-100274589D01*
X243530068Y-100544842D01*
X243473000Y-100831740D01*
X243473000Y-101124260D01*
X243530068Y-101411158D01*
X243642010Y-101681411D01*
X243804525Y-101924632D01*
X244011368Y-102131475D01*
X244185760Y-102248000D01*
X244011368Y-102364525D01*
X243804525Y-102571368D01*
X243642010Y-102814589D01*
X243530068Y-103084842D01*
X243473000Y-103371740D01*
X243473000Y-103664260D01*
X243530068Y-103951158D01*
X243642010Y-104221411D01*
X243804525Y-104464632D01*
X244011368Y-104671475D01*
X244185760Y-104788000D01*
X244011368Y-104904525D01*
X243804525Y-105111368D01*
X243642010Y-105354589D01*
X243530068Y-105624842D01*
X243473000Y-105911740D01*
X243473000Y-106204260D01*
X243530068Y-106491158D01*
X243642010Y-106761411D01*
X243804525Y-107004632D01*
X244011368Y-107211475D01*
X244185760Y-107328000D01*
X244011368Y-107444525D01*
X243804525Y-107651368D01*
X243642010Y-107894589D01*
X243530068Y-108164842D01*
X243473000Y-108451740D01*
X243473000Y-108744260D01*
X243530068Y-109031158D01*
X243642010Y-109301411D01*
X243804525Y-109544632D01*
X243936380Y-109676487D01*
X243863820Y-109698498D01*
X243753506Y-109757463D01*
X243656815Y-109836815D01*
X243577463Y-109933506D01*
X243518498Y-110043820D01*
X243482188Y-110163518D01*
X243469928Y-110288000D01*
X243473000Y-110852250D01*
X243631750Y-111011000D01*
X244831000Y-111011000D01*
X244831000Y-110991000D01*
X245085000Y-110991000D01*
X245085000Y-111011000D01*
X246284250Y-111011000D01*
X246443000Y-110852250D01*
X246446072Y-110288000D01*
X246433812Y-110163518D01*
X246397502Y-110043820D01*
X246338537Y-109933506D01*
X246259185Y-109836815D01*
X246162494Y-109757463D01*
X246052180Y-109698498D01*
X245979620Y-109676487D01*
X246111475Y-109544632D01*
X246273990Y-109301411D01*
X246276646Y-109295000D01*
X251791117Y-109295000D01*
X251932525Y-109506632D01*
X252139368Y-109713475D01*
X252321534Y-109835195D01*
X252204645Y-109904822D01*
X251988412Y-110099731D01*
X251814359Y-110333080D01*
X251689175Y-110595901D01*
X251644524Y-110743110D01*
X251765845Y-110973000D01*
X252959000Y-110973000D01*
X252959000Y-110953000D01*
X253213000Y-110953000D01*
X253213000Y-110973000D01*
X254406155Y-110973000D01*
X254527476Y-110743110D01*
X254482825Y-110595901D01*
X254357641Y-110333080D01*
X254183588Y-110099731D01*
X253967355Y-109904822D01*
X253850466Y-109835195D01*
X254032632Y-109713475D01*
X254239475Y-109506632D01*
X254401990Y-109263411D01*
X254513932Y-108993158D01*
X254571000Y-108706260D01*
X254571000Y-108413740D01*
X254513932Y-108126842D01*
X254401990Y-107856589D01*
X254239475Y-107613368D01*
X254032632Y-107406525D01*
X253858240Y-107290000D01*
X254032632Y-107173475D01*
X254239475Y-106966632D01*
X254401990Y-106723411D01*
X254513932Y-106453158D01*
X254571000Y-106166260D01*
X254571000Y-105873740D01*
X254513932Y-105586842D01*
X254401990Y-105316589D01*
X254239475Y-105073368D01*
X254032632Y-104866525D01*
X253858240Y-104750000D01*
X254032632Y-104633475D01*
X254239475Y-104426632D01*
X254401990Y-104183411D01*
X254513932Y-103913158D01*
X254571000Y-103626260D01*
X254571000Y-103333740D01*
X254513932Y-103046842D01*
X254401990Y-102776589D01*
X254239475Y-102533368D01*
X254032632Y-102326525D01*
X253858240Y-102210000D01*
X254032632Y-102093475D01*
X254239475Y-101886632D01*
X254401990Y-101643411D01*
X254513932Y-101373158D01*
X254571000Y-101086260D01*
X254571000Y-100793740D01*
X254513932Y-100506842D01*
X254401990Y-100236589D01*
X254239475Y-99993368D01*
X254032632Y-99786525D01*
X253850466Y-99664805D01*
X253967355Y-99595178D01*
X254183588Y-99400269D01*
X254357641Y-99166920D01*
X254482825Y-98904099D01*
X254527476Y-98756890D01*
X254406155Y-98527000D01*
X253213000Y-98527000D01*
X253213000Y-98547000D01*
X252959000Y-98547000D01*
X252959000Y-98527000D01*
X251765845Y-98527000D01*
X251644524Y-98756890D01*
X251689175Y-98904099D01*
X251814359Y-99166920D01*
X251988412Y-99400269D01*
X252204645Y-99595178D01*
X252321534Y-99664805D01*
X252139368Y-99786525D01*
X251932525Y-99993368D01*
X251770010Y-100236589D01*
X251767354Y-100243000D01*
X246252883Y-100243000D01*
X246111475Y-100031368D01*
X245979620Y-99899513D01*
X246052180Y-99877502D01*
X246162494Y-99818537D01*
X246259185Y-99739185D01*
X246338537Y-99642494D01*
X246397502Y-99532180D01*
X246433812Y-99412482D01*
X246446072Y-99288000D01*
X246443000Y-98723750D01*
X246284250Y-98565000D01*
X245085000Y-98565000D01*
X245085000Y-98585000D01*
X244831000Y-98585000D01*
X244831000Y-98565000D01*
X243631750Y-98565000D01*
X243473000Y-98723750D01*
X243469928Y-99288000D01*
X228666072Y-99288000D01*
X228663000Y-98723750D01*
X228504250Y-98565000D01*
X227305000Y-98565000D01*
X227305000Y-98585000D01*
X227051000Y-98585000D01*
X227051000Y-98565000D01*
X225851750Y-98565000D01*
X225693000Y-98723750D01*
X225689928Y-99288000D01*
X225702188Y-99412482D01*
X225738498Y-99532180D01*
X225797463Y-99642494D01*
X225876815Y-99739185D01*
X225973506Y-99818537D01*
X226083820Y-99877502D01*
X226156380Y-99899513D01*
X226024525Y-100031368D01*
X225883117Y-100243000D01*
X219582883Y-100243000D01*
X219441475Y-100031368D01*
X219234632Y-99824525D01*
X219052466Y-99702805D01*
X219169355Y-99633178D01*
X219385588Y-99438269D01*
X219559641Y-99204920D01*
X219684825Y-98942099D01*
X219729476Y-98794890D01*
X219608155Y-98565000D01*
X218415000Y-98565000D01*
X218415000Y-98585000D01*
X218161000Y-98585000D01*
X218161000Y-98565000D01*
X216967845Y-98565000D01*
X216846524Y-98794890D01*
X216891175Y-98942099D01*
X217016359Y-99204920D01*
X217190412Y-99438269D01*
X217406645Y-99633178D01*
X217523534Y-99702805D01*
X217341368Y-99824525D01*
X217134525Y-100031368D01*
X216972010Y-100274589D01*
X216860068Y-100544842D01*
X216803000Y-100831740D01*
X206705000Y-100831740D01*
X206705000Y-100793740D01*
X206647932Y-100506842D01*
X206535990Y-100236589D01*
X206373475Y-99993368D01*
X206166632Y-99786525D01*
X205992240Y-99670000D01*
X206166632Y-99553475D01*
X206373475Y-99346632D01*
X206535990Y-99103411D01*
X206647932Y-98833158D01*
X206705000Y-98546260D01*
X206705000Y-98253740D01*
X206647932Y-97966842D01*
X206535990Y-97696589D01*
X206373475Y-97453368D01*
X206166632Y-97246525D01*
X205992240Y-97130000D01*
X206166632Y-97013475D01*
X206373475Y-96806632D01*
X206535990Y-96563411D01*
X206647932Y-96293158D01*
X206705000Y-96006260D01*
X206705000Y-95713740D01*
X206647932Y-95426842D01*
X206535990Y-95156589D01*
X206373475Y-94913368D01*
X206166632Y-94706525D01*
X205984466Y-94584805D01*
X206101355Y-94515178D01*
X206317588Y-94320269D01*
X206491641Y-94086920D01*
X206616825Y-93824099D01*
X206661476Y-93676890D01*
X206540155Y-93447000D01*
X205347000Y-93447000D01*
X205347000Y-93467000D01*
X205093000Y-93467000D01*
X205093000Y-93447000D01*
X205073000Y-93447000D01*
X205073000Y-93193000D01*
X205093000Y-93193000D01*
X205093000Y-91999186D01*
X205347000Y-91999186D01*
X205347000Y-93193000D01*
X206540155Y-93193000D01*
X206661476Y-92963110D01*
X206616825Y-92815901D01*
X206491641Y-92553080D01*
X206458017Y-92508000D01*
X216799928Y-92508000D01*
X216799928Y-94208000D01*
X216812188Y-94332482D01*
X216848498Y-94452180D01*
X216907463Y-94562494D01*
X216986815Y-94659185D01*
X217083506Y-94738537D01*
X217193820Y-94797502D01*
X217266380Y-94819513D01*
X217134525Y-94951368D01*
X216972010Y-95194589D01*
X216860068Y-95464842D01*
X216803000Y-95751740D01*
X216803000Y-96044260D01*
X216860068Y-96331158D01*
X216972010Y-96601411D01*
X217134525Y-96844632D01*
X217341368Y-97051475D01*
X217523534Y-97173195D01*
X217406645Y-97242822D01*
X217190412Y-97437731D01*
X217016359Y-97671080D01*
X216891175Y-97933901D01*
X216846524Y-98081110D01*
X216967845Y-98311000D01*
X218161000Y-98311000D01*
X218161000Y-98291000D01*
X218415000Y-98291000D01*
X218415000Y-98311000D01*
X219608155Y-98311000D01*
X219729476Y-98081110D01*
X219684825Y-97933901D01*
X219559641Y-97671080D01*
X219385588Y-97437731D01*
X219169355Y-97242822D01*
X219052466Y-97173195D01*
X219234632Y-97051475D01*
X219441475Y-96844632D01*
X219582883Y-96633000D01*
X225883117Y-96633000D01*
X226024525Y-96844632D01*
X226156380Y-96976487D01*
X226083820Y-96998498D01*
X225973506Y-97057463D01*
X225876815Y-97136815D01*
X225797463Y-97233506D01*
X225738498Y-97343820D01*
X225702188Y-97463518D01*
X225689928Y-97588000D01*
X225693000Y-98152250D01*
X225851750Y-98311000D01*
X227051000Y-98311000D01*
X227051000Y-98291000D01*
X227305000Y-98291000D01*
X227305000Y-98311000D01*
X228504250Y-98311000D01*
X228663000Y-98152250D01*
X228666072Y-97588000D01*
X243469928Y-97588000D01*
X243473000Y-98152250D01*
X243631750Y-98311000D01*
X244831000Y-98311000D01*
X244831000Y-98291000D01*
X245085000Y-98291000D01*
X245085000Y-98311000D01*
X246284250Y-98311000D01*
X246443000Y-98152250D01*
X246446072Y-97588000D01*
X246433812Y-97463518D01*
X246397502Y-97343820D01*
X246338537Y-97233506D01*
X246259185Y-97136815D01*
X246162494Y-97057463D01*
X246052180Y-96998498D01*
X245979620Y-96976487D01*
X246111475Y-96844632D01*
X246273990Y-96601411D01*
X246276646Y-96595000D01*
X251791117Y-96595000D01*
X251932525Y-96806632D01*
X252139368Y-97013475D01*
X252321534Y-97135195D01*
X252204645Y-97204822D01*
X251988412Y-97399731D01*
X251814359Y-97633080D01*
X251689175Y-97895901D01*
X251644524Y-98043110D01*
X251765845Y-98273000D01*
X252959000Y-98273000D01*
X252959000Y-98253000D01*
X253213000Y-98253000D01*
X253213000Y-98273000D01*
X254406155Y-98273000D01*
X254527476Y-98043110D01*
X254482825Y-97895901D01*
X254357641Y-97633080D01*
X254183588Y-97399731D01*
X253967355Y-97204822D01*
X253850466Y-97135195D01*
X254032632Y-97013475D01*
X254239475Y-96806632D01*
X254401990Y-96563411D01*
X254513932Y-96293158D01*
X254571000Y-96006260D01*
X254571000Y-95713740D01*
X254513932Y-95426842D01*
X254401990Y-95156589D01*
X254239475Y-94913368D01*
X254032632Y-94706525D01*
X253858240Y-94590000D01*
X254032632Y-94473475D01*
X254239475Y-94266632D01*
X254401990Y-94023411D01*
X254513932Y-93753158D01*
X254571000Y-93466260D01*
X254571000Y-93173740D01*
X254513932Y-92886842D01*
X254401990Y-92616589D01*
X254239475Y-92373368D01*
X254032632Y-92166525D01*
X253789411Y-92004010D01*
X253519158Y-91892068D01*
X253232260Y-91835000D01*
X252939740Y-91835000D01*
X252652842Y-91892068D01*
X252382589Y-92004010D01*
X252139368Y-92166525D01*
X251932525Y-92373368D01*
X251770010Y-92616589D01*
X251767354Y-92623000D01*
X246252883Y-92623000D01*
X246111475Y-92411368D01*
X245904632Y-92204525D01*
X245661411Y-92042010D01*
X245391158Y-91930068D01*
X245104260Y-91873000D01*
X244811740Y-91873000D01*
X244524842Y-91930068D01*
X244254589Y-92042010D01*
X244011368Y-92204525D01*
X243804525Y-92411368D01*
X243642010Y-92654589D01*
X243530068Y-92924842D01*
X243473000Y-93211740D01*
X243473000Y-93504260D01*
X243530068Y-93791158D01*
X243642010Y-94061411D01*
X243804525Y-94304632D01*
X244011368Y-94511475D01*
X244185760Y-94628000D01*
X244011368Y-94744525D01*
X243804525Y-94951368D01*
X243642010Y-95194589D01*
X243530068Y-95464842D01*
X243473000Y-95751740D01*
X243473000Y-96044260D01*
X243530068Y-96331158D01*
X243642010Y-96601411D01*
X243804525Y-96844632D01*
X243936380Y-96976487D01*
X243863820Y-96998498D01*
X243753506Y-97057463D01*
X243656815Y-97136815D01*
X243577463Y-97233506D01*
X243518498Y-97343820D01*
X243482188Y-97463518D01*
X243469928Y-97588000D01*
X228666072Y-97588000D01*
X228653812Y-97463518D01*
X228617502Y-97343820D01*
X228558537Y-97233506D01*
X228479185Y-97136815D01*
X228382494Y-97057463D01*
X228272180Y-96998498D01*
X228199620Y-96976487D01*
X228331475Y-96844632D01*
X228493990Y-96601411D01*
X228605932Y-96331158D01*
X228663000Y-96044260D01*
X228663000Y-95751740D01*
X228605932Y-95464842D01*
X228493990Y-95194589D01*
X228331475Y-94951368D01*
X228124632Y-94744525D01*
X227950240Y-94628000D01*
X228124632Y-94511475D01*
X228331475Y-94304632D01*
X228493990Y-94061411D01*
X228605932Y-93791158D01*
X228663000Y-93504260D01*
X228663000Y-93441740D01*
X232043000Y-93441740D01*
X232043000Y-93734260D01*
X232100068Y-94021158D01*
X232212010Y-94291411D01*
X232374525Y-94534632D01*
X232581368Y-94741475D01*
X232824589Y-94903990D01*
X233094842Y-95015932D01*
X233381740Y-95073000D01*
X233674260Y-95073000D01*
X233961158Y-95015932D01*
X234231411Y-94903990D01*
X234474632Y-94741475D01*
X234606487Y-94609620D01*
X234628498Y-94682180D01*
X234687463Y-94792494D01*
X234766815Y-94889185D01*
X234863506Y-94968537D01*
X234973820Y-95027502D01*
X235093518Y-95063812D01*
X235218000Y-95076072D01*
X235782250Y-95073000D01*
X235941000Y-94914250D01*
X235941000Y-93715000D01*
X235921000Y-93715000D01*
X235921000Y-93461000D01*
X235941000Y-93461000D01*
X235941000Y-92261750D01*
X236195000Y-92261750D01*
X236195000Y-93461000D01*
X236215000Y-93461000D01*
X236215000Y-93715000D01*
X236195000Y-93715000D01*
X236195000Y-94914250D01*
X236353750Y-95073000D01*
X236918000Y-95076072D01*
X237042482Y-95063812D01*
X237162180Y-95027502D01*
X237272494Y-94968537D01*
X237369185Y-94889185D01*
X237448537Y-94792494D01*
X237507502Y-94682180D01*
X237529513Y-94609620D01*
X237661368Y-94741475D01*
X237904589Y-94903990D01*
X238174842Y-95015932D01*
X238461740Y-95073000D01*
X238754260Y-95073000D01*
X239041158Y-95015932D01*
X239311411Y-94903990D01*
X239554632Y-94741475D01*
X239761475Y-94534632D01*
X239923990Y-94291411D01*
X240035932Y-94021158D01*
X240093000Y-93734260D01*
X240093000Y-93441740D01*
X240035932Y-93154842D01*
X239923990Y-92884589D01*
X239761475Y-92641368D01*
X239554632Y-92434525D01*
X239311411Y-92272010D01*
X239041158Y-92160068D01*
X238754260Y-92103000D01*
X238461740Y-92103000D01*
X238174842Y-92160068D01*
X237904589Y-92272010D01*
X237661368Y-92434525D01*
X237529513Y-92566380D01*
X237507502Y-92493820D01*
X237448537Y-92383506D01*
X237369185Y-92286815D01*
X237272494Y-92207463D01*
X237162180Y-92148498D01*
X237042482Y-92112188D01*
X236918000Y-92099928D01*
X236353750Y-92103000D01*
X236195000Y-92261750D01*
X235941000Y-92261750D01*
X235782250Y-92103000D01*
X235218000Y-92099928D01*
X235093518Y-92112188D01*
X234973820Y-92148498D01*
X234863506Y-92207463D01*
X234766815Y-92286815D01*
X234687463Y-92383506D01*
X234628498Y-92493820D01*
X234606487Y-92566380D01*
X234474632Y-92434525D01*
X234231411Y-92272010D01*
X233961158Y-92160068D01*
X233674260Y-92103000D01*
X233381740Y-92103000D01*
X233094842Y-92160068D01*
X232824589Y-92272010D01*
X232581368Y-92434525D01*
X232374525Y-92641368D01*
X232212010Y-92884589D01*
X232100068Y-93154842D01*
X232043000Y-93441740D01*
X228663000Y-93441740D01*
X228663000Y-93211740D01*
X228605932Y-92924842D01*
X228493990Y-92654589D01*
X228331475Y-92411368D01*
X228124632Y-92204525D01*
X227881411Y-92042010D01*
X227611158Y-91930068D01*
X227324260Y-91873000D01*
X227031740Y-91873000D01*
X226744842Y-91930068D01*
X226474589Y-92042010D01*
X226231368Y-92204525D01*
X226024525Y-92411368D01*
X225883117Y-92623000D01*
X219776072Y-92623000D01*
X219776072Y-92508000D01*
X219763812Y-92383518D01*
X219727502Y-92263820D01*
X219668537Y-92153506D01*
X219589185Y-92056815D01*
X219492494Y-91977463D01*
X219382180Y-91918498D01*
X219262482Y-91882188D01*
X219138000Y-91869928D01*
X217438000Y-91869928D01*
X217313518Y-91882188D01*
X217193820Y-91918498D01*
X217083506Y-91977463D01*
X216986815Y-92056815D01*
X216907463Y-92153506D01*
X216848498Y-92263820D01*
X216812188Y-92383518D01*
X216799928Y-92508000D01*
X206458017Y-92508000D01*
X206317588Y-92319731D01*
X206101355Y-92124822D01*
X205851252Y-91975843D01*
X205576891Y-91878519D01*
X205347000Y-91999186D01*
X205093000Y-91999186D01*
X204863109Y-91878519D01*
X204588748Y-91975843D01*
X204338645Y-92124822D01*
X204122412Y-92319731D01*
X203951100Y-92549406D01*
X203833475Y-92373368D01*
X203626632Y-92166525D01*
X203383411Y-92004010D01*
X203113158Y-91892068D01*
X202826260Y-91835000D01*
X202533740Y-91835000D01*
X202246842Y-91892068D01*
X201976589Y-92004010D01*
X201733368Y-92166525D01*
X201526525Y-92373368D01*
X201364010Y-92616589D01*
X201252068Y-92886842D01*
X201195000Y-93173740D01*
X201135000Y-93173740D01*
X201135000Y-88254495D01*
X201965000Y-88254495D01*
X201965000Y-88645505D01*
X202041282Y-89029003D01*
X202190915Y-89390250D01*
X202408149Y-89715364D01*
X202684636Y-89991851D01*
X203009750Y-90209085D01*
X203370997Y-90358718D01*
X203754495Y-90435000D01*
X204145505Y-90435000D01*
X204529003Y-90358718D01*
X204890250Y-90209085D01*
X205215364Y-89991851D01*
X205491851Y-89715364D01*
X205709085Y-89390250D01*
X205858718Y-89029003D01*
X205935000Y-88645505D01*
X205935000Y-88254495D01*
X250965000Y-88254495D01*
X250965000Y-88645505D01*
X251041282Y-89029003D01*
X251190915Y-89390250D01*
X251408149Y-89715364D01*
X251684636Y-89991851D01*
X252009750Y-90209085D01*
X252370997Y-90358718D01*
X252754495Y-90435000D01*
X253145505Y-90435000D01*
X253529003Y-90358718D01*
X253890250Y-90209085D01*
X254215364Y-89991851D01*
X254491851Y-89715364D01*
X254709085Y-89390250D01*
X254858718Y-89029003D01*
X254935000Y-88645505D01*
X254935000Y-88254495D01*
X254858718Y-87870997D01*
X254709085Y-87509750D01*
X254491851Y-87184636D01*
X254215364Y-86908149D01*
X253890250Y-86690915D01*
X253529003Y-86541282D01*
X253145505Y-86465000D01*
X252754495Y-86465000D01*
X252370997Y-86541282D01*
X252009750Y-86690915D01*
X251684636Y-86908149D01*
X251408149Y-87184636D01*
X251190915Y-87509750D01*
X251041282Y-87870997D01*
X250965000Y-88254495D01*
X205935000Y-88254495D01*
X205858718Y-87870997D01*
X205709085Y-87509750D01*
X205491851Y-87184636D01*
X205215364Y-86908149D01*
X204890250Y-86690915D01*
X204529003Y-86541282D01*
X204145505Y-86465000D01*
X203754495Y-86465000D01*
X203370997Y-86541282D01*
X203009750Y-86690915D01*
X202684636Y-86908149D01*
X202408149Y-87184636D01*
X202190915Y-87509750D01*
X202041282Y-87870997D01*
X201965000Y-88254495D01*
X201135000Y-88254495D01*
X201135000Y-87983505D01*
X201182312Y-87500984D01*
X201312714Y-87069070D01*
X201524524Y-86670715D01*
X201809675Y-86321086D01*
X202157303Y-86033503D01*
X202554177Y-85818914D01*
X202985161Y-85685502D01*
X203465654Y-85635000D01*
X253416495Y-85635000D01*
X253899016Y-85682312D01*
G04 #@! TA.AperFunction,Conductor*
D18*
G36*
X253899016Y-85682312D02*
G01*
X254330930Y-85812714D01*
X254729285Y-86024524D01*
X255078914Y-86309675D01*
X255366497Y-86657303D01*
X255581086Y-87054177D01*
X255714498Y-87485161D01*
X255765001Y-87965663D01*
X255765000Y-146916495D01*
X255717688Y-147399016D01*
X255587287Y-147830927D01*
X255375480Y-148229280D01*
X255090325Y-148578914D01*
X254742697Y-148866497D01*
X254345825Y-149081085D01*
X253914834Y-149214500D01*
X253434346Y-149265000D01*
X237635000Y-149265000D01*
X237635000Y-146254495D01*
X250965000Y-146254495D01*
X250965000Y-146645505D01*
X251041282Y-147029003D01*
X251190915Y-147390250D01*
X251408149Y-147715364D01*
X251684636Y-147991851D01*
X252009750Y-148209085D01*
X252370997Y-148358718D01*
X252754495Y-148435000D01*
X253145505Y-148435000D01*
X253529003Y-148358718D01*
X253890250Y-148209085D01*
X254215364Y-147991851D01*
X254491851Y-147715364D01*
X254709085Y-147390250D01*
X254858718Y-147029003D01*
X254935000Y-146645505D01*
X254935000Y-146254495D01*
X254858718Y-145870997D01*
X254709085Y-145509750D01*
X254491851Y-145184636D01*
X254215364Y-144908149D01*
X253890250Y-144690915D01*
X253529003Y-144541282D01*
X253145505Y-144465000D01*
X252754495Y-144465000D01*
X252370997Y-144541282D01*
X252009750Y-144690915D01*
X251684636Y-144908149D01*
X251408149Y-145184636D01*
X251190915Y-145509750D01*
X251041282Y-145870997D01*
X250965000Y-146254495D01*
X237635000Y-146254495D01*
X237635000Y-145416353D01*
X237632148Y-145387399D01*
X237632169Y-145384427D01*
X237631236Y-145374909D01*
X237626179Y-145326790D01*
X237625088Y-145315717D01*
X237624976Y-145315348D01*
X237621036Y-145277860D01*
X237608547Y-145217017D01*
X237596918Y-145156058D01*
X237594154Y-145146902D01*
X237565298Y-145053683D01*
X237541232Y-144996434D01*
X237517979Y-144938881D01*
X237513489Y-144930436D01*
X237467077Y-144844598D01*
X237432350Y-144793115D01*
X237398364Y-144741179D01*
X237392320Y-144733767D01*
X237330118Y-144658579D01*
X237286051Y-144614818D01*
X237242630Y-144570478D01*
X237235261Y-144564381D01*
X237159640Y-144502706D01*
X237107959Y-144468368D01*
X237056694Y-144433267D01*
X237048281Y-144428718D01*
X236962120Y-144382906D01*
X236904704Y-144359242D01*
X236847661Y-144334792D01*
X236838525Y-144331964D01*
X236745107Y-144303759D01*
X236684195Y-144291698D01*
X236623471Y-144278791D01*
X236613959Y-144277791D01*
X236516841Y-144268269D01*
X236516837Y-144268269D01*
X236483647Y-144265000D01*
X220416353Y-144265000D01*
X220387399Y-144267852D01*
X220384427Y-144267831D01*
X220374909Y-144268764D01*
X220326790Y-144273821D01*
X220315717Y-144274912D01*
X220315348Y-144275024D01*
X220277860Y-144278964D01*
X220217017Y-144291453D01*
X220156058Y-144303082D01*
X220146902Y-144305846D01*
X220053683Y-144334702D01*
X219996434Y-144358768D01*
X219938881Y-144382021D01*
X219930436Y-144386511D01*
X219844598Y-144432923D01*
X219793115Y-144467650D01*
X219741179Y-144501636D01*
X219733767Y-144507680D01*
X219658579Y-144569882D01*
X219614818Y-144613949D01*
X219570478Y-144657370D01*
X219564381Y-144664739D01*
X219502706Y-144740360D01*
X219468368Y-144792041D01*
X219433267Y-144843306D01*
X219428718Y-144851719D01*
X219382906Y-144937880D01*
X219359242Y-144995296D01*
X219334792Y-145052339D01*
X219331964Y-145061475D01*
X219303759Y-145154893D01*
X219291698Y-145215805D01*
X219278791Y-145276529D01*
X219277791Y-145286041D01*
X219268269Y-145383159D01*
X219268269Y-145383173D01*
X219265001Y-145416353D01*
X219265000Y-149265000D01*
X203483504Y-149265000D01*
X203000984Y-149217688D01*
X202569073Y-149087287D01*
X202170720Y-148875480D01*
X201821086Y-148590325D01*
X201533503Y-148242697D01*
X201318915Y-147845825D01*
X201185500Y-147414834D01*
X201135000Y-146934346D01*
X201135000Y-146254495D01*
X201965000Y-146254495D01*
X201965000Y-146645505D01*
X202041282Y-147029003D01*
X202190915Y-147390250D01*
X202408149Y-147715364D01*
X202684636Y-147991851D01*
X203009750Y-148209085D01*
X203370997Y-148358718D01*
X203754495Y-148435000D01*
X204145505Y-148435000D01*
X204529003Y-148358718D01*
X204890250Y-148209085D01*
X205215364Y-147991851D01*
X205491851Y-147715364D01*
X205709085Y-147390250D01*
X205858718Y-147029003D01*
X205935000Y-146645505D01*
X205935000Y-146254495D01*
X205858718Y-145870997D01*
X205849193Y-145848000D01*
X211973928Y-145848000D01*
X211973928Y-147548000D01*
X211986188Y-147672482D01*
X212022498Y-147792180D01*
X212081463Y-147902494D01*
X212160815Y-147999185D01*
X212257506Y-148078537D01*
X212367820Y-148137502D01*
X212487518Y-148173812D01*
X212612000Y-148186072D01*
X214312000Y-148186072D01*
X214436482Y-148173812D01*
X214556180Y-148137502D01*
X214666494Y-148078537D01*
X214763185Y-147999185D01*
X214842537Y-147902494D01*
X214901502Y-147792180D01*
X214923513Y-147719620D01*
X215055368Y-147851475D01*
X215298589Y-148013990D01*
X215568842Y-148125932D01*
X215855740Y-148183000D01*
X216148260Y-148183000D01*
X216435158Y-148125932D01*
X216705411Y-148013990D01*
X216948632Y-147851475D01*
X217155475Y-147644632D01*
X217317990Y-147401411D01*
X217429932Y-147131158D01*
X217487000Y-146844260D01*
X217487000Y-146551740D01*
X217429932Y-146264842D01*
X217317990Y-145994589D01*
X217155475Y-145751368D01*
X216948632Y-145544525D01*
X216705411Y-145382010D01*
X216435158Y-145270068D01*
X216148260Y-145213000D01*
X215855740Y-145213000D01*
X215568842Y-145270068D01*
X215298589Y-145382010D01*
X215055368Y-145544525D01*
X214923513Y-145676380D01*
X214901502Y-145603820D01*
X214842537Y-145493506D01*
X214763185Y-145396815D01*
X214666494Y-145317463D01*
X214556180Y-145258498D01*
X214436482Y-145222188D01*
X214312000Y-145209928D01*
X212612000Y-145209928D01*
X212487518Y-145222188D01*
X212367820Y-145258498D01*
X212257506Y-145317463D01*
X212160815Y-145396815D01*
X212081463Y-145493506D01*
X212022498Y-145603820D01*
X211986188Y-145723518D01*
X211973928Y-145848000D01*
X205849193Y-145848000D01*
X205709085Y-145509750D01*
X205491851Y-145184636D01*
X205215364Y-144908149D01*
X204890250Y-144690915D01*
X204529003Y-144541282D01*
X204145505Y-144465000D01*
X203754495Y-144465000D01*
X203370997Y-144541282D01*
X203009750Y-144690915D01*
X202684636Y-144908149D01*
X202408149Y-145184636D01*
X202190915Y-145509750D01*
X202041282Y-145870997D01*
X201965000Y-146254495D01*
X201135000Y-146254495D01*
X201135000Y-143289137D01*
X240825000Y-143289137D01*
X240825000Y-143502863D01*
X240866696Y-143712483D01*
X240948485Y-143909940D01*
X241067225Y-144087647D01*
X241218353Y-144238775D01*
X241396060Y-144357515D01*
X241593517Y-144439304D01*
X241803137Y-144481000D01*
X242016863Y-144481000D01*
X242226483Y-144439304D01*
X242423940Y-144357515D01*
X242601647Y-144238775D01*
X242752775Y-144087647D01*
X242871515Y-143909940D01*
X242953304Y-143712483D01*
X242995000Y-143502863D01*
X242995000Y-143289137D01*
X242953304Y-143079517D01*
X242871515Y-142882060D01*
X242752775Y-142704353D01*
X242601647Y-142553225D01*
X242423940Y-142434485D01*
X242226483Y-142352696D01*
X242016863Y-142311000D01*
X241803137Y-142311000D01*
X241593517Y-142352696D01*
X241396060Y-142434485D01*
X241218353Y-142553225D01*
X241067225Y-142704353D01*
X240948485Y-142882060D01*
X240866696Y-143079517D01*
X240825000Y-143289137D01*
X201135000Y-143289137D01*
X201135000Y-93173740D01*
X201195000Y-93173740D01*
X201195000Y-93466260D01*
X201252068Y-93753158D01*
X201364010Y-94023411D01*
X201526525Y-94266632D01*
X201733368Y-94473475D01*
X201907760Y-94590000D01*
X201733368Y-94706525D01*
X201526525Y-94913368D01*
X201364010Y-95156589D01*
X201252068Y-95426842D01*
X201195000Y-95713740D01*
X201195000Y-96006260D01*
X201252068Y-96293158D01*
X201364010Y-96563411D01*
X201526525Y-96806632D01*
X201733368Y-97013475D01*
X201907760Y-97130000D01*
X201733368Y-97246525D01*
X201526525Y-97453368D01*
X201364010Y-97696589D01*
X201252068Y-97966842D01*
X201195000Y-98253740D01*
X201195000Y-98546260D01*
X201252068Y-98833158D01*
X201364010Y-99103411D01*
X201526525Y-99346632D01*
X201733368Y-99553475D01*
X201915534Y-99675195D01*
X201798645Y-99744822D01*
X201582412Y-99939731D01*
X201408359Y-100173080D01*
X201283175Y-100435901D01*
X201238524Y-100583110D01*
X201359845Y-100813000D01*
X202553000Y-100813000D01*
X202553000Y-100793000D01*
X202807000Y-100793000D01*
X202807000Y-100813000D01*
X202827000Y-100813000D01*
X202827000Y-101067000D01*
X202807000Y-101067000D01*
X202807000Y-101087000D01*
X202553000Y-101087000D01*
X202553000Y-101067000D01*
X201359845Y-101067000D01*
X201238524Y-101296890D01*
X201283175Y-101444099D01*
X201408359Y-101706920D01*
X201582412Y-101940269D01*
X201798645Y-102135178D01*
X201915534Y-102204805D01*
X201733368Y-102326525D01*
X201526525Y-102533368D01*
X201364010Y-102776589D01*
X201252068Y-103046842D01*
X201195000Y-103333740D01*
X201195000Y-103626260D01*
X201252068Y-103913158D01*
X201364010Y-104183411D01*
X201526525Y-104426632D01*
X201733368Y-104633475D01*
X201915534Y-104755195D01*
X201798645Y-104824822D01*
X201582412Y-105019731D01*
X201408359Y-105253080D01*
X201283175Y-105515901D01*
X201238524Y-105663110D01*
X201359845Y-105893000D01*
X202553000Y-105893000D01*
X202553000Y-105873000D01*
X202807000Y-105873000D01*
X202807000Y-105893000D01*
X202827000Y-105893000D01*
X202827000Y-106147000D01*
X202807000Y-106147000D01*
X202807000Y-106167000D01*
X202553000Y-106167000D01*
X202553000Y-106147000D01*
X201359845Y-106147000D01*
X201238524Y-106376890D01*
X201283175Y-106524099D01*
X201408359Y-106786920D01*
X201582412Y-107020269D01*
X201798645Y-107215178D01*
X201915534Y-107284805D01*
X201733368Y-107406525D01*
X201526525Y-107613368D01*
X201364010Y-107856589D01*
X201252068Y-108126842D01*
X201195000Y-108413740D01*
X201195000Y-108706260D01*
X201252068Y-108993158D01*
X201364010Y-109263411D01*
X201526525Y-109506632D01*
X201733368Y-109713475D01*
X201907760Y-109830000D01*
X201733368Y-109946525D01*
X201526525Y-110153368D01*
X201364010Y-110396589D01*
X201252068Y-110666842D01*
X201195000Y-110953740D01*
X201195000Y-111246260D01*
X201252068Y-111533158D01*
X201364010Y-111803411D01*
X201526525Y-112046632D01*
X201733368Y-112253475D01*
X201907760Y-112370000D01*
X201733368Y-112486525D01*
X201526525Y-112693368D01*
X201364010Y-112936589D01*
X201252068Y-113206842D01*
X201195000Y-113493740D01*
X201195000Y-113786260D01*
X201252068Y-114073158D01*
X201364010Y-114343411D01*
X201526525Y-114586632D01*
X201733368Y-114793475D01*
X201907760Y-114910000D01*
X201733368Y-115026525D01*
X201526525Y-115233368D01*
X201364010Y-115476589D01*
X201252068Y-115746842D01*
X201195000Y-116033740D01*
X201195000Y-116326260D01*
X201252068Y-116613158D01*
X201364010Y-116883411D01*
X201526525Y-117126632D01*
X201733368Y-117333475D01*
X201915534Y-117455195D01*
X201798645Y-117524822D01*
X201582412Y-117719731D01*
X201408359Y-117953080D01*
X201283175Y-118215901D01*
X201238524Y-118363110D01*
X201359845Y-118593000D01*
X202553000Y-118593000D01*
X202553000Y-118573000D01*
X202807000Y-118573000D01*
X202807000Y-118593000D01*
X202827000Y-118593000D01*
X202827000Y-118847000D01*
X202807000Y-118847000D01*
X202807000Y-118867000D01*
X202553000Y-118867000D01*
X202553000Y-118847000D01*
X201359845Y-118847000D01*
X201238524Y-119076890D01*
X201283175Y-119224099D01*
X201408359Y-119486920D01*
X201582412Y-119720269D01*
X201798645Y-119915178D01*
X201915534Y-119984805D01*
X201733368Y-120106525D01*
X201526525Y-120313368D01*
X201364010Y-120556589D01*
X201252068Y-120826842D01*
X201195000Y-121113740D01*
X201195000Y-121406260D01*
X201252068Y-121693158D01*
X201364010Y-121963411D01*
X201526525Y-122206632D01*
X201733368Y-122413475D01*
X201907760Y-122530000D01*
X201733368Y-122646525D01*
X201526525Y-122853368D01*
X201364010Y-123096589D01*
X201252068Y-123366842D01*
X201195000Y-123653740D01*
X201195000Y-123946260D01*
X201252068Y-124233158D01*
X201364010Y-124503411D01*
X201526525Y-124746632D01*
X201733368Y-124953475D01*
X201915534Y-125075195D01*
X201798645Y-125144822D01*
X201582412Y-125339731D01*
X201408359Y-125573080D01*
X201283175Y-125835901D01*
X201238524Y-125983110D01*
X201359845Y-126213000D01*
X202553000Y-126213000D01*
X202553000Y-126193000D01*
X202807000Y-126193000D01*
X202807000Y-126213000D01*
X202827000Y-126213000D01*
X202827000Y-126467000D01*
X202807000Y-126467000D01*
X202807000Y-126487000D01*
X202553000Y-126487000D01*
X202553000Y-126467000D01*
X201359845Y-126467000D01*
X201238524Y-126696890D01*
X201283175Y-126844099D01*
X201408359Y-127106920D01*
X201582412Y-127340269D01*
X201798645Y-127535178D01*
X201915534Y-127604805D01*
X201733368Y-127726525D01*
X201526525Y-127933368D01*
X201364010Y-128176589D01*
X201252068Y-128446842D01*
X201195000Y-128733740D01*
X201195000Y-129026260D01*
X201252068Y-129313158D01*
X201364010Y-129583411D01*
X201526525Y-129826632D01*
X201733368Y-130033475D01*
X201907760Y-130150000D01*
X201733368Y-130266525D01*
X201526525Y-130473368D01*
X201364010Y-130716589D01*
X201252068Y-130986842D01*
X201195000Y-131273740D01*
X201195000Y-131566260D01*
X201252068Y-131853158D01*
X201364010Y-132123411D01*
X201526525Y-132366632D01*
X201733368Y-132573475D01*
X201907760Y-132690000D01*
X201733368Y-132806525D01*
X201526525Y-133013368D01*
X201364010Y-133256589D01*
X201252068Y-133526842D01*
X201195000Y-133813740D01*
X201195000Y-134106260D01*
X201252068Y-134393158D01*
X201364010Y-134663411D01*
X201526525Y-134906632D01*
X201733368Y-135113475D01*
X201915534Y-135235195D01*
X201798645Y-135304822D01*
X201582412Y-135499731D01*
X201408359Y-135733080D01*
X201283175Y-135995901D01*
X201238524Y-136143110D01*
X201359845Y-136373000D01*
X202553000Y-136373000D01*
X202553000Y-136353000D01*
X202807000Y-136353000D01*
X202807000Y-136373000D01*
X202827000Y-136373000D01*
X202827000Y-136627000D01*
X202807000Y-136627000D01*
X202807000Y-136647000D01*
X202553000Y-136647000D01*
X202553000Y-136627000D01*
X201359845Y-136627000D01*
X201238524Y-136856890D01*
X201283175Y-137004099D01*
X201408359Y-137266920D01*
X201582412Y-137500269D01*
X201798645Y-137695178D01*
X201915534Y-137764805D01*
X201733368Y-137886525D01*
X201526525Y-138093368D01*
X201364010Y-138336589D01*
X201252068Y-138606842D01*
X201195000Y-138893740D01*
X201195000Y-139186260D01*
X201252068Y-139473158D01*
X201364010Y-139743411D01*
X201526525Y-139986632D01*
X201733368Y-140193475D01*
X201907760Y-140310000D01*
X201733368Y-140426525D01*
X201526525Y-140633368D01*
X201364010Y-140876589D01*
X201252068Y-141146842D01*
X201195000Y-141433740D01*
X201195000Y-141726260D01*
X201252068Y-142013158D01*
X201364010Y-142283411D01*
X201526525Y-142526632D01*
X201733368Y-142733475D01*
X201976589Y-142895990D01*
X202246842Y-143007932D01*
X202533740Y-143065000D01*
X202826260Y-143065000D01*
X203113158Y-143007932D01*
X203383411Y-142895990D01*
X203626632Y-142733475D01*
X203758487Y-142601620D01*
X203780498Y-142674180D01*
X203839463Y-142784494D01*
X203918815Y-142881185D01*
X204015506Y-142960537D01*
X204125820Y-143019502D01*
X204245518Y-143055812D01*
X204370000Y-143068072D01*
X206070000Y-143068072D01*
X206194482Y-143055812D01*
X206314180Y-143019502D01*
X206424494Y-142960537D01*
X206521185Y-142881185D01*
X206600537Y-142784494D01*
X206659502Y-142674180D01*
X206695812Y-142554482D01*
X206708072Y-142430000D01*
X206708072Y-140730000D01*
X206695812Y-140605518D01*
X206659502Y-140485820D01*
X206600537Y-140375506D01*
X206521185Y-140278815D01*
X206424494Y-140199463D01*
X206314180Y-140140498D01*
X206241620Y-140118487D01*
X206373475Y-139986632D01*
X206535990Y-139743411D01*
X206647932Y-139473158D01*
X206705000Y-139186260D01*
X206705000Y-138931740D01*
X216803000Y-138931740D01*
X216803000Y-139224260D01*
X216860068Y-139511158D01*
X216972010Y-139781411D01*
X217134525Y-140024632D01*
X217341368Y-140231475D01*
X217515760Y-140348000D01*
X217341368Y-140464525D01*
X217134525Y-140671368D01*
X216972010Y-140914589D01*
X216860068Y-141184842D01*
X216803000Y-141471740D01*
X216803000Y-141764260D01*
X216860068Y-142051158D01*
X216972010Y-142321411D01*
X217134525Y-142564632D01*
X217341368Y-142771475D01*
X217584589Y-142933990D01*
X217854842Y-143045932D01*
X218141740Y-143103000D01*
X218434260Y-143103000D01*
X218721158Y-143045932D01*
X218991411Y-142933990D01*
X219234632Y-142771475D01*
X219441475Y-142564632D01*
X219582883Y-142353000D01*
X225883117Y-142353000D01*
X226024525Y-142564632D01*
X226231368Y-142771475D01*
X226474589Y-142933990D01*
X226744842Y-143045932D01*
X227031740Y-143103000D01*
X227324260Y-143103000D01*
X227611158Y-143045932D01*
X227881411Y-142933990D01*
X228124632Y-142771475D01*
X228331475Y-142564632D01*
X228493990Y-142321411D01*
X228605932Y-142051158D01*
X228663000Y-141764260D01*
X228663000Y-141471740D01*
X228636162Y-141336816D01*
X231808000Y-141336816D01*
X231808000Y-141639184D01*
X231866989Y-141935743D01*
X231982701Y-142215095D01*
X232150688Y-142466505D01*
X232364495Y-142680312D01*
X232615905Y-142848299D01*
X232895257Y-142964011D01*
X233191816Y-143023000D01*
X233494184Y-143023000D01*
X233790743Y-142964011D01*
X234070095Y-142848299D01*
X234321505Y-142680312D01*
X234535312Y-142466505D01*
X234703299Y-142215095D01*
X234819011Y-141935743D01*
X234878000Y-141639184D01*
X234878000Y-141336816D01*
X237258000Y-141336816D01*
X237258000Y-141639184D01*
X237316989Y-141935743D01*
X237432701Y-142215095D01*
X237600688Y-142466505D01*
X237814495Y-142680312D01*
X238065905Y-142848299D01*
X238345257Y-142964011D01*
X238641816Y-143023000D01*
X238944184Y-143023000D01*
X239240743Y-142964011D01*
X239520095Y-142848299D01*
X239771505Y-142680312D01*
X239985312Y-142466505D01*
X240153299Y-142215095D01*
X240269011Y-141935743D01*
X240328000Y-141639184D01*
X240328000Y-141336816D01*
X240269011Y-141040257D01*
X240153299Y-140760905D01*
X239985312Y-140509495D01*
X239771505Y-140295688D01*
X239520095Y-140127701D01*
X239240743Y-140011989D01*
X238944184Y-139953000D01*
X238641816Y-139953000D01*
X238345257Y-140011989D01*
X238065905Y-140127701D01*
X237814495Y-140295688D01*
X237600688Y-140509495D01*
X237432701Y-140760905D01*
X237316989Y-141040257D01*
X237258000Y-141336816D01*
X234878000Y-141336816D01*
X234819011Y-141040257D01*
X234703299Y-140760905D01*
X234535312Y-140509495D01*
X234321505Y-140295688D01*
X234070095Y-140127701D01*
X233790743Y-140011989D01*
X233494184Y-139953000D01*
X233191816Y-139953000D01*
X232895257Y-140011989D01*
X232615905Y-140127701D01*
X232364495Y-140295688D01*
X232150688Y-140509495D01*
X231982701Y-140760905D01*
X231866989Y-141040257D01*
X231808000Y-141336816D01*
X228636162Y-141336816D01*
X228605932Y-141184842D01*
X228493990Y-140914589D01*
X228331475Y-140671368D01*
X228124632Y-140464525D01*
X227950240Y-140348000D01*
X228124632Y-140231475D01*
X228331475Y-140024632D01*
X228493990Y-139781411D01*
X228605932Y-139511158D01*
X228663000Y-139224260D01*
X228663000Y-138931740D01*
X228605932Y-138644842D01*
X228493990Y-138374589D01*
X228331475Y-138131368D01*
X228199620Y-137999513D01*
X228272180Y-137977502D01*
X228382494Y-137918537D01*
X228479185Y-137839185D01*
X228558537Y-137742494D01*
X228617502Y-137632180D01*
X228653812Y-137512482D01*
X228666072Y-137388000D01*
X228663000Y-136823750D01*
X228504250Y-136665000D01*
X227305000Y-136665000D01*
X227305000Y-136685000D01*
X227051000Y-136685000D01*
X227051000Y-136665000D01*
X225851750Y-136665000D01*
X225693000Y-136823750D01*
X225689928Y-137388000D01*
X225702188Y-137512482D01*
X225738498Y-137632180D01*
X225797463Y-137742494D01*
X225876815Y-137839185D01*
X225973506Y-137918537D01*
X226083820Y-137977502D01*
X226156380Y-137999513D01*
X226024525Y-138131368D01*
X225883117Y-138343000D01*
X219582883Y-138343000D01*
X219441475Y-138131368D01*
X219234632Y-137924525D01*
X219052466Y-137802805D01*
X219169355Y-137733178D01*
X219385588Y-137538269D01*
X219559641Y-137304920D01*
X219684825Y-137042099D01*
X219729476Y-136894890D01*
X219608155Y-136665000D01*
X218415000Y-136665000D01*
X218415000Y-136685000D01*
X218161000Y-136685000D01*
X218161000Y-136665000D01*
X216967845Y-136665000D01*
X216846524Y-136894890D01*
X216891175Y-137042099D01*
X217016359Y-137304920D01*
X217190412Y-137538269D01*
X217406645Y-137733178D01*
X217523534Y-137802805D01*
X217341368Y-137924525D01*
X217134525Y-138131368D01*
X216972010Y-138374589D01*
X216860068Y-138644842D01*
X216803000Y-138931740D01*
X206705000Y-138931740D01*
X206705000Y-138893740D01*
X206647932Y-138606842D01*
X206535990Y-138336589D01*
X206373475Y-138093368D01*
X206166632Y-137886525D01*
X205992240Y-137770000D01*
X206166632Y-137653475D01*
X206373475Y-137446632D01*
X206535990Y-137203411D01*
X206647932Y-136933158D01*
X206705000Y-136646260D01*
X206705000Y-136353740D01*
X206647932Y-136066842D01*
X206535990Y-135796589D01*
X206373475Y-135553368D01*
X206254107Y-135434000D01*
X209179928Y-135434000D01*
X209179928Y-137134000D01*
X209192188Y-137258482D01*
X209228498Y-137378180D01*
X209287463Y-137488494D01*
X209366815Y-137585185D01*
X209463506Y-137664537D01*
X209573820Y-137723502D01*
X209693518Y-137759812D01*
X209818000Y-137772072D01*
X211518000Y-137772072D01*
X211642482Y-137759812D01*
X211762180Y-137723502D01*
X211872494Y-137664537D01*
X211969185Y-137585185D01*
X212048537Y-137488494D01*
X212107502Y-137378180D01*
X212129513Y-137305620D01*
X212261368Y-137437475D01*
X212504589Y-137599990D01*
X212774842Y-137711932D01*
X213061740Y-137769000D01*
X213354260Y-137769000D01*
X213641158Y-137711932D01*
X213911411Y-137599990D01*
X214154632Y-137437475D01*
X214361475Y-137230632D01*
X214482688Y-137049224D01*
X214515423Y-137046000D01*
X214515426Y-137046000D01*
X214627378Y-137034974D01*
X214771015Y-136991402D01*
X214903392Y-136920645D01*
X215019422Y-136825422D01*
X215043284Y-136796346D01*
X215716631Y-136122999D01*
X216864150Y-136122999D01*
X216846524Y-136181110D01*
X216967845Y-136411000D01*
X218161000Y-136411000D01*
X218161000Y-136391000D01*
X218415000Y-136391000D01*
X218415000Y-136411000D01*
X219608155Y-136411000D01*
X219729476Y-136181110D01*
X219711850Y-136122999D01*
X225692296Y-136122999D01*
X225693000Y-136252250D01*
X225851750Y-136411000D01*
X227051000Y-136411000D01*
X227051000Y-136391000D01*
X227305000Y-136391000D01*
X227305000Y-136411000D01*
X228504250Y-136411000D01*
X228663000Y-136252250D01*
X228663704Y-136122999D01*
X228987369Y-136122999D01*
X230168720Y-137304351D01*
X230192578Y-137333422D01*
X230308608Y-137428645D01*
X230440985Y-137499402D01*
X230584622Y-137542974D01*
X230696574Y-137554000D01*
X230696576Y-137554000D01*
X230733999Y-137557686D01*
X230771422Y-137554000D01*
X232588315Y-137554000D01*
X232567201Y-137575114D01*
X232415629Y-137801957D01*
X232311225Y-138054011D01*
X232258000Y-138321589D01*
X232258000Y-138594411D01*
X232311225Y-138861989D01*
X232415629Y-139114043D01*
X232567201Y-139340886D01*
X232760114Y-139533799D01*
X232986957Y-139685371D01*
X233239011Y-139789775D01*
X233506589Y-139843000D01*
X233779411Y-139843000D01*
X234046989Y-139789775D01*
X234299043Y-139685371D01*
X234525886Y-139533799D01*
X234718799Y-139340886D01*
X234870371Y-139114043D01*
X234974775Y-138861989D01*
X235028000Y-138594411D01*
X235028000Y-138321589D01*
X234974775Y-138054011D01*
X234870371Y-137801957D01*
X234718799Y-137575114D01*
X234697685Y-137554000D01*
X237438315Y-137554000D01*
X237417201Y-137575114D01*
X237265629Y-137801957D01*
X237161225Y-138054011D01*
X237108000Y-138321589D01*
X237108000Y-138594411D01*
X237161225Y-138861989D01*
X237265629Y-139114043D01*
X237417201Y-139340886D01*
X237610114Y-139533799D01*
X237836957Y-139685371D01*
X238089011Y-139789775D01*
X238356589Y-139843000D01*
X238629411Y-139843000D01*
X238896989Y-139789775D01*
X239149043Y-139685371D01*
X239375886Y-139533799D01*
X239568799Y-139340886D01*
X239720371Y-139114043D01*
X239824775Y-138861989D01*
X239878000Y-138594411D01*
X239878000Y-138321589D01*
X239824775Y-138054011D01*
X239720371Y-137801957D01*
X239568799Y-137575114D01*
X239547685Y-137554000D01*
X239816370Y-137554000D01*
X241852721Y-139590352D01*
X241876578Y-139619422D01*
X241992608Y-139714645D01*
X242124985Y-139785402D01*
X242268622Y-139828974D01*
X242380574Y-139840000D01*
X242380576Y-139840000D01*
X242417999Y-139843686D01*
X242455422Y-139840000D01*
X243681158Y-139840000D01*
X243804525Y-140024632D01*
X244011368Y-140231475D01*
X244185760Y-140348000D01*
X244011368Y-140464525D01*
X243804525Y-140671368D01*
X243642010Y-140914589D01*
X243530068Y-141184842D01*
X243473000Y-141471740D01*
X243473000Y-141764260D01*
X243530068Y-142051158D01*
X243642010Y-142321411D01*
X243804525Y-142564632D01*
X244011368Y-142771475D01*
X244254589Y-142933990D01*
X244524842Y-143045932D01*
X244811740Y-143103000D01*
X245104260Y-143103000D01*
X245391158Y-143045932D01*
X245661411Y-142933990D01*
X245904632Y-142771475D01*
X246111475Y-142564632D01*
X246252883Y-142353000D01*
X251597928Y-142353000D01*
X251597928Y-142430000D01*
X251610188Y-142554482D01*
X251646498Y-142674180D01*
X251705463Y-142784494D01*
X251784815Y-142881185D01*
X251881506Y-142960537D01*
X251991820Y-143019502D01*
X252111518Y-143055812D01*
X252236000Y-143068072D01*
X253936000Y-143068072D01*
X254060482Y-143055812D01*
X254180180Y-143019502D01*
X254290494Y-142960537D01*
X254387185Y-142881185D01*
X254466537Y-142784494D01*
X254525502Y-142674180D01*
X254561812Y-142554482D01*
X254574072Y-142430000D01*
X254574072Y-142209522D01*
X254681422Y-142121422D01*
X254705284Y-142092346D01*
X255376347Y-141421283D01*
X255405422Y-141397422D01*
X255487535Y-141297367D01*
X255500645Y-141281393D01*
X255552252Y-141184842D01*
X255571402Y-141149015D01*
X255614974Y-141005378D01*
X255626000Y-140893426D01*
X255626000Y-140893423D01*
X255629686Y-140856000D01*
X255626000Y-140818577D01*
X255626000Y-138927463D01*
X255629686Y-138890040D01*
X255626000Y-138852614D01*
X255614974Y-138740662D01*
X255571402Y-138597025D01*
X255527773Y-138515401D01*
X255500645Y-138464647D01*
X255465857Y-138422259D01*
X255405422Y-138348618D01*
X255376346Y-138324756D01*
X254347244Y-137295654D01*
X254341463Y-137288610D01*
X254357641Y-137266920D01*
X254482825Y-137004099D01*
X254527476Y-136856890D01*
X254406155Y-136627000D01*
X253213000Y-136627000D01*
X253213000Y-136647000D01*
X252959000Y-136647000D01*
X252959000Y-136627000D01*
X251765845Y-136627000D01*
X251644524Y-136856890D01*
X251689175Y-137004099D01*
X251709133Y-137046000D01*
X246444210Y-137046000D01*
X246443000Y-136823750D01*
X246284250Y-136665000D01*
X245085000Y-136665000D01*
X245085000Y-136685000D01*
X244831000Y-136685000D01*
X244831000Y-136665000D01*
X243631750Y-136665000D01*
X243473000Y-136823750D01*
X243471790Y-137046000D01*
X243241631Y-137046000D01*
X241459284Y-135263654D01*
X241435422Y-135234578D01*
X241319392Y-135139355D01*
X241187015Y-135068598D01*
X241043378Y-135025026D01*
X240931426Y-135014000D01*
X240931423Y-135014000D01*
X240894000Y-135010314D01*
X240856577Y-135014000D01*
X232065631Y-135014000D01*
X229174285Y-132122655D01*
X229150423Y-132093579D01*
X229034393Y-131998356D01*
X228902016Y-131927599D01*
X228758379Y-131884027D01*
X228646427Y-131873001D01*
X228646424Y-131873001D01*
X228610252Y-131869438D01*
X228663000Y-131604260D01*
X228663000Y-131311740D01*
X228605932Y-131024842D01*
X228578461Y-130958521D01*
X228579300Y-130950001D01*
X228568776Y-130843137D01*
X234475000Y-130843137D01*
X234475000Y-131056863D01*
X234516696Y-131266483D01*
X234598485Y-131463940D01*
X234717225Y-131641647D01*
X234868353Y-131792775D01*
X235046060Y-131911515D01*
X235243517Y-131993304D01*
X235453137Y-132035000D01*
X235666863Y-132035000D01*
X235876483Y-131993304D01*
X236073940Y-131911515D01*
X236251647Y-131792775D01*
X236402775Y-131641647D01*
X236521515Y-131463940D01*
X236603304Y-131266483D01*
X236645000Y-131056863D01*
X236645000Y-130843137D01*
X240825000Y-130843137D01*
X240825000Y-131056863D01*
X240866696Y-131266483D01*
X240948485Y-131463940D01*
X241067225Y-131641647D01*
X241218353Y-131792775D01*
X241396060Y-131911515D01*
X241593517Y-131993304D01*
X241803137Y-132035000D01*
X242016863Y-132035000D01*
X242226483Y-131993304D01*
X242423940Y-131911515D01*
X242601647Y-131792775D01*
X242752775Y-131641647D01*
X242871515Y-131463940D01*
X242953304Y-131266483D01*
X242995000Y-131056863D01*
X242995000Y-130843137D01*
X242953304Y-130633517D01*
X242871515Y-130436060D01*
X242752775Y-130258353D01*
X242601647Y-130107225D01*
X242423940Y-129988485D01*
X242226483Y-129906696D01*
X242016863Y-129865000D01*
X241803137Y-129865000D01*
X241593517Y-129906696D01*
X241396060Y-129988485D01*
X241218353Y-130107225D01*
X241067225Y-130258353D01*
X240948485Y-130436060D01*
X240866696Y-130633517D01*
X240825000Y-130843137D01*
X236645000Y-130843137D01*
X236603304Y-130633517D01*
X236521515Y-130436060D01*
X236402775Y-130258353D01*
X236251647Y-130107225D01*
X236073940Y-129988485D01*
X235876483Y-129906696D01*
X235666863Y-129865000D01*
X235453137Y-129865000D01*
X235243517Y-129906696D01*
X235046060Y-129988485D01*
X234868353Y-130107225D01*
X234717225Y-130258353D01*
X234598485Y-130436060D01*
X234516696Y-130633517D01*
X234475000Y-130843137D01*
X228568776Y-130843137D01*
X228562136Y-130775726D01*
X228511302Y-130608149D01*
X228428751Y-130453709D01*
X228317658Y-130318342D01*
X228182291Y-130207249D01*
X228037366Y-130129784D01*
X228124632Y-130071475D01*
X228331475Y-129864632D01*
X228493990Y-129621411D01*
X228605932Y-129351158D01*
X228663000Y-129064260D01*
X228663000Y-128771740D01*
X228605932Y-128484842D01*
X228493990Y-128214589D01*
X228331475Y-127971368D01*
X228124632Y-127764525D01*
X227950240Y-127648000D01*
X228124632Y-127531475D01*
X228331475Y-127324632D01*
X228493990Y-127081411D01*
X228605932Y-126811158D01*
X228663000Y-126524260D01*
X228663000Y-126231740D01*
X228605932Y-125944842D01*
X228493990Y-125674589D01*
X228331475Y-125431368D01*
X228199620Y-125299513D01*
X228272180Y-125277502D01*
X228382494Y-125218537D01*
X228479185Y-125139185D01*
X228558537Y-125042494D01*
X228617502Y-124932180D01*
X228653812Y-124812482D01*
X228666072Y-124688000D01*
X243469928Y-124688000D01*
X243482188Y-124812482D01*
X243518498Y-124932180D01*
X243577463Y-125042494D01*
X243656815Y-125139185D01*
X243753506Y-125218537D01*
X243863820Y-125277502D01*
X243936380Y-125299513D01*
X243804525Y-125431368D01*
X243642010Y-125674589D01*
X243530068Y-125944842D01*
X243473000Y-126231740D01*
X243473000Y-126524260D01*
X243530068Y-126811158D01*
X243642010Y-127081411D01*
X243804525Y-127324632D01*
X244011368Y-127531475D01*
X244185760Y-127648000D01*
X244011368Y-127764525D01*
X243804525Y-127971368D01*
X243642010Y-128214589D01*
X243530068Y-128484842D01*
X243473000Y-128771740D01*
X243473000Y-129064260D01*
X243530068Y-129351158D01*
X243642010Y-129621411D01*
X243804525Y-129864632D01*
X244011368Y-130071475D01*
X244185760Y-130188000D01*
X244011368Y-130304525D01*
X243804525Y-130511368D01*
X243642010Y-130754589D01*
X243530068Y-131024842D01*
X243473000Y-131311740D01*
X243473000Y-131604260D01*
X243530068Y-131891158D01*
X243642010Y-132161411D01*
X243804525Y-132404632D01*
X244011368Y-132611475D01*
X244185760Y-132728000D01*
X244011368Y-132844525D01*
X243804525Y-133051368D01*
X243642010Y-133294589D01*
X243530068Y-133564842D01*
X243473000Y-133851740D01*
X243473000Y-134144260D01*
X243530068Y-134431158D01*
X243642010Y-134701411D01*
X243804525Y-134944632D01*
X243936380Y-135076487D01*
X243863820Y-135098498D01*
X243753506Y-135157463D01*
X243656815Y-135236815D01*
X243577463Y-135333506D01*
X243518498Y-135443820D01*
X243482188Y-135563518D01*
X243469928Y-135688000D01*
X243473000Y-136252250D01*
X243631750Y-136411000D01*
X244831000Y-136411000D01*
X244831000Y-136391000D01*
X245085000Y-136391000D01*
X245085000Y-136411000D01*
X246284250Y-136411000D01*
X246443000Y-136252250D01*
X246446072Y-135688000D01*
X246433812Y-135563518D01*
X246397502Y-135443820D01*
X246338537Y-135333506D01*
X246259185Y-135236815D01*
X246162494Y-135157463D01*
X246052180Y-135098498D01*
X245979620Y-135076487D01*
X246111475Y-134944632D01*
X246273990Y-134701411D01*
X246276646Y-134695000D01*
X251791117Y-134695000D01*
X251932525Y-134906632D01*
X252139368Y-135113475D01*
X252321534Y-135235195D01*
X252204645Y-135304822D01*
X251988412Y-135499731D01*
X251814359Y-135733080D01*
X251689175Y-135995901D01*
X251644524Y-136143110D01*
X251765845Y-136373000D01*
X252959000Y-136373000D01*
X252959000Y-136353000D01*
X253213000Y-136353000D01*
X253213000Y-136373000D01*
X254406155Y-136373000D01*
X254527476Y-136143110D01*
X254482825Y-135995901D01*
X254357641Y-135733080D01*
X254183588Y-135499731D01*
X253967355Y-135304822D01*
X253850466Y-135235195D01*
X254032632Y-135113475D01*
X254239475Y-134906632D01*
X254401990Y-134663411D01*
X254513932Y-134393158D01*
X254571000Y-134106260D01*
X254571000Y-133813740D01*
X254513932Y-133526842D01*
X254401990Y-133256589D01*
X254239475Y-133013368D01*
X254032632Y-132806525D01*
X253858240Y-132690000D01*
X254032632Y-132573475D01*
X254239475Y-132366632D01*
X254401990Y-132123411D01*
X254513932Y-131853158D01*
X254571000Y-131566260D01*
X254571000Y-131273740D01*
X254513932Y-130986842D01*
X254401990Y-130716589D01*
X254239475Y-130473368D01*
X254032632Y-130266525D01*
X253858240Y-130150000D01*
X254032632Y-130033475D01*
X254239475Y-129826632D01*
X254401990Y-129583411D01*
X254513932Y-129313158D01*
X254571000Y-129026260D01*
X254571000Y-128733740D01*
X254513932Y-128446842D01*
X254401990Y-128176589D01*
X254239475Y-127933368D01*
X254032632Y-127726525D01*
X253858240Y-127610000D01*
X254032632Y-127493475D01*
X254239475Y-127286632D01*
X254401990Y-127043411D01*
X254513932Y-126773158D01*
X254571000Y-126486260D01*
X254571000Y-126193740D01*
X254513932Y-125906842D01*
X254401990Y-125636589D01*
X254239475Y-125393368D01*
X254032632Y-125186525D01*
X253850466Y-125064805D01*
X253967355Y-124995178D01*
X254183588Y-124800269D01*
X254357641Y-124566920D01*
X254482825Y-124304099D01*
X254527476Y-124156890D01*
X254406155Y-123927000D01*
X253213000Y-123927000D01*
X253213000Y-123947000D01*
X252959000Y-123947000D01*
X252959000Y-123927000D01*
X251765845Y-123927000D01*
X251644524Y-124156890D01*
X251689175Y-124304099D01*
X251814359Y-124566920D01*
X251988412Y-124800269D01*
X252204645Y-124995178D01*
X252321534Y-125064805D01*
X252139368Y-125186525D01*
X251932525Y-125393368D01*
X251770010Y-125636589D01*
X251767354Y-125643000D01*
X246252883Y-125643000D01*
X246111475Y-125431368D01*
X245979620Y-125299513D01*
X246052180Y-125277502D01*
X246162494Y-125218537D01*
X246259185Y-125139185D01*
X246338537Y-125042494D01*
X246397502Y-124932180D01*
X246433812Y-124812482D01*
X246446072Y-124688000D01*
X246443000Y-124123750D01*
X246284250Y-123965000D01*
X245085000Y-123965000D01*
X245085000Y-123985000D01*
X244831000Y-123985000D01*
X244831000Y-123965000D01*
X243631750Y-123965000D01*
X243473000Y-124123750D01*
X243469928Y-124688000D01*
X228666072Y-124688000D01*
X228663000Y-124123750D01*
X228504250Y-123965000D01*
X227305000Y-123965000D01*
X227305000Y-123985000D01*
X227051000Y-123985000D01*
X227051000Y-123965000D01*
X225851750Y-123965000D01*
X225693000Y-124123750D01*
X225689928Y-124688000D01*
X225702188Y-124812482D01*
X225738498Y-124932180D01*
X225797463Y-125042494D01*
X225876815Y-125139185D01*
X225973506Y-125218537D01*
X226083820Y-125277502D01*
X226156380Y-125299513D01*
X226024525Y-125431368D01*
X225883117Y-125643000D01*
X219582883Y-125643000D01*
X219441475Y-125431368D01*
X219234632Y-125224525D01*
X219052466Y-125102805D01*
X219169355Y-125033178D01*
X219385588Y-124838269D01*
X219559641Y-124604920D01*
X219684825Y-124342099D01*
X219729476Y-124194890D01*
X219608155Y-123965000D01*
X218415000Y-123965000D01*
X218415000Y-123985000D01*
X218161000Y-123985000D01*
X218161000Y-123965000D01*
X216967845Y-123965000D01*
X216846524Y-124194890D01*
X216891175Y-124342099D01*
X217016359Y-124604920D01*
X217190412Y-124838269D01*
X217406645Y-125033178D01*
X217523534Y-125102805D01*
X217341368Y-125224525D01*
X217134525Y-125431368D01*
X216972010Y-125674589D01*
X216860068Y-125944842D01*
X216803000Y-126231740D01*
X216803000Y-126524260D01*
X216860068Y-126811158D01*
X216972010Y-127081411D01*
X217134525Y-127324632D01*
X217341368Y-127531475D01*
X217515760Y-127648000D01*
X217341368Y-127764525D01*
X217134525Y-127971368D01*
X216972010Y-128214589D01*
X216860068Y-128484842D01*
X216803000Y-128771740D01*
X216803000Y-129064260D01*
X216860068Y-129351158D01*
X216972010Y-129621411D01*
X217134525Y-129864632D01*
X217341368Y-130071475D01*
X217515760Y-130188000D01*
X217341368Y-130304525D01*
X217134525Y-130511368D01*
X216972010Y-130754589D01*
X216860068Y-131024842D01*
X216803000Y-131311740D01*
X216803000Y-131604260D01*
X216856456Y-131873001D01*
X214994632Y-131873001D01*
X214689679Y-131568048D01*
X214733000Y-131350260D01*
X214733000Y-131057740D01*
X214675932Y-130770842D01*
X214563990Y-130500589D01*
X214401475Y-130257368D01*
X214194632Y-130050525D01*
X213951411Y-129888010D01*
X213681158Y-129776068D01*
X213394260Y-129719000D01*
X213101740Y-129719000D01*
X212814842Y-129776068D01*
X212544589Y-129888010D01*
X212301368Y-130050525D01*
X212169513Y-130182380D01*
X212147502Y-130109820D01*
X212088537Y-129999506D01*
X212009185Y-129902815D01*
X211912494Y-129823463D01*
X211802180Y-129764498D01*
X211682482Y-129728188D01*
X211558000Y-129715928D01*
X209858000Y-129715928D01*
X209733518Y-129728188D01*
X209613820Y-129764498D01*
X209503506Y-129823463D01*
X209406815Y-129902815D01*
X209327463Y-129999506D01*
X209268498Y-130109820D01*
X209232188Y-130229518D01*
X209219928Y-130354000D01*
X209219928Y-132054000D01*
X209232188Y-132178482D01*
X209268498Y-132298180D01*
X209327463Y-132408494D01*
X209406815Y-132505185D01*
X209503506Y-132584537D01*
X209613820Y-132643502D01*
X209733518Y-132679812D01*
X209858000Y-132692072D01*
X211558000Y-132692072D01*
X211682482Y-132679812D01*
X211802180Y-132643502D01*
X211912494Y-132584537D01*
X212009185Y-132505185D01*
X212088537Y-132408494D01*
X212147502Y-132298180D01*
X212169513Y-132225620D01*
X212301368Y-132357475D01*
X212544589Y-132519990D01*
X212814842Y-132631932D01*
X213101740Y-132689000D01*
X213394260Y-132689000D01*
X213612048Y-132645679D01*
X214113721Y-133147352D01*
X214137579Y-133176423D01*
X214253609Y-133271646D01*
X214385986Y-133342403D01*
X214529623Y-133385975D01*
X214641575Y-133397001D01*
X214641577Y-133397001D01*
X214679000Y-133400687D01*
X214716423Y-133397001D01*
X216929590Y-133397001D01*
X216860068Y-133564842D01*
X216803000Y-133851740D01*
X216803000Y-134144260D01*
X216860068Y-134431158D01*
X216929590Y-134598999D01*
X215438424Y-134598999D01*
X215401001Y-134595313D01*
X215363578Y-134598999D01*
X215363575Y-134598999D01*
X215251623Y-134610025D01*
X215107986Y-134653597D01*
X215057961Y-134680336D01*
X214975608Y-134724354D01*
X214933220Y-134759142D01*
X214859579Y-134819577D01*
X214835717Y-134848653D01*
X214354239Y-135330132D01*
X214154632Y-135130525D01*
X213911411Y-134968010D01*
X213641158Y-134856068D01*
X213354260Y-134799000D01*
X213061740Y-134799000D01*
X212774842Y-134856068D01*
X212504589Y-134968010D01*
X212261368Y-135130525D01*
X212129513Y-135262380D01*
X212107502Y-135189820D01*
X212048537Y-135079506D01*
X211969185Y-134982815D01*
X211872494Y-134903463D01*
X211762180Y-134844498D01*
X211642482Y-134808188D01*
X211518000Y-134795928D01*
X209818000Y-134795928D01*
X209693518Y-134808188D01*
X209573820Y-134844498D01*
X209463506Y-134903463D01*
X209366815Y-134982815D01*
X209287463Y-135079506D01*
X209228498Y-135189820D01*
X209192188Y-135309518D01*
X209179928Y-135434000D01*
X206254107Y-135434000D01*
X206166632Y-135346525D01*
X205992240Y-135230000D01*
X206166632Y-135113475D01*
X206373475Y-134906632D01*
X206535990Y-134663411D01*
X206647932Y-134393158D01*
X206705000Y-134106260D01*
X206705000Y-133813740D01*
X206647932Y-133526842D01*
X206535990Y-133256589D01*
X206373475Y-133013368D01*
X206166632Y-132806525D01*
X205984466Y-132684805D01*
X206101355Y-132615178D01*
X206317588Y-132420269D01*
X206491641Y-132186920D01*
X206616825Y-131924099D01*
X206661476Y-131776890D01*
X206540155Y-131547000D01*
X205347000Y-131547000D01*
X205347000Y-131567000D01*
X205093000Y-131567000D01*
X205093000Y-131547000D01*
X205073000Y-131547000D01*
X205073000Y-131293000D01*
X205093000Y-131293000D01*
X205093000Y-131273000D01*
X205347000Y-131273000D01*
X205347000Y-131293000D01*
X206540155Y-131293000D01*
X206661476Y-131063110D01*
X206616825Y-130915901D01*
X206491641Y-130653080D01*
X206317588Y-130419731D01*
X206101355Y-130224822D01*
X205984466Y-130155195D01*
X206166632Y-130033475D01*
X206373475Y-129826632D01*
X206535990Y-129583411D01*
X206647932Y-129313158D01*
X206705000Y-129026260D01*
X206705000Y-128733740D01*
X206647932Y-128446842D01*
X206578410Y-128279001D01*
X207205576Y-128279001D01*
X207242999Y-128282687D01*
X207280422Y-128279001D01*
X207280425Y-128279001D01*
X207392377Y-128267975D01*
X207536014Y-128224403D01*
X207668391Y-128153646D01*
X207784421Y-128058423D01*
X207808283Y-128029347D01*
X209874632Y-125962999D01*
X213585578Y-125962999D01*
X213623001Y-125966685D01*
X213660424Y-125962999D01*
X213660427Y-125962999D01*
X213772379Y-125951973D01*
X213916016Y-125908401D01*
X214048393Y-125837644D01*
X214164423Y-125742421D01*
X214188285Y-125713345D01*
X216478632Y-123422999D01*
X216864150Y-123422999D01*
X216846524Y-123481110D01*
X216967845Y-123711000D01*
X218161000Y-123711000D01*
X218161000Y-123691000D01*
X218415000Y-123691000D01*
X218415000Y-123711000D01*
X219608155Y-123711000D01*
X219729476Y-123481110D01*
X219711850Y-123422999D01*
X225692296Y-123422999D01*
X225693000Y-123552250D01*
X225851750Y-123711000D01*
X227051000Y-123711000D01*
X227051000Y-123691000D01*
X227305000Y-123691000D01*
X227305000Y-123711000D01*
X228504250Y-123711000D01*
X228663000Y-123552250D01*
X228663713Y-123421297D01*
X228758379Y-123411973D01*
X228902016Y-123368401D01*
X229034393Y-123297644D01*
X229150423Y-123202421D01*
X229174285Y-123173345D01*
X230218631Y-122129000D01*
X230332863Y-122129000D01*
X230542483Y-122087304D01*
X230739940Y-122005515D01*
X230917647Y-121886775D01*
X231068775Y-121735647D01*
X231187515Y-121557940D01*
X231269304Y-121360483D01*
X231311000Y-121150863D01*
X231311000Y-120937137D01*
X231269304Y-120727517D01*
X231256664Y-120697001D01*
X231297576Y-120697001D01*
X231334999Y-120700687D01*
X231372422Y-120697001D01*
X231372425Y-120697001D01*
X231484377Y-120685975D01*
X231628014Y-120642403D01*
X231760391Y-120571646D01*
X231876421Y-120476423D01*
X231900283Y-120447347D01*
X236580353Y-115767278D01*
X236609422Y-115743422D01*
X236704645Y-115627392D01*
X236775402Y-115495015D01*
X236818974Y-115351378D01*
X236830000Y-115239426D01*
X236830000Y-115239424D01*
X236833686Y-115202001D01*
X236830000Y-115164578D01*
X236830000Y-112918095D01*
X237006933Y-112991383D01*
X237226212Y-113035000D01*
X237449788Y-113035000D01*
X237669067Y-112991383D01*
X237875624Y-112905824D01*
X237973000Y-112840759D01*
X238070376Y-112905824D01*
X238276933Y-112991383D01*
X238496212Y-113035000D01*
X238719788Y-113035000D01*
X238939067Y-112991383D01*
X239145624Y-112905824D01*
X239331520Y-112781612D01*
X239489612Y-112623520D01*
X239613824Y-112437624D01*
X239699383Y-112231067D01*
X239743000Y-112011788D01*
X239743000Y-111988000D01*
X243469928Y-111988000D01*
X243482188Y-112112482D01*
X243518498Y-112232180D01*
X243577463Y-112342494D01*
X243656815Y-112439185D01*
X243753506Y-112518537D01*
X243863820Y-112577502D01*
X243936380Y-112599513D01*
X243804525Y-112731368D01*
X243642010Y-112974589D01*
X243530068Y-113244842D01*
X243473000Y-113531740D01*
X243473000Y-113824260D01*
X243530068Y-114111158D01*
X243642010Y-114381411D01*
X243804525Y-114624632D01*
X244011368Y-114831475D01*
X244185760Y-114948000D01*
X244011368Y-115064525D01*
X243804525Y-115271368D01*
X243642010Y-115514589D01*
X243530068Y-115784842D01*
X243473000Y-116071740D01*
X243473000Y-116364260D01*
X243530068Y-116651158D01*
X243642010Y-116921411D01*
X243804525Y-117164632D01*
X244011368Y-117371475D01*
X244185760Y-117488000D01*
X244011368Y-117604525D01*
X243804525Y-117811368D01*
X243642010Y-118054589D01*
X243530068Y-118324842D01*
X243473000Y-118611740D01*
X243473000Y-118904260D01*
X243530068Y-119191158D01*
X243642010Y-119461411D01*
X243804525Y-119704632D01*
X244011368Y-119911475D01*
X244185760Y-120028000D01*
X244011368Y-120144525D01*
X243804525Y-120351368D01*
X243642010Y-120594589D01*
X243530068Y-120864842D01*
X243473000Y-121151740D01*
X243473000Y-121444260D01*
X243530068Y-121731158D01*
X243642010Y-122001411D01*
X243804525Y-122244632D01*
X243936380Y-122376487D01*
X243863820Y-122398498D01*
X243753506Y-122457463D01*
X243656815Y-122536815D01*
X243577463Y-122633506D01*
X243518498Y-122743820D01*
X243482188Y-122863518D01*
X243469928Y-122988000D01*
X243473000Y-123552250D01*
X243631750Y-123711000D01*
X244831000Y-123711000D01*
X244831000Y-123691000D01*
X245085000Y-123691000D01*
X245085000Y-123711000D01*
X246284250Y-123711000D01*
X246443000Y-123552250D01*
X246446072Y-122988000D01*
X246433812Y-122863518D01*
X246397502Y-122743820D01*
X246338537Y-122633506D01*
X246259185Y-122536815D01*
X246162494Y-122457463D01*
X246052180Y-122398498D01*
X245979620Y-122376487D01*
X246111475Y-122244632D01*
X246273990Y-122001411D01*
X246276646Y-121995000D01*
X251791117Y-121995000D01*
X251932525Y-122206632D01*
X252139368Y-122413475D01*
X252321534Y-122535195D01*
X252204645Y-122604822D01*
X251988412Y-122799731D01*
X251814359Y-123033080D01*
X251689175Y-123295901D01*
X251644524Y-123443110D01*
X251765845Y-123673000D01*
X252959000Y-123673000D01*
X252959000Y-123653000D01*
X253213000Y-123653000D01*
X253213000Y-123673000D01*
X254406155Y-123673000D01*
X254527476Y-123443110D01*
X254482825Y-123295901D01*
X254357641Y-123033080D01*
X254183588Y-122799731D01*
X253967355Y-122604822D01*
X253850466Y-122535195D01*
X254032632Y-122413475D01*
X254239475Y-122206632D01*
X254401990Y-121963411D01*
X254513932Y-121693158D01*
X254571000Y-121406260D01*
X254571000Y-121113740D01*
X254513932Y-120826842D01*
X254401990Y-120556589D01*
X254239475Y-120313368D01*
X254032632Y-120106525D01*
X253858240Y-119990000D01*
X254032632Y-119873475D01*
X254239475Y-119666632D01*
X254401990Y-119423411D01*
X254513932Y-119153158D01*
X254571000Y-118866260D01*
X254571000Y-118573740D01*
X254513932Y-118286842D01*
X254401990Y-118016589D01*
X254239475Y-117773368D01*
X254032632Y-117566525D01*
X253858240Y-117450000D01*
X254032632Y-117333475D01*
X254239475Y-117126632D01*
X254401990Y-116883411D01*
X254513932Y-116613158D01*
X254571000Y-116326260D01*
X254571000Y-116033740D01*
X254513932Y-115746842D01*
X254401990Y-115476589D01*
X254239475Y-115233368D01*
X254032632Y-115026525D01*
X253858240Y-114910000D01*
X254032632Y-114793475D01*
X254239475Y-114586632D01*
X254401990Y-114343411D01*
X254513932Y-114073158D01*
X254571000Y-113786260D01*
X254571000Y-113493740D01*
X254513932Y-113206842D01*
X254401990Y-112936589D01*
X254239475Y-112693368D01*
X254032632Y-112486525D01*
X253850466Y-112364805D01*
X253967355Y-112295178D01*
X254183588Y-112100269D01*
X254357641Y-111866920D01*
X254482825Y-111604099D01*
X254527476Y-111456890D01*
X254406155Y-111227000D01*
X253213000Y-111227000D01*
X253213000Y-111247000D01*
X252959000Y-111247000D01*
X252959000Y-111227000D01*
X251765845Y-111227000D01*
X251644524Y-111456890D01*
X251689175Y-111604099D01*
X251814359Y-111866920D01*
X251988412Y-112100269D01*
X252204645Y-112295178D01*
X252321534Y-112364805D01*
X252139368Y-112486525D01*
X251932525Y-112693368D01*
X251770010Y-112936589D01*
X251767354Y-112943000D01*
X246252883Y-112943000D01*
X246111475Y-112731368D01*
X245979620Y-112599513D01*
X246052180Y-112577502D01*
X246162494Y-112518537D01*
X246259185Y-112439185D01*
X246338537Y-112342494D01*
X246397502Y-112232180D01*
X246433812Y-112112482D01*
X246446072Y-111988000D01*
X246443000Y-111423750D01*
X246284250Y-111265000D01*
X245085000Y-111265000D01*
X245085000Y-111285000D01*
X244831000Y-111285000D01*
X244831000Y-111265000D01*
X243631750Y-111265000D01*
X243473000Y-111423750D01*
X243469928Y-111988000D01*
X239743000Y-111988000D01*
X239743000Y-111788212D01*
X239699383Y-111568933D01*
X239653112Y-111457226D01*
X239697502Y-111374180D01*
X239733812Y-111254482D01*
X239746072Y-111130000D01*
X239746072Y-110130000D01*
X239733812Y-110005518D01*
X239697502Y-109885820D01*
X239638537Y-109775506D01*
X239559185Y-109678815D01*
X239462494Y-109599463D01*
X239352180Y-109540498D01*
X239232482Y-109504188D01*
X239108000Y-109491928D01*
X238108000Y-109491928D01*
X237983518Y-109504188D01*
X237863820Y-109540498D01*
X237774820Y-109588070D01*
X237694864Y-109552554D01*
X237639874Y-109535881D01*
X237465000Y-109662046D01*
X237465000Y-110503000D01*
X237469928Y-110503000D01*
X237469928Y-110757000D01*
X237465000Y-110757000D01*
X237465000Y-110768026D01*
X237449788Y-110765000D01*
X237226212Y-110765000D01*
X237211000Y-110768026D01*
X237211000Y-110757000D01*
X236195000Y-110757000D01*
X236195000Y-110768026D01*
X236179788Y-110765000D01*
X235956212Y-110765000D01*
X235941000Y-110768026D01*
X235941000Y-110757000D01*
X235929974Y-110757000D01*
X235933000Y-110741788D01*
X235933000Y-110518212D01*
X235929974Y-110503000D01*
X235941000Y-110503000D01*
X235941000Y-109662046D01*
X236195000Y-109662046D01*
X236195000Y-110503000D01*
X237211000Y-110503000D01*
X237211000Y-109662046D01*
X237036126Y-109535881D01*
X236981136Y-109552554D01*
X236777794Y-109642877D01*
X236703000Y-109695639D01*
X236628206Y-109642877D01*
X236424864Y-109552554D01*
X236369874Y-109535881D01*
X236195000Y-109662046D01*
X235941000Y-109662046D01*
X235766126Y-109535881D01*
X235711136Y-109552554D01*
X235507794Y-109642877D01*
X235437658Y-109692353D01*
X235335624Y-109624176D01*
X235129067Y-109538617D01*
X234909788Y-109495000D01*
X234686212Y-109495000D01*
X234466933Y-109538617D01*
X234260376Y-109624176D01*
X234163000Y-109689241D01*
X234065624Y-109624176D01*
X233859067Y-109538617D01*
X233639788Y-109495000D01*
X233416212Y-109495000D01*
X233196933Y-109538617D01*
X232990376Y-109624176D01*
X232804480Y-109748388D01*
X232646388Y-109906480D01*
X232522176Y-110092376D01*
X232436617Y-110298933D01*
X232393000Y-110518212D01*
X232393000Y-110741788D01*
X232436617Y-110961067D01*
X232522176Y-111167624D01*
X232587241Y-111265000D01*
X232522176Y-111362376D01*
X232436617Y-111568933D01*
X232393000Y-111788212D01*
X232393000Y-112011788D01*
X232436617Y-112231067D01*
X232522176Y-112437624D01*
X232646388Y-112623520D01*
X232804480Y-112781612D01*
X232990376Y-112905824D01*
X233196933Y-112991383D01*
X233416212Y-113035000D01*
X233639788Y-113035000D01*
X233859067Y-112991383D01*
X234036000Y-112918095D01*
X234036000Y-113108369D01*
X230511369Y-116633001D01*
X228609544Y-116633001D01*
X228663000Y-116364260D01*
X228663000Y-116071740D01*
X228605932Y-115784842D01*
X228493990Y-115514589D01*
X228331475Y-115271368D01*
X228124632Y-115064525D01*
X227950240Y-114948000D01*
X228124632Y-114831475D01*
X228331475Y-114624632D01*
X228493990Y-114381411D01*
X228605932Y-114111158D01*
X228663000Y-113824260D01*
X228663000Y-113531740D01*
X228605932Y-113244842D01*
X228493990Y-112974589D01*
X228331475Y-112731368D01*
X228199620Y-112599513D01*
X228272180Y-112577502D01*
X228382494Y-112518537D01*
X228479185Y-112439185D01*
X228558537Y-112342494D01*
X228617502Y-112232180D01*
X228653812Y-112112482D01*
X228666072Y-111988000D01*
X228663000Y-111423750D01*
X228504250Y-111265000D01*
X227305000Y-111265000D01*
X227305000Y-111285000D01*
X227051000Y-111285000D01*
X227051000Y-111265000D01*
X225851750Y-111265000D01*
X225693000Y-111423750D01*
X225689928Y-111988000D01*
X225702188Y-112112482D01*
X225738498Y-112232180D01*
X225797463Y-112342494D01*
X225876815Y-112439185D01*
X225973506Y-112518537D01*
X226083820Y-112577502D01*
X226156380Y-112599513D01*
X226024525Y-112731368D01*
X225883117Y-112943000D01*
X219582883Y-112943000D01*
X219441475Y-112731368D01*
X219234632Y-112524525D01*
X219052466Y-112402805D01*
X219169355Y-112333178D01*
X219385588Y-112138269D01*
X219559641Y-111904920D01*
X219684825Y-111642099D01*
X219729476Y-111494890D01*
X219608155Y-111265000D01*
X218415000Y-111265000D01*
X218415000Y-111285000D01*
X218161000Y-111285000D01*
X218161000Y-111265000D01*
X216967845Y-111265000D01*
X216846524Y-111494890D01*
X216891175Y-111642099D01*
X217016359Y-111904920D01*
X217190412Y-112138269D01*
X217406645Y-112333178D01*
X217523534Y-112402805D01*
X217341368Y-112524525D01*
X217134525Y-112731368D01*
X216972010Y-112974589D01*
X216860068Y-113244842D01*
X216803000Y-113531740D01*
X216803000Y-113824260D01*
X216860068Y-114111158D01*
X216972010Y-114381411D01*
X217134525Y-114624632D01*
X217341368Y-114831475D01*
X217515760Y-114948000D01*
X217341368Y-115064525D01*
X217134525Y-115271368D01*
X216972010Y-115514589D01*
X216860068Y-115784842D01*
X216803000Y-116071740D01*
X216803000Y-116364260D01*
X216860068Y-116651158D01*
X216913385Y-116779876D01*
X216823577Y-116853579D01*
X216799720Y-116882649D01*
X211876370Y-121806000D01*
X206601192Y-121806000D01*
X206647932Y-121693158D01*
X206705000Y-121406260D01*
X206705000Y-121113740D01*
X206647932Y-120826842D01*
X206535990Y-120556589D01*
X206373475Y-120313368D01*
X206166632Y-120106525D01*
X205992240Y-119990000D01*
X206166632Y-119873475D01*
X206373475Y-119666632D01*
X206535990Y-119423411D01*
X206647932Y-119153158D01*
X206705000Y-118866260D01*
X206705000Y-118573740D01*
X206647932Y-118286842D01*
X206535990Y-118016589D01*
X206373475Y-117773368D01*
X206166632Y-117566525D01*
X205992240Y-117450000D01*
X206166632Y-117333475D01*
X206373475Y-117126632D01*
X206535990Y-116883411D01*
X206647932Y-116613158D01*
X206705000Y-116326260D01*
X206705000Y-116033740D01*
X206647932Y-115746842D01*
X206535990Y-115476589D01*
X206373475Y-115233368D01*
X206166632Y-115026525D01*
X205992240Y-114910000D01*
X206166632Y-114793475D01*
X206373475Y-114586632D01*
X206535990Y-114343411D01*
X206647932Y-114073158D01*
X206705000Y-113786260D01*
X206705000Y-113493740D01*
X206647932Y-113206842D01*
X206535990Y-112936589D01*
X206373475Y-112693368D01*
X206166632Y-112486525D01*
X205984466Y-112364805D01*
X206101355Y-112295178D01*
X206317588Y-112100269D01*
X206491641Y-111866920D01*
X206616825Y-111604099D01*
X206661476Y-111456890D01*
X206540155Y-111227000D01*
X205347000Y-111227000D01*
X205347000Y-111247000D01*
X205093000Y-111247000D01*
X205093000Y-111227000D01*
X205073000Y-111227000D01*
X205073000Y-110973000D01*
X205093000Y-110973000D01*
X205093000Y-110953000D01*
X205347000Y-110953000D01*
X205347000Y-110973000D01*
X206540155Y-110973000D01*
X206661476Y-110743110D01*
X206616825Y-110595901D01*
X206491641Y-110333080D01*
X206317588Y-110099731D01*
X206101355Y-109904822D01*
X205984466Y-109835195D01*
X206166632Y-109713475D01*
X206373475Y-109506632D01*
X206535990Y-109263411D01*
X206647932Y-108993158D01*
X206705000Y-108706260D01*
X206705000Y-108413740D01*
X206647932Y-108126842D01*
X206535990Y-107856589D01*
X206373475Y-107613368D01*
X206166632Y-107406525D01*
X205992240Y-107290000D01*
X206166632Y-107173475D01*
X206373475Y-106966632D01*
X206535990Y-106723411D01*
X206647932Y-106453158D01*
X206705000Y-106166260D01*
X206705000Y-105873740D01*
X206647932Y-105586842D01*
X206535990Y-105316589D01*
X206373475Y-105073368D01*
X206166632Y-104866525D01*
X205992240Y-104750000D01*
X206166632Y-104633475D01*
X206373475Y-104426632D01*
X206535990Y-104183411D01*
X206647932Y-103913158D01*
X206705000Y-103626260D01*
X206705000Y-103333740D01*
X206647932Y-103046842D01*
X206535990Y-102776589D01*
X206373475Y-102533368D01*
X206166632Y-102326525D01*
X205992240Y-102210000D01*
X206166632Y-102093475D01*
X206373475Y-101886632D01*
X206535990Y-101643411D01*
X206647932Y-101373158D01*
X206705000Y-101086260D01*
X206705000Y-100831740D01*
X216803000Y-100831740D01*
X216803000Y-101124260D01*
X216860068Y-101411158D01*
X216972010Y-101681411D01*
X217134525Y-101924632D01*
X217341368Y-102131475D01*
X217515760Y-102248000D01*
X217341368Y-102364525D01*
X217134525Y-102571368D01*
X216972010Y-102814589D01*
X216860068Y-103084842D01*
X216803000Y-103371740D01*
X216803000Y-103664260D01*
X216860068Y-103951158D01*
X216972010Y-104221411D01*
X217134525Y-104464632D01*
X217341368Y-104671475D01*
X217515760Y-104788000D01*
X217341368Y-104904525D01*
X217134525Y-105111368D01*
X216972010Y-105354589D01*
X216860068Y-105624842D01*
X216803000Y-105911740D01*
X216803000Y-106204260D01*
X216860068Y-106491158D01*
X216972010Y-106761411D01*
X217134525Y-107004632D01*
X217341368Y-107211475D01*
X217515760Y-107328000D01*
X217341368Y-107444525D01*
X217134525Y-107651368D01*
X216972010Y-107894589D01*
X216860068Y-108164842D01*
X216803000Y-108451740D01*
X216803000Y-108744260D01*
X216860068Y-109031158D01*
X216972010Y-109301411D01*
X217134525Y-109544632D01*
X217341368Y-109751475D01*
X217523534Y-109873195D01*
X217406645Y-109942822D01*
X217190412Y-110137731D01*
X217016359Y-110371080D01*
X216891175Y-110633901D01*
X216846524Y-110781110D01*
X216967845Y-111011000D01*
X218161000Y-111011000D01*
X218161000Y-110991000D01*
X218415000Y-110991000D01*
X218415000Y-111011000D01*
X219608155Y-111011000D01*
X219729476Y-110781110D01*
X219684825Y-110633901D01*
X219559641Y-110371080D01*
X219385588Y-110137731D01*
X219169355Y-109942822D01*
X219052466Y-109873195D01*
X219234632Y-109751475D01*
X219441475Y-109544632D01*
X219582883Y-109333000D01*
X225883117Y-109333000D01*
X226024525Y-109544632D01*
X226156380Y-109676487D01*
X226083820Y-109698498D01*
X225973506Y-109757463D01*
X225876815Y-109836815D01*
X225797463Y-109933506D01*
X225738498Y-110043820D01*
X225702188Y-110163518D01*
X225689928Y-110288000D01*
X225693000Y-110852250D01*
X225851750Y-111011000D01*
X227051000Y-111011000D01*
X227051000Y-110991000D01*
X227305000Y-110991000D01*
X227305000Y-111011000D01*
X228504250Y-111011000D01*
X228663000Y-110852250D01*
X228666072Y-110288000D01*
X228653812Y-110163518D01*
X228617502Y-110043820D01*
X228558537Y-109933506D01*
X228479185Y-109836815D01*
X228382494Y-109757463D01*
X228272180Y-109698498D01*
X228199620Y-109676487D01*
X228331475Y-109544632D01*
X228493990Y-109301411D01*
X228605932Y-109031158D01*
X228663000Y-108744260D01*
X228663000Y-108451740D01*
X228605932Y-108164842D01*
X228493990Y-107894589D01*
X228331475Y-107651368D01*
X228124632Y-107444525D01*
X227950240Y-107328000D01*
X228124632Y-107211475D01*
X228331475Y-107004632D01*
X228493990Y-106761411D01*
X228605932Y-106491158D01*
X228663000Y-106204260D01*
X228663000Y-105911740D01*
X228605932Y-105624842D01*
X228493990Y-105354589D01*
X228331475Y-105111368D01*
X228124632Y-104904525D01*
X228008608Y-104827000D01*
X232547928Y-104827000D01*
X232547928Y-106527000D01*
X232560188Y-106651482D01*
X232596498Y-106771180D01*
X232655463Y-106881494D01*
X232734815Y-106978185D01*
X232831506Y-107057537D01*
X232941820Y-107116502D01*
X233061518Y-107152812D01*
X233186000Y-107165072D01*
X234886000Y-107165072D01*
X235010482Y-107152812D01*
X235130180Y-107116502D01*
X235240494Y-107057537D01*
X235337185Y-106978185D01*
X235416537Y-106881494D01*
X235475502Y-106771180D01*
X235511812Y-106651482D01*
X235524072Y-106527000D01*
X235524072Y-104827000D01*
X236738928Y-104827000D01*
X236738928Y-106527000D01*
X236751188Y-106651482D01*
X236787498Y-106771180D01*
X236846463Y-106881494D01*
X236925815Y-106978185D01*
X237022506Y-107057537D01*
X237132820Y-107116502D01*
X237252518Y-107152812D01*
X237377000Y-107165072D01*
X239077000Y-107165072D01*
X239201482Y-107152812D01*
X239321180Y-107116502D01*
X239431494Y-107057537D01*
X239528185Y-106978185D01*
X239607537Y-106881494D01*
X239666502Y-106771180D01*
X239702812Y-106651482D01*
X239715072Y-106527000D01*
X239715072Y-104827000D01*
X239702812Y-104702518D01*
X239666502Y-104582820D01*
X239607537Y-104472506D01*
X239528185Y-104375815D01*
X239431494Y-104296463D01*
X239321180Y-104237498D01*
X239201482Y-104201188D01*
X239077000Y-104188928D01*
X237377000Y-104188928D01*
X237252518Y-104201188D01*
X237132820Y-104237498D01*
X237022506Y-104296463D01*
X236925815Y-104375815D01*
X236846463Y-104472506D01*
X236787498Y-104582820D01*
X236751188Y-104702518D01*
X236738928Y-104827000D01*
X235524072Y-104827000D01*
X235511812Y-104702518D01*
X235475502Y-104582820D01*
X235416537Y-104472506D01*
X235337185Y-104375815D01*
X235240494Y-104296463D01*
X235130180Y-104237498D01*
X235010482Y-104201188D01*
X234886000Y-104188928D01*
X233186000Y-104188928D01*
X233061518Y-104201188D01*
X232941820Y-104237498D01*
X232831506Y-104296463D01*
X232734815Y-104375815D01*
X232655463Y-104472506D01*
X232596498Y-104582820D01*
X232560188Y-104702518D01*
X232547928Y-104827000D01*
X228008608Y-104827000D01*
X227950240Y-104788000D01*
X228124632Y-104671475D01*
X228331475Y-104464632D01*
X228493990Y-104221411D01*
X228605932Y-103951158D01*
X228663000Y-103664260D01*
X228663000Y-103371740D01*
X228605932Y-103084842D01*
X228493990Y-102814589D01*
X228331475Y-102571368D01*
X228124632Y-102364525D01*
X227950240Y-102248000D01*
X228124632Y-102131475D01*
X228331475Y-101924632D01*
X228493990Y-101681411D01*
X228605932Y-101411158D01*
X228663000Y-101124260D01*
X228663000Y-100831740D01*
X228605932Y-100544842D01*
X228493990Y-100274589D01*
X228331475Y-100031368D01*
X228199620Y-99899513D01*
X228272180Y-99877502D01*
X228382494Y-99818537D01*
X228479185Y-99739185D01*
X228558537Y-99642494D01*
X228617502Y-99532180D01*
X228653812Y-99412482D01*
X228666072Y-99288000D01*
X243469928Y-99288000D01*
X243482188Y-99412482D01*
X243518498Y-99532180D01*
X243577463Y-99642494D01*
X243656815Y-99739185D01*
X243753506Y-99818537D01*
X243863820Y-99877502D01*
X243936380Y-99899513D01*
X243804525Y-100031368D01*
X243642010Y-100274589D01*
X243530068Y-100544842D01*
X243473000Y-100831740D01*
X243473000Y-101124260D01*
X243530068Y-101411158D01*
X243642010Y-101681411D01*
X243804525Y-101924632D01*
X244011368Y-102131475D01*
X244185760Y-102248000D01*
X244011368Y-102364525D01*
X243804525Y-102571368D01*
X243642010Y-102814589D01*
X243530068Y-103084842D01*
X243473000Y-103371740D01*
X243473000Y-103664260D01*
X243530068Y-103951158D01*
X243642010Y-104221411D01*
X243804525Y-104464632D01*
X244011368Y-104671475D01*
X244185760Y-104788000D01*
X244011368Y-104904525D01*
X243804525Y-105111368D01*
X243642010Y-105354589D01*
X243530068Y-105624842D01*
X243473000Y-105911740D01*
X243473000Y-106204260D01*
X243530068Y-106491158D01*
X243642010Y-106761411D01*
X243804525Y-107004632D01*
X244011368Y-107211475D01*
X244185760Y-107328000D01*
X244011368Y-107444525D01*
X243804525Y-107651368D01*
X243642010Y-107894589D01*
X243530068Y-108164842D01*
X243473000Y-108451740D01*
X243473000Y-108744260D01*
X243530068Y-109031158D01*
X243642010Y-109301411D01*
X243804525Y-109544632D01*
X243936380Y-109676487D01*
X243863820Y-109698498D01*
X243753506Y-109757463D01*
X243656815Y-109836815D01*
X243577463Y-109933506D01*
X243518498Y-110043820D01*
X243482188Y-110163518D01*
X243469928Y-110288000D01*
X243473000Y-110852250D01*
X243631750Y-111011000D01*
X244831000Y-111011000D01*
X244831000Y-110991000D01*
X245085000Y-110991000D01*
X245085000Y-111011000D01*
X246284250Y-111011000D01*
X246443000Y-110852250D01*
X246446072Y-110288000D01*
X246433812Y-110163518D01*
X246397502Y-110043820D01*
X246338537Y-109933506D01*
X246259185Y-109836815D01*
X246162494Y-109757463D01*
X246052180Y-109698498D01*
X245979620Y-109676487D01*
X246111475Y-109544632D01*
X246273990Y-109301411D01*
X246276646Y-109295000D01*
X251791117Y-109295000D01*
X251932525Y-109506632D01*
X252139368Y-109713475D01*
X252321534Y-109835195D01*
X252204645Y-109904822D01*
X251988412Y-110099731D01*
X251814359Y-110333080D01*
X251689175Y-110595901D01*
X251644524Y-110743110D01*
X251765845Y-110973000D01*
X252959000Y-110973000D01*
X252959000Y-110953000D01*
X253213000Y-110953000D01*
X253213000Y-110973000D01*
X254406155Y-110973000D01*
X254527476Y-110743110D01*
X254482825Y-110595901D01*
X254357641Y-110333080D01*
X254183588Y-110099731D01*
X253967355Y-109904822D01*
X253850466Y-109835195D01*
X254032632Y-109713475D01*
X254239475Y-109506632D01*
X254401990Y-109263411D01*
X254513932Y-108993158D01*
X254571000Y-108706260D01*
X254571000Y-108413740D01*
X254513932Y-108126842D01*
X254401990Y-107856589D01*
X254239475Y-107613368D01*
X254032632Y-107406525D01*
X253858240Y-107290000D01*
X254032632Y-107173475D01*
X254239475Y-106966632D01*
X254401990Y-106723411D01*
X254513932Y-106453158D01*
X254571000Y-106166260D01*
X254571000Y-105873740D01*
X254513932Y-105586842D01*
X254401990Y-105316589D01*
X254239475Y-105073368D01*
X254032632Y-104866525D01*
X253858240Y-104750000D01*
X254032632Y-104633475D01*
X254239475Y-104426632D01*
X254401990Y-104183411D01*
X254513932Y-103913158D01*
X254571000Y-103626260D01*
X254571000Y-103333740D01*
X254513932Y-103046842D01*
X254401990Y-102776589D01*
X254239475Y-102533368D01*
X254032632Y-102326525D01*
X253858240Y-102210000D01*
X254032632Y-102093475D01*
X254239475Y-101886632D01*
X254401990Y-101643411D01*
X254513932Y-101373158D01*
X254571000Y-101086260D01*
X254571000Y-100793740D01*
X254513932Y-100506842D01*
X254401990Y-100236589D01*
X254239475Y-99993368D01*
X254032632Y-99786525D01*
X253850466Y-99664805D01*
X253967355Y-99595178D01*
X254183588Y-99400269D01*
X254357641Y-99166920D01*
X254482825Y-98904099D01*
X254527476Y-98756890D01*
X254406155Y-98527000D01*
X253213000Y-98527000D01*
X253213000Y-98547000D01*
X252959000Y-98547000D01*
X252959000Y-98527000D01*
X251765845Y-98527000D01*
X251644524Y-98756890D01*
X251689175Y-98904099D01*
X251814359Y-99166920D01*
X251988412Y-99400269D01*
X252204645Y-99595178D01*
X252321534Y-99664805D01*
X252139368Y-99786525D01*
X251932525Y-99993368D01*
X251770010Y-100236589D01*
X251767354Y-100243000D01*
X246252883Y-100243000D01*
X246111475Y-100031368D01*
X245979620Y-99899513D01*
X246052180Y-99877502D01*
X246162494Y-99818537D01*
X246259185Y-99739185D01*
X246338537Y-99642494D01*
X246397502Y-99532180D01*
X246433812Y-99412482D01*
X246446072Y-99288000D01*
X246443000Y-98723750D01*
X246284250Y-98565000D01*
X245085000Y-98565000D01*
X245085000Y-98585000D01*
X244831000Y-98585000D01*
X244831000Y-98565000D01*
X243631750Y-98565000D01*
X243473000Y-98723750D01*
X243469928Y-99288000D01*
X228666072Y-99288000D01*
X228663000Y-98723750D01*
X228504250Y-98565000D01*
X227305000Y-98565000D01*
X227305000Y-98585000D01*
X227051000Y-98585000D01*
X227051000Y-98565000D01*
X225851750Y-98565000D01*
X225693000Y-98723750D01*
X225689928Y-99288000D01*
X225702188Y-99412482D01*
X225738498Y-99532180D01*
X225797463Y-99642494D01*
X225876815Y-99739185D01*
X225973506Y-99818537D01*
X226083820Y-99877502D01*
X226156380Y-99899513D01*
X226024525Y-100031368D01*
X225883117Y-100243000D01*
X219582883Y-100243000D01*
X219441475Y-100031368D01*
X219234632Y-99824525D01*
X219052466Y-99702805D01*
X219169355Y-99633178D01*
X219385588Y-99438269D01*
X219559641Y-99204920D01*
X219684825Y-98942099D01*
X219729476Y-98794890D01*
X219608155Y-98565000D01*
X218415000Y-98565000D01*
X218415000Y-98585000D01*
X218161000Y-98585000D01*
X218161000Y-98565000D01*
X216967845Y-98565000D01*
X216846524Y-98794890D01*
X216891175Y-98942099D01*
X217016359Y-99204920D01*
X217190412Y-99438269D01*
X217406645Y-99633178D01*
X217523534Y-99702805D01*
X217341368Y-99824525D01*
X217134525Y-100031368D01*
X216972010Y-100274589D01*
X216860068Y-100544842D01*
X216803000Y-100831740D01*
X206705000Y-100831740D01*
X206705000Y-100793740D01*
X206647932Y-100506842D01*
X206535990Y-100236589D01*
X206373475Y-99993368D01*
X206166632Y-99786525D01*
X205992240Y-99670000D01*
X206166632Y-99553475D01*
X206373475Y-99346632D01*
X206535990Y-99103411D01*
X206647932Y-98833158D01*
X206705000Y-98546260D01*
X206705000Y-98253740D01*
X206647932Y-97966842D01*
X206535990Y-97696589D01*
X206373475Y-97453368D01*
X206166632Y-97246525D01*
X205992240Y-97130000D01*
X206166632Y-97013475D01*
X206373475Y-96806632D01*
X206535990Y-96563411D01*
X206647932Y-96293158D01*
X206705000Y-96006260D01*
X206705000Y-95713740D01*
X206647932Y-95426842D01*
X206535990Y-95156589D01*
X206373475Y-94913368D01*
X206166632Y-94706525D01*
X205984466Y-94584805D01*
X206101355Y-94515178D01*
X206317588Y-94320269D01*
X206491641Y-94086920D01*
X206616825Y-93824099D01*
X206661476Y-93676890D01*
X206540155Y-93447000D01*
X205347000Y-93447000D01*
X205347000Y-93467000D01*
X205093000Y-93467000D01*
X205093000Y-93447000D01*
X205073000Y-93447000D01*
X205073000Y-93193000D01*
X205093000Y-93193000D01*
X205093000Y-91999186D01*
X205347000Y-91999186D01*
X205347000Y-93193000D01*
X206540155Y-93193000D01*
X206661476Y-92963110D01*
X206616825Y-92815901D01*
X206491641Y-92553080D01*
X206458017Y-92508000D01*
X216799928Y-92508000D01*
X216799928Y-94208000D01*
X216812188Y-94332482D01*
X216848498Y-94452180D01*
X216907463Y-94562494D01*
X216986815Y-94659185D01*
X217083506Y-94738537D01*
X217193820Y-94797502D01*
X217266380Y-94819513D01*
X217134525Y-94951368D01*
X216972010Y-95194589D01*
X216860068Y-95464842D01*
X216803000Y-95751740D01*
X216803000Y-96044260D01*
X216860068Y-96331158D01*
X216972010Y-96601411D01*
X217134525Y-96844632D01*
X217341368Y-97051475D01*
X217523534Y-97173195D01*
X217406645Y-97242822D01*
X217190412Y-97437731D01*
X217016359Y-97671080D01*
X216891175Y-97933901D01*
X216846524Y-98081110D01*
X216967845Y-98311000D01*
X218161000Y-98311000D01*
X218161000Y-98291000D01*
X218415000Y-98291000D01*
X218415000Y-98311000D01*
X219608155Y-98311000D01*
X219729476Y-98081110D01*
X219684825Y-97933901D01*
X219559641Y-97671080D01*
X219385588Y-97437731D01*
X219169355Y-97242822D01*
X219052466Y-97173195D01*
X219234632Y-97051475D01*
X219441475Y-96844632D01*
X219582883Y-96633000D01*
X225883117Y-96633000D01*
X226024525Y-96844632D01*
X226156380Y-96976487D01*
X226083820Y-96998498D01*
X225973506Y-97057463D01*
X225876815Y-97136815D01*
X225797463Y-97233506D01*
X225738498Y-97343820D01*
X225702188Y-97463518D01*
X225689928Y-97588000D01*
X225693000Y-98152250D01*
X225851750Y-98311000D01*
X227051000Y-98311000D01*
X227051000Y-98291000D01*
X227305000Y-98291000D01*
X227305000Y-98311000D01*
X228504250Y-98311000D01*
X228663000Y-98152250D01*
X228666072Y-97588000D01*
X243469928Y-97588000D01*
X243473000Y-98152250D01*
X243631750Y-98311000D01*
X244831000Y-98311000D01*
X244831000Y-98291000D01*
X245085000Y-98291000D01*
X245085000Y-98311000D01*
X246284250Y-98311000D01*
X246443000Y-98152250D01*
X246446072Y-97588000D01*
X246433812Y-97463518D01*
X246397502Y-97343820D01*
X246338537Y-97233506D01*
X246259185Y-97136815D01*
X246162494Y-97057463D01*
X246052180Y-96998498D01*
X245979620Y-96976487D01*
X246111475Y-96844632D01*
X246273990Y-96601411D01*
X246276646Y-96595000D01*
X251791117Y-96595000D01*
X251932525Y-96806632D01*
X252139368Y-97013475D01*
X252321534Y-97135195D01*
X252204645Y-97204822D01*
X251988412Y-97399731D01*
X251814359Y-97633080D01*
X251689175Y-97895901D01*
X251644524Y-98043110D01*
X251765845Y-98273000D01*
X252959000Y-98273000D01*
X252959000Y-98253000D01*
X253213000Y-98253000D01*
X253213000Y-98273000D01*
X254406155Y-98273000D01*
X254527476Y-98043110D01*
X254482825Y-97895901D01*
X254357641Y-97633080D01*
X254183588Y-97399731D01*
X253967355Y-97204822D01*
X253850466Y-97135195D01*
X254032632Y-97013475D01*
X254239475Y-96806632D01*
X254401990Y-96563411D01*
X254513932Y-96293158D01*
X254571000Y-96006260D01*
X254571000Y-95713740D01*
X254513932Y-95426842D01*
X254401990Y-95156589D01*
X254239475Y-94913368D01*
X254032632Y-94706525D01*
X253858240Y-94590000D01*
X254032632Y-94473475D01*
X254239475Y-94266632D01*
X254401990Y-94023411D01*
X254513932Y-93753158D01*
X254571000Y-93466260D01*
X254571000Y-93173740D01*
X254513932Y-92886842D01*
X254401990Y-92616589D01*
X254239475Y-92373368D01*
X254032632Y-92166525D01*
X253789411Y-92004010D01*
X253519158Y-91892068D01*
X253232260Y-91835000D01*
X252939740Y-91835000D01*
X252652842Y-91892068D01*
X252382589Y-92004010D01*
X252139368Y-92166525D01*
X251932525Y-92373368D01*
X251770010Y-92616589D01*
X251767354Y-92623000D01*
X246252883Y-92623000D01*
X246111475Y-92411368D01*
X245904632Y-92204525D01*
X245661411Y-92042010D01*
X245391158Y-91930068D01*
X245104260Y-91873000D01*
X244811740Y-91873000D01*
X244524842Y-91930068D01*
X244254589Y-92042010D01*
X244011368Y-92204525D01*
X243804525Y-92411368D01*
X243642010Y-92654589D01*
X243530068Y-92924842D01*
X243473000Y-93211740D01*
X243473000Y-93504260D01*
X243530068Y-93791158D01*
X243642010Y-94061411D01*
X243804525Y-94304632D01*
X244011368Y-94511475D01*
X244185760Y-94628000D01*
X244011368Y-94744525D01*
X243804525Y-94951368D01*
X243642010Y-95194589D01*
X243530068Y-95464842D01*
X243473000Y-95751740D01*
X243473000Y-96044260D01*
X243530068Y-96331158D01*
X243642010Y-96601411D01*
X243804525Y-96844632D01*
X243936380Y-96976487D01*
X243863820Y-96998498D01*
X243753506Y-97057463D01*
X243656815Y-97136815D01*
X243577463Y-97233506D01*
X243518498Y-97343820D01*
X243482188Y-97463518D01*
X243469928Y-97588000D01*
X228666072Y-97588000D01*
X228653812Y-97463518D01*
X228617502Y-97343820D01*
X228558537Y-97233506D01*
X228479185Y-97136815D01*
X228382494Y-97057463D01*
X228272180Y-96998498D01*
X228199620Y-96976487D01*
X228331475Y-96844632D01*
X228493990Y-96601411D01*
X228605932Y-96331158D01*
X228663000Y-96044260D01*
X228663000Y-95751740D01*
X228605932Y-95464842D01*
X228493990Y-95194589D01*
X228331475Y-94951368D01*
X228124632Y-94744525D01*
X227950240Y-94628000D01*
X228124632Y-94511475D01*
X228331475Y-94304632D01*
X228493990Y-94061411D01*
X228605932Y-93791158D01*
X228663000Y-93504260D01*
X228663000Y-93441740D01*
X232043000Y-93441740D01*
X232043000Y-93734260D01*
X232100068Y-94021158D01*
X232212010Y-94291411D01*
X232374525Y-94534632D01*
X232581368Y-94741475D01*
X232824589Y-94903990D01*
X233094842Y-95015932D01*
X233381740Y-95073000D01*
X233674260Y-95073000D01*
X233961158Y-95015932D01*
X234231411Y-94903990D01*
X234474632Y-94741475D01*
X234606487Y-94609620D01*
X234628498Y-94682180D01*
X234687463Y-94792494D01*
X234766815Y-94889185D01*
X234863506Y-94968537D01*
X234973820Y-95027502D01*
X235093518Y-95063812D01*
X235218000Y-95076072D01*
X235782250Y-95073000D01*
X235941000Y-94914250D01*
X235941000Y-93715000D01*
X235921000Y-93715000D01*
X235921000Y-93461000D01*
X235941000Y-93461000D01*
X235941000Y-92261750D01*
X236195000Y-92261750D01*
X236195000Y-93461000D01*
X236215000Y-93461000D01*
X236215000Y-93715000D01*
X236195000Y-93715000D01*
X236195000Y-94914250D01*
X236353750Y-95073000D01*
X236918000Y-95076072D01*
X237042482Y-95063812D01*
X237162180Y-95027502D01*
X237272494Y-94968537D01*
X237369185Y-94889185D01*
X237448537Y-94792494D01*
X237507502Y-94682180D01*
X237529513Y-94609620D01*
X237661368Y-94741475D01*
X237904589Y-94903990D01*
X238174842Y-95015932D01*
X238461740Y-95073000D01*
X238754260Y-95073000D01*
X239041158Y-95015932D01*
X239311411Y-94903990D01*
X239554632Y-94741475D01*
X239761475Y-94534632D01*
X239923990Y-94291411D01*
X240035932Y-94021158D01*
X240093000Y-93734260D01*
X240093000Y-93441740D01*
X240035932Y-93154842D01*
X239923990Y-92884589D01*
X239761475Y-92641368D01*
X239554632Y-92434525D01*
X239311411Y-92272010D01*
X239041158Y-92160068D01*
X238754260Y-92103000D01*
X238461740Y-92103000D01*
X238174842Y-92160068D01*
X237904589Y-92272010D01*
X237661368Y-92434525D01*
X237529513Y-92566380D01*
X237507502Y-92493820D01*
X237448537Y-92383506D01*
X237369185Y-92286815D01*
X237272494Y-92207463D01*
X237162180Y-92148498D01*
X237042482Y-92112188D01*
X236918000Y-92099928D01*
X236353750Y-92103000D01*
X236195000Y-92261750D01*
X235941000Y-92261750D01*
X235782250Y-92103000D01*
X235218000Y-92099928D01*
X235093518Y-92112188D01*
X234973820Y-92148498D01*
X234863506Y-92207463D01*
X234766815Y-92286815D01*
X234687463Y-92383506D01*
X234628498Y-92493820D01*
X234606487Y-92566380D01*
X234474632Y-92434525D01*
X234231411Y-92272010D01*
X233961158Y-92160068D01*
X233674260Y-92103000D01*
X233381740Y-92103000D01*
X233094842Y-92160068D01*
X232824589Y-92272010D01*
X232581368Y-92434525D01*
X232374525Y-92641368D01*
X232212010Y-92884589D01*
X232100068Y-93154842D01*
X232043000Y-93441740D01*
X228663000Y-93441740D01*
X228663000Y-93211740D01*
X228605932Y-92924842D01*
X228493990Y-92654589D01*
X228331475Y-92411368D01*
X228124632Y-92204525D01*
X227881411Y-92042010D01*
X227611158Y-91930068D01*
X227324260Y-91873000D01*
X227031740Y-91873000D01*
X226744842Y-91930068D01*
X226474589Y-92042010D01*
X226231368Y-92204525D01*
X226024525Y-92411368D01*
X225883117Y-92623000D01*
X219776072Y-92623000D01*
X219776072Y-92508000D01*
X219763812Y-92383518D01*
X219727502Y-92263820D01*
X219668537Y-92153506D01*
X219589185Y-92056815D01*
X219492494Y-91977463D01*
X219382180Y-91918498D01*
X219262482Y-91882188D01*
X219138000Y-91869928D01*
X217438000Y-91869928D01*
X217313518Y-91882188D01*
X217193820Y-91918498D01*
X217083506Y-91977463D01*
X216986815Y-92056815D01*
X216907463Y-92153506D01*
X216848498Y-92263820D01*
X216812188Y-92383518D01*
X216799928Y-92508000D01*
X206458017Y-92508000D01*
X206317588Y-92319731D01*
X206101355Y-92124822D01*
X205851252Y-91975843D01*
X205576891Y-91878519D01*
X205347000Y-91999186D01*
X205093000Y-91999186D01*
X204863109Y-91878519D01*
X204588748Y-91975843D01*
X204338645Y-92124822D01*
X204122412Y-92319731D01*
X203951100Y-92549406D01*
X203833475Y-92373368D01*
X203626632Y-92166525D01*
X203383411Y-92004010D01*
X203113158Y-91892068D01*
X202826260Y-91835000D01*
X202533740Y-91835000D01*
X202246842Y-91892068D01*
X201976589Y-92004010D01*
X201733368Y-92166525D01*
X201526525Y-92373368D01*
X201364010Y-92616589D01*
X201252068Y-92886842D01*
X201195000Y-93173740D01*
X201135000Y-93173740D01*
X201135000Y-88254495D01*
X201965000Y-88254495D01*
X201965000Y-88645505D01*
X202041282Y-89029003D01*
X202190915Y-89390250D01*
X202408149Y-89715364D01*
X202684636Y-89991851D01*
X203009750Y-90209085D01*
X203370997Y-90358718D01*
X203754495Y-90435000D01*
X204145505Y-90435000D01*
X204529003Y-90358718D01*
X204890250Y-90209085D01*
X205215364Y-89991851D01*
X205491851Y-89715364D01*
X205709085Y-89390250D01*
X205858718Y-89029003D01*
X205935000Y-88645505D01*
X205935000Y-88254495D01*
X250965000Y-88254495D01*
X250965000Y-88645505D01*
X251041282Y-89029003D01*
X251190915Y-89390250D01*
X251408149Y-89715364D01*
X251684636Y-89991851D01*
X252009750Y-90209085D01*
X252370997Y-90358718D01*
X252754495Y-90435000D01*
X253145505Y-90435000D01*
X253529003Y-90358718D01*
X253890250Y-90209085D01*
X254215364Y-89991851D01*
X254491851Y-89715364D01*
X254709085Y-89390250D01*
X254858718Y-89029003D01*
X254935000Y-88645505D01*
X254935000Y-88254495D01*
X254858718Y-87870997D01*
X254709085Y-87509750D01*
X254491851Y-87184636D01*
X254215364Y-86908149D01*
X253890250Y-86690915D01*
X253529003Y-86541282D01*
X253145505Y-86465000D01*
X252754495Y-86465000D01*
X252370997Y-86541282D01*
X252009750Y-86690915D01*
X251684636Y-86908149D01*
X251408149Y-87184636D01*
X251190915Y-87509750D01*
X251041282Y-87870997D01*
X250965000Y-88254495D01*
X205935000Y-88254495D01*
X205858718Y-87870997D01*
X205709085Y-87509750D01*
X205491851Y-87184636D01*
X205215364Y-86908149D01*
X204890250Y-86690915D01*
X204529003Y-86541282D01*
X204145505Y-86465000D01*
X203754495Y-86465000D01*
X203370997Y-86541282D01*
X203009750Y-86690915D01*
X202684636Y-86908149D01*
X202408149Y-87184636D01*
X202190915Y-87509750D01*
X202041282Y-87870997D01*
X201965000Y-88254495D01*
X201135000Y-88254495D01*
X201135000Y-87983505D01*
X201182312Y-87500984D01*
X201312714Y-87069070D01*
X201524524Y-86670715D01*
X201809675Y-86321086D01*
X202157303Y-86033503D01*
X202554177Y-85818914D01*
X202985161Y-85685502D01*
X203465654Y-85635000D01*
X253416495Y-85635000D01*
X253899016Y-85682312D01*
G37*
G04 #@! TD.AperFunction*
M02*
