M48
; DRILL file {KiCad 5.1.9} date Mon Apr 12 13:29:12 2021
; FORMAT={-:-/ absolute / inch / decimal}
; #@! TF.CreationDate,2021-04-12T13:29:12-03:00
; #@! TF.GenerationSoftware,Kicad,Pcbnew,5.1.9
; #@! TF.FileFunction,Plated,1,2,PTH
FMAT,2
INCH
T1C0.0236
T2C0.0256
T3C0.0394
T4C0.0402
%
G90
G05
T1
X8.254Y-4.1155
X8.4178Y-4.2018
X8.4178Y-4.6118
X8.9181Y-3.5314
X9.064Y-4.7655
X9.274Y-5.1555
X9.294Y-4.3055
X9.344Y-4.3055
X9.454Y-5.6955
X9.524Y-5.1555
X9.524Y-5.6455
T2
X9.194Y-4.3555
X9.194Y-4.4055
X9.244Y-4.3555
X9.244Y-4.4055
X9.294Y-4.3555
X9.294Y-4.4055
X9.344Y-4.3555
X9.344Y-4.4055
X9.394Y-4.3555
X9.394Y-4.4055
T3
X7.9795Y-3.674
X7.9795Y-3.774
X7.9795Y-3.874
X7.9795Y-3.974
X7.9795Y-4.074
X7.9795Y-4.174
X7.9795Y-4.274
X7.9795Y-4.374
X7.9795Y-4.474
X7.9795Y-4.574
X7.9795Y-4.674
X7.9795Y-4.774
X7.9795Y-4.874
X7.9795Y-4.974
X7.9795Y-5.074
X7.9795Y-5.174
X7.9795Y-5.274
X7.9795Y-5.374
X7.9795Y-5.474
X7.9795Y-5.574
X8.0795Y-3.674
X8.0795Y-3.774
X8.0795Y-3.874
X8.0795Y-3.974
X8.0795Y-4.074
X8.0795Y-4.174
X8.0795Y-4.274
X8.0795Y-4.374
X8.0795Y-4.474
X8.0795Y-4.574
X8.0795Y-4.674
X8.0795Y-4.774
X8.0795Y-4.874
X8.0795Y-4.974
X8.0795Y-5.074
X8.0795Y-5.174
X8.0795Y-5.274
X8.0795Y-5.374
X8.0795Y-5.474
X8.0795Y-5.574
X8.294Y-5.3655
X8.2956Y-5.1655
X8.394Y-5.3655
X8.3956Y-5.1655
X8.404Y-5.7755
X8.504Y-5.7755
X8.594Y-3.6755
X8.594Y-3.7755
X8.594Y-3.8755
X8.594Y-3.9755
X8.594Y-4.0755
X8.594Y-4.1755
X8.594Y-4.2755
X8.594Y-4.3755
X8.594Y-4.4755
X8.594Y-4.5755
X8.594Y-4.6755
X8.594Y-4.7755
X8.594Y-4.8755
X8.594Y-4.9755
X8.594Y-5.0755
X8.594Y-5.1755
X8.594Y-5.2755
X8.594Y-5.3755
X8.594Y-5.4755
X8.594Y-5.5755
X9.214Y-4.1605
X9.379Y-4.1605
X9.964Y-3.674
X9.964Y-3.774
X9.964Y-3.874
X9.964Y-3.974
X9.964Y-4.074
X9.964Y-4.174
X9.964Y-4.274
X9.964Y-4.374
X9.964Y-4.474
X9.964Y-4.574
X9.964Y-4.674
X9.964Y-4.774
X9.964Y-4.874
X9.964Y-4.974
X9.964Y-5.074
X9.964Y-5.174
X9.964Y-5.274
X9.964Y-5.374
X9.964Y-5.474
X9.964Y-5.574
T4
X8.944Y-3.6755
X8.944Y-3.7755
X8.944Y-3.8755
X8.944Y-3.9755
X8.944Y-4.0755
X8.944Y-4.1755
X8.944Y-4.2755
X8.944Y-4.3755
X8.944Y-4.4755
X8.944Y-4.5755
X8.944Y-4.6755
X8.944Y-4.7755
X8.944Y-4.8755
X8.944Y-4.9755
X8.944Y-5.0755
X8.944Y-5.1755
X8.944Y-5.2755
X8.944Y-5.3755
X8.944Y-5.4755
X8.944Y-5.5755
X9.194Y-3.6846
X9.294Y-3.6846
X9.394Y-3.6846
X9.644Y-3.6755
X9.644Y-3.7755
X9.644Y-3.8755
X9.644Y-3.9755
X9.644Y-4.0755
X9.644Y-4.1755
X9.644Y-4.2755
X9.644Y-4.3755
X9.644Y-4.4755
X9.644Y-4.5755
X9.644Y-4.6755
X9.644Y-4.7755
X9.644Y-4.8755
X9.644Y-4.9755
X9.644Y-5.0755
X9.644Y-5.1755
X9.644Y-5.2755
X9.644Y-5.3755
X9.644Y-5.4755
X9.644Y-5.5755
T0
M30
