G04 #@! TF.GenerationSoftware,KiCad,Pcbnew,5.1.9*
G04 #@! TF.CreationDate,2021-04-12T13:30:16-03:00*
G04 #@! TF.ProjectId,Piprogrammer,50697072-6f67-4726-916d-6d65722e6b69,rev?*
G04 #@! TF.SameCoordinates,Original*
G04 #@! TF.FileFunction,Soldermask,Top*
G04 #@! TF.FilePolarity,Negative*
%FSLAX46Y46*%
G04 Gerber Fmt 4.6, Leading zero omitted, Abs format (unit mm)*
G04 Created by KiCad (PCBNEW 5.1.9) date 2021-04-12 13:30:16*
%MOMM*%
%LPD*%
G01*
G04 APERTURE LIST*
%ADD10R,1.000000X2.800000*%
%ADD11O,1.700000X1.700000*%
%ADD12R,1.700000X1.700000*%
%ADD13R,3.500000X1.700000*%
%ADD14O,1.800000X1.800000*%
%ADD15O,1.500000X1.500000*%
%ADD16R,1.700000X3.500000*%
%ADD17O,1.000000X1.000000*%
%ADD18R,1.000000X1.000000*%
%ADD19C,2.700000*%
G04 APERTURE END LIST*
G36*
G01*
X227923500Y-88361000D02*
X227448500Y-88361000D01*
G75*
G02*
X227211000Y-88123500I0J237500D01*
G01*
X227211000Y-87623500D01*
G75*
G02*
X227448500Y-87386000I237500J0D01*
G01*
X227923500Y-87386000D01*
G75*
G02*
X228161000Y-87623500I0J-237500D01*
G01*
X228161000Y-88123500D01*
G75*
G02*
X227923500Y-88361000I-237500J0D01*
G01*
G37*
G36*
G01*
X227923500Y-90186000D02*
X227448500Y-90186000D01*
G75*
G02*
X227211000Y-89948500I0J237500D01*
G01*
X227211000Y-89448500D01*
G75*
G02*
X227448500Y-89211000I237500J0D01*
G01*
X227923500Y-89211000D01*
G75*
G02*
X228161000Y-89448500I0J-237500D01*
G01*
X228161000Y-89948500D01*
G75*
G02*
X227923500Y-90186000I-237500J0D01*
G01*
G37*
D10*
X209811000Y-99052000D03*
X209811000Y-93252000D03*
X213811000Y-99052000D03*
X213811000Y-93252000D03*
G36*
G01*
X210905500Y-103196500D02*
X210430500Y-103196500D01*
G75*
G02*
X210193000Y-102959000I0J237500D01*
G01*
X210193000Y-102459000D01*
G75*
G02*
X210430500Y-102221500I237500J0D01*
G01*
X210905500Y-102221500D01*
G75*
G02*
X211143000Y-102459000I0J-237500D01*
G01*
X211143000Y-102959000D01*
G75*
G02*
X210905500Y-103196500I-237500J0D01*
G01*
G37*
G36*
G01*
X210905500Y-105021500D02*
X210430500Y-105021500D01*
G75*
G02*
X210193000Y-104784000I0J237500D01*
G01*
X210193000Y-104284000D01*
G75*
G02*
X210430500Y-104046500I237500J0D01*
G01*
X210905500Y-104046500D01*
G75*
G02*
X211143000Y-104284000I0J-237500D01*
G01*
X211143000Y-104784000D01*
G75*
G02*
X210905500Y-105021500I-237500J0D01*
G01*
G37*
G36*
G01*
X212690499Y-104046500D02*
X213165499Y-104046500D01*
G75*
G02*
X213402999Y-104284000I0J-237500D01*
G01*
X213402999Y-104784000D01*
G75*
G02*
X213165499Y-105021500I-237500J0D01*
G01*
X212690499Y-105021500D01*
G75*
G02*
X212452999Y-104784000I0J237500D01*
G01*
X212452999Y-104284000D01*
G75*
G02*
X212690499Y-104046500I237500J0D01*
G01*
G37*
G36*
G01*
X212690499Y-102221500D02*
X213165499Y-102221500D01*
G75*
G02*
X213402999Y-102459000I0J-237500D01*
G01*
X213402999Y-102959000D01*
G75*
G02*
X213165499Y-103196500I-237500J0D01*
G01*
X212690499Y-103196500D01*
G75*
G02*
X212452999Y-102959000I0J237500D01*
G01*
X212452999Y-102459000D01*
G75*
G02*
X212690499Y-102221500I237500J0D01*
G01*
G37*
D11*
X244958000Y-141618000D03*
X244958000Y-139078000D03*
D12*
X244958000Y-136538000D03*
D11*
X244958000Y-133998000D03*
X244958000Y-131458000D03*
X244958000Y-128918000D03*
X244958000Y-126378000D03*
D12*
X244958000Y-123838000D03*
D11*
X244958000Y-121298000D03*
X244958000Y-118758000D03*
X244958000Y-116218000D03*
X244958000Y-113678000D03*
D12*
X244958000Y-111138000D03*
D11*
X244958000Y-108598000D03*
X244958000Y-106058000D03*
X244958000Y-103518000D03*
X244958000Y-100978000D03*
D12*
X244958000Y-98438000D03*
D11*
X244958000Y-95898000D03*
X244958000Y-93358000D03*
X227178000Y-93358000D03*
X227178000Y-95898000D03*
D12*
X227178000Y-98438000D03*
D11*
X227178000Y-100978000D03*
X227178000Y-103518000D03*
X227178000Y-106058000D03*
X227178000Y-108598000D03*
D12*
X227178000Y-111138000D03*
D11*
X227178000Y-113678000D03*
X227178000Y-116218000D03*
X227178000Y-118758000D03*
X227178000Y-121298000D03*
D12*
X227178000Y-123838000D03*
D11*
X227178000Y-126378000D03*
X227178000Y-128918000D03*
X227178000Y-131458000D03*
X227178000Y-133998000D03*
D12*
X227178000Y-136538000D03*
D11*
X227178000Y-139078000D03*
X227178000Y-141618000D03*
D13*
X245858000Y-141618000D03*
X245858000Y-139078000D03*
X245858000Y-136538000D03*
X245858000Y-133998000D03*
X245858000Y-131458000D03*
X245858000Y-128918000D03*
X245858000Y-126378000D03*
X245858000Y-123838000D03*
X245858000Y-121298000D03*
X245858000Y-118758000D03*
X245858000Y-116218000D03*
X245858000Y-113678000D03*
X245858000Y-111138000D03*
X245858000Y-108598000D03*
X245858000Y-106058000D03*
X245858000Y-103518000D03*
X245858000Y-100978000D03*
X245858000Y-98438000D03*
X245858000Y-95898000D03*
X245858000Y-93358000D03*
X226278000Y-141618000D03*
X226278000Y-139078000D03*
X226278000Y-136538000D03*
X226278000Y-133998000D03*
X226278000Y-131458000D03*
X226278000Y-128918000D03*
X226278000Y-126378000D03*
X226278000Y-123838000D03*
X226278000Y-121298000D03*
X226278000Y-118758000D03*
X226278000Y-116218000D03*
X226278000Y-113678000D03*
X226278000Y-111138000D03*
X226278000Y-108598000D03*
X226278000Y-106058000D03*
X226278000Y-103518000D03*
X226278000Y-100978000D03*
X226278000Y-98438000D03*
X226278000Y-95898000D03*
X226278000Y-93358000D03*
D14*
X238793000Y-141488000D03*
X233343000Y-141488000D03*
D15*
X238493000Y-138458000D03*
X233643000Y-138458000D03*
D16*
X238608000Y-92688000D03*
D11*
X238608000Y-93588000D03*
D16*
X236068000Y-92688000D03*
D12*
X236068000Y-93588000D03*
D16*
X233528000Y-92688000D03*
D11*
X233528000Y-93588000D03*
G36*
G01*
X235797500Y-132557000D02*
X235322500Y-132557000D01*
G75*
G02*
X235085000Y-132319500I0J237500D01*
G01*
X235085000Y-131819500D01*
G75*
G02*
X235322500Y-131582000I237500J0D01*
G01*
X235797500Y-131582000D01*
G75*
G02*
X236035000Y-131819500I0J-237500D01*
G01*
X236035000Y-132319500D01*
G75*
G02*
X235797500Y-132557000I-237500J0D01*
G01*
G37*
G36*
G01*
X235797500Y-134382000D02*
X235322500Y-134382000D01*
G75*
G02*
X235085000Y-134144500I0J237500D01*
G01*
X235085000Y-133644500D01*
G75*
G02*
X235322500Y-133407000I237500J0D01*
G01*
X235797500Y-133407000D01*
G75*
G02*
X236035000Y-133644500I0J-237500D01*
G01*
X236035000Y-134144500D01*
G75*
G02*
X235797500Y-134382000I-237500J0D01*
G01*
G37*
G36*
G01*
X242147500Y-132557000D02*
X241672500Y-132557000D01*
G75*
G02*
X241435000Y-132319500I0J237500D01*
G01*
X241435000Y-131819500D01*
G75*
G02*
X241672500Y-131582000I237500J0D01*
G01*
X242147500Y-131582000D01*
G75*
G02*
X242385000Y-131819500I0J-237500D01*
G01*
X242385000Y-132319500D01*
G75*
G02*
X242147500Y-132557000I-237500J0D01*
G01*
G37*
G36*
G01*
X242147500Y-134382000D02*
X241672500Y-134382000D01*
G75*
G02*
X241435000Y-134144500I0J237500D01*
G01*
X241435000Y-133644500D01*
G75*
G02*
X241672500Y-133407000I237500J0D01*
G01*
X242147500Y-133407000D01*
G75*
G02*
X242385000Y-133644500I0J-237500D01*
G01*
X242385000Y-134144500D01*
G75*
G02*
X242147500Y-134382000I-237500J0D01*
G01*
G37*
G36*
G01*
X210905500Y-126969000D02*
X210430500Y-126969000D01*
G75*
G02*
X210193000Y-126731500I0J237500D01*
G01*
X210193000Y-126231500D01*
G75*
G02*
X210430500Y-125994000I237500J0D01*
G01*
X210905500Y-125994000D01*
G75*
G02*
X211143000Y-126231500I0J-237500D01*
G01*
X211143000Y-126731500D01*
G75*
G02*
X210905500Y-126969000I-237500J0D01*
G01*
G37*
G36*
G01*
X210905500Y-128794000D02*
X210430500Y-128794000D01*
G75*
G02*
X210193000Y-128556500I0J237500D01*
G01*
X210193000Y-128056500D01*
G75*
G02*
X210430500Y-127819000I237500J0D01*
G01*
X210905500Y-127819000D01*
G75*
G02*
X211143000Y-128056500I0J-237500D01*
G01*
X211143000Y-128556500D01*
G75*
G02*
X210905500Y-128794000I-237500J0D01*
G01*
G37*
G36*
G01*
X210684500Y-140519000D02*
X211159500Y-140519000D01*
G75*
G02*
X211397000Y-140756500I0J-237500D01*
G01*
X211397000Y-141256500D01*
G75*
G02*
X211159500Y-141494000I-237500J0D01*
G01*
X210684500Y-141494000D01*
G75*
G02*
X210447000Y-141256500I0J237500D01*
G01*
X210447000Y-140756500D01*
G75*
G02*
X210684500Y-140519000I237500J0D01*
G01*
G37*
G36*
G01*
X210684500Y-138694000D02*
X211159500Y-138694000D01*
G75*
G02*
X211397000Y-138931500I0J-237500D01*
G01*
X211397000Y-139431500D01*
G75*
G02*
X211159500Y-139669000I-237500J0D01*
G01*
X210684500Y-139669000D01*
G75*
G02*
X210447000Y-139431500I0J237500D01*
G01*
X210447000Y-138931500D01*
G75*
G02*
X210684500Y-138694000I237500J0D01*
G01*
G37*
G36*
G01*
X239425880Y-149846330D02*
X239425880Y-147847350D01*
G75*
G02*
X239527480Y-147745750I101600J0D01*
G01*
X240726360Y-147745750D01*
G75*
G02*
X240827960Y-147847350I0J-101600D01*
G01*
X240827960Y-149846330D01*
G75*
G02*
X240726360Y-149947930I-101600J0D01*
G01*
X239527480Y-149947930D01*
G75*
G02*
X239425880Y-149846330I0J101600D01*
G01*
G37*
G36*
G01*
X245024040Y-149846330D02*
X245024040Y-147847350D01*
G75*
G02*
X245125640Y-147745750I101600J0D01*
G01*
X246324520Y-147745750D01*
G75*
G02*
X246426120Y-147847350I0J-101600D01*
G01*
X246426120Y-149846330D01*
G75*
G02*
X246324520Y-149947930I-101600J0D01*
G01*
X245125640Y-149947930D01*
G75*
G02*
X245024040Y-149846330I0J101600D01*
G01*
G37*
G36*
G01*
X244023280Y-145848370D02*
X244023280Y-144499630D01*
G75*
G02*
X244124880Y-144398030I101600J0D01*
G01*
X244724320Y-144398030D01*
G75*
G02*
X244825920Y-144499630I0J-101600D01*
G01*
X244825920Y-145848370D01*
G75*
G02*
X244724320Y-145949970I-101600J0D01*
G01*
X244124880Y-145949970D01*
G75*
G02*
X244023280Y-145848370I0J101600D01*
G01*
G37*
G36*
G01*
X243022520Y-145848370D02*
X243022520Y-144499630D01*
G75*
G02*
X243124120Y-144398030I101600J0D01*
G01*
X243723560Y-144398030D01*
G75*
G02*
X243825160Y-144499630I0J-101600D01*
G01*
X243825160Y-145848370D01*
G75*
G02*
X243723560Y-145949970I-101600J0D01*
G01*
X243124120Y-145949970D01*
G75*
G02*
X243022520Y-145848370I0J101600D01*
G01*
G37*
G36*
G01*
X242026840Y-145848370D02*
X242026840Y-144499630D01*
G75*
G02*
X242128440Y-144398030I101600J0D01*
G01*
X242727880Y-144398030D01*
G75*
G02*
X242829480Y-144499630I0J-101600D01*
G01*
X242829480Y-145848370D01*
G75*
G02*
X242727880Y-145949970I-101600J0D01*
G01*
X242128440Y-145949970D01*
G75*
G02*
X242026840Y-145848370I0J101600D01*
G01*
G37*
G36*
G01*
X241026080Y-145848370D02*
X241026080Y-144499630D01*
G75*
G02*
X241127680Y-144398030I101600J0D01*
G01*
X241727120Y-144398030D01*
G75*
G02*
X241828720Y-144499630I0J-101600D01*
G01*
X241828720Y-145848370D01*
G75*
G02*
X241727120Y-145949970I-101600J0D01*
G01*
X241127680Y-145949970D01*
G75*
G02*
X241026080Y-145848370I0J101600D01*
G01*
G37*
D12*
X234036000Y-105677000D03*
D11*
X216002000Y-146698000D03*
D12*
X213462000Y-146698000D03*
D17*
X233528000Y-111900000D03*
X233528000Y-110630000D03*
X234798000Y-111900000D03*
X234798000Y-110630000D03*
X236068000Y-111900000D03*
X236068000Y-110630000D03*
X237338000Y-111900000D03*
X237338000Y-110630000D03*
X238608000Y-111900000D03*
D18*
X238608000Y-110630000D03*
D12*
X238227000Y-105677000D03*
D11*
X218288000Y-141618000D03*
X218288000Y-139078000D03*
X218288000Y-136538000D03*
X218288000Y-133998000D03*
X218288000Y-131458000D03*
X218288000Y-128918000D03*
X218288000Y-126378000D03*
X218288000Y-123838000D03*
X218288000Y-121298000D03*
X218288000Y-118758000D03*
X218288000Y-116218000D03*
X218288000Y-113678000D03*
X218288000Y-111138000D03*
X218288000Y-108598000D03*
X218288000Y-106058000D03*
X218288000Y-103518000D03*
X218288000Y-100978000D03*
X218288000Y-98438000D03*
X218288000Y-95898000D03*
D12*
X218288000Y-93358000D03*
D11*
X253086000Y-93320000D03*
X253086000Y-95860000D03*
X253086000Y-98400000D03*
X253086000Y-100940000D03*
X253086000Y-103480000D03*
X253086000Y-106020000D03*
X253086000Y-108560000D03*
X253086000Y-111100000D03*
X253086000Y-113640000D03*
X253086000Y-116180000D03*
X253086000Y-118720000D03*
X253086000Y-121260000D03*
X253086000Y-123800000D03*
X253086000Y-126340000D03*
X253086000Y-128880000D03*
X253086000Y-131420000D03*
X253086000Y-133960000D03*
X253086000Y-136500000D03*
X253086000Y-139040000D03*
D12*
X253086000Y-141580000D03*
D11*
X213248000Y-131204000D03*
D12*
X210708000Y-131204000D03*
D11*
X213208000Y-136284000D03*
D12*
X210668000Y-136284000D03*
G36*
G01*
X229734500Y-87386000D02*
X230209500Y-87386000D01*
G75*
G02*
X230447000Y-87623500I0J-237500D01*
G01*
X230447000Y-88198500D01*
G75*
G02*
X230209500Y-88436000I-237500J0D01*
G01*
X229734500Y-88436000D01*
G75*
G02*
X229497000Y-88198500I0J237500D01*
G01*
X229497000Y-87623500D01*
G75*
G02*
X229734500Y-87386000I237500J0D01*
G01*
G37*
G36*
G01*
X229734500Y-89136000D02*
X230209500Y-89136000D01*
G75*
G02*
X230447000Y-89373500I0J-237500D01*
G01*
X230447000Y-89948500D01*
G75*
G02*
X230209500Y-90186000I-237500J0D01*
G01*
X229734500Y-90186000D01*
G75*
G02*
X229497000Y-89948500I0J237500D01*
G01*
X229497000Y-89373500D01*
G75*
G02*
X229734500Y-89136000I237500J0D01*
G01*
G37*
G36*
G01*
X213445500Y-128794000D02*
X212970500Y-128794000D01*
G75*
G02*
X212733000Y-128556500I0J237500D01*
G01*
X212733000Y-127981500D01*
G75*
G02*
X212970500Y-127744000I237500J0D01*
G01*
X213445500Y-127744000D01*
G75*
G02*
X213683000Y-127981500I0J-237500D01*
G01*
X213683000Y-128556500D01*
G75*
G02*
X213445500Y-128794000I-237500J0D01*
G01*
G37*
G36*
G01*
X213445500Y-127044000D02*
X212970500Y-127044000D01*
G75*
G02*
X212733000Y-126806500I0J237500D01*
G01*
X212733000Y-126231500D01*
G75*
G02*
X212970500Y-125994000I237500J0D01*
G01*
X213445500Y-125994000D01*
G75*
G02*
X213683000Y-126231500I0J-237500D01*
G01*
X213683000Y-126806500D01*
G75*
G02*
X213445500Y-127044000I-237500J0D01*
G01*
G37*
G36*
G01*
X213191500Y-139744000D02*
X212716500Y-139744000D01*
G75*
G02*
X212479000Y-139506500I0J237500D01*
G01*
X212479000Y-138931500D01*
G75*
G02*
X212716500Y-138694000I237500J0D01*
G01*
X213191500Y-138694000D01*
G75*
G02*
X213429000Y-138931500I0J-237500D01*
G01*
X213429000Y-139506500D01*
G75*
G02*
X213191500Y-139744000I-237500J0D01*
G01*
G37*
G36*
G01*
X213191500Y-141494000D02*
X212716500Y-141494000D01*
G75*
G02*
X212479000Y-141256500I0J237500D01*
G01*
X212479000Y-140681500D01*
G75*
G02*
X212716500Y-140444000I237500J0D01*
G01*
X213191500Y-140444000D01*
G75*
G02*
X213429000Y-140681500I0J-237500D01*
G01*
X213429000Y-141256500D01*
G75*
G02*
X213191500Y-141494000I-237500J0D01*
G01*
G37*
X205220000Y-141580000D03*
D11*
X202680000Y-141580000D03*
X205220000Y-139040000D03*
X202680000Y-139040000D03*
X205220000Y-136500000D03*
X202680000Y-136500000D03*
X205220000Y-133960000D03*
X202680000Y-133960000D03*
X205220000Y-131420000D03*
X202680000Y-131420000D03*
X205220000Y-128880000D03*
X202680000Y-128880000D03*
X205220000Y-126340000D03*
X202680000Y-126340000D03*
X205220000Y-123800000D03*
X202680000Y-123800000D03*
X205220000Y-121260000D03*
X202680000Y-121260000D03*
X205220000Y-118720000D03*
X202680000Y-118720000D03*
X205220000Y-116180000D03*
X202680000Y-116180000D03*
X205220000Y-113640000D03*
X202680000Y-113640000D03*
X205220000Y-111100000D03*
X202680000Y-111100000D03*
X205220000Y-108560000D03*
X202680000Y-108560000D03*
X205220000Y-106020000D03*
X202680000Y-106020000D03*
X205220000Y-103480000D03*
X202680000Y-103480000D03*
X205220000Y-100940000D03*
X202680000Y-100940000D03*
X205220000Y-98400000D03*
X202680000Y-98400000D03*
X205220000Y-95860000D03*
X202680000Y-95860000D03*
X205220000Y-93320000D03*
X202680000Y-93320000D03*
D19*
X252950000Y-88450000D03*
X252950000Y-146450000D03*
X203950000Y-88450000D03*
X203950000Y-146450000D03*
D10*
X213811000Y-109000000D03*
X213811000Y-114800000D03*
X209811000Y-109000000D03*
X209811000Y-114800000D03*
M02*
